<?xml version="1.0" standalone="no"?>
<!DOCTYPE svg PUBLIC "-//W3C//DTD SVG 1.1//EN" "http://www.w3.org/Graphics/SVG/1.1/DTD/svg11.dtd" >
<svg>
<metadata>
Created by FontForge 20110222 at Thu Apr 26 21:56:56 2012
 By www-data
Copyright (c) 2012 by Kimberly Geswein. All rights reserved.
</metadata>
<defs>
<font id="JandaManateeBubble" horiz-adv-x="665" >
  <font-face 
    font-family="Janda Manatee Bubble"
    font-weight="400"
    font-stretch="normal"
    units-per-em="1024"
    panose-1="2 0 5 6 0 0 0 2 0 4"
    ascent="819"
    descent="-205"
    x-height="610"
    cap-height="818"
    bbox="-197 -356.111 991 1175"
    underline-thickness="0"
    underline-position="0"
    unicode-range="U+0020-20AC"
  />
    <missing-glyph />
    <glyph glyph-name="space" unicode=" " horiz-adv-x="400" 
 />
    <glyph glyph-name="space" unicode="&#xa0;" horiz-adv-x="400" 
 />
    <glyph glyph-name="quotedbl" unicode="&#x22;" horiz-adv-x="712" 
d="M325 474q-26 -9 -44 -15t-31 -9t-22.5 -4.5t-18.5 -1.5q-38 0 -72 19t-59 51t-37 72.5t-7 84.5q8 36 25 64.5t39.5 48.5t49 30.5t52.5 10.5q35 0 64 -16q40 -23 60.5 -61t20.5 -76q0 -42 -22 -74.5t-67 -41.5q3 -3 14 -16t22.5 -27.5t21 -26t11.5 -12.5zM650 435
q-44 -23 -66 -29.5t-39 -6.5q-39 0 -73 19t-59 50.5t-37 72t-7 84.5q8 36 25.5 64.5t40 48.5t48.5 30.5t52 10.5q34 0 65 -16h-1q40 -23 60.5 -61t20.5 -76q0 -42 -22 -74.5t-67 -41.5q4 -3 13 -15t19 -25t18 -23.5t9 -11.5zM596 454q-4 2 -16 10.5t-23.5 21.5t-19 31
t-2.5 39q46 -11 71 7t30 47.5t-10 62.5t-48 52q-23 12 -48.5 10.5t-49 -15.5t-42 -39.5t-26.5 -61.5q-5 -42 9 -79.5t41 -63t62 -33t72 10.5zM260 500q-3 2 -15 10.5t-24 21.5t-19.5 31t-1.5 39q45 -11 70 7t30 47.5t-9.5 62.5t-47.5 52q-23 12 -48.5 10.5t-49 -15.5
t-42 -39.5t-26.5 -61.5q-5 -42 9 -79.5t40.5 -63t62 -33t71.5 10.5z" />
    <glyph glyph-name="parenright" unicode=")" horiz-adv-x="525" 
d="M89 143q-12 -50 -7 -77.5t16 -41t25 -17.5t20 -7h2q55 24 111.5 69t102 102t73 122.5t23.5 130.5q-3 66 -32.5 134t-76.5 124.5t-107 95t-124 45.5q-18 -2 -29 -19t-14.5 -39.5t-1 -44.5t11.5 -34q7 0 37 -16t65.5 -47t65.5 -78t37 -109q4 -40 -14.5 -85t-48.5 -86.5
t-67 -74t-68 -47.5zM70 182q28 13 59.5 41t57.5 63t42.5 73.5t14.5 72.5q-8 50 -35.5 89t-59 66.5t-58.5 42t-33 14.5q-15 22 -23 46.5t-8 47.5q0 22 5 44t16 40t27.5 30t40.5 14q47 -5 93 -26.5t87.5 -54t76.5 -75t62 -89.5t43 -97t20 -97q0 -70 -32.5 -143t-84 -137.5
t-115 -115.5t-124.5 -78q-44 9 -69.5 36t-34 60.5t0 69.5t31.5 63z" />
    <glyph glyph-name="nine" unicode="9" horiz-adv-x="534" 
d="M252 600q20 3 32.5 -5.5t17.5 -22.5t4 -32t-8 -34t-19 -28t-29 -15q-23 -2 -37 7t-19.5 23.5t-4 32.5t9.5 33.5t21.5 27t31.5 13.5zM280 69q14 -22 43.5 -29t59 -5t51 10t20.5 17q10 103 16 179.5t8 131.5t0.5 93.5t-4.5 66t-8.5 48t-11.5 41.5q-14 37 -37.5 63.5
t-53 41.5t-64 16t-71.5 -13q-47 -18 -85 -49t-60.5 -70t-27.5 -85t14 -95q14 -36 38.5 -59t55.5 -33.5t65 -9t68 14.5zM250 288q-9 -2 -15.5 -2h-15.5q-61 0 -112.5 31t-78.5 97q-9 24 -13 47.5t-4 46.5q0 44 15 84t42 73.5t64 60.5t80 44q44 16 82 16q67 0 120 -40.5
t82 -112.5q5 -19 10 -37.5t8.5 -41.5t5.5 -52t2 -69q0 -60 -5.5 -150t-18.5 -225v1q-2 -12 -13.5 -24.5t-29.5 -22t-40.5 -15.5t-46.5 -6q-36 0 -72 15t-60 51zM257 557q-7 -2 -14 -10t-10 -17t-1 -17t12 -8q7 1 11.5 9.5t6 18t0.5 17t-5 7.5z" />
    <glyph glyph-name="one" unicode="1" horiz-adv-x="561" 
d="M465 46q15 10 22.5 35.5t7.5 54.5t-6 55t-18 37l-107 -1l1 526h-154l-125 -78q-7 -21 -3.5 -50t12.5 -54t22 -39t25 -5l69 28l-3 -328l-110 -1q-15 -4 -23 -30.5t-9.5 -58t4.5 -58.5t21 -33h374zM82 3q-16 6 -27 18.5t-18.5 29t-11 36.5t-3.5 40q0 23 4.5 46.5t13.5 43
t22 33.5t30 19l73 1q0 30 0.5 55.5t1 50.5t1 52.5t0.5 62.5q-1 0 -2 -1t-2 -1q-21 -12 -43.5 -2t-41 33.5t-30 56t-11.5 65.5q0 12 3.5 27.5t9.5 33.5l149 93h209l-2 -526q19 0 41 0.5t38 0.5q26 -23 39.5 -59t13.5 -73q0 -39 -14.5 -77t-45.5 -59h-397z" />
    <glyph glyph-name="asterisk" unicode="*" horiz-adv-x="596" 
d="M161 505h-57q-17 -12 -25 -30.5t-7.5 -39.5t9 -42t23.5 -39h66l-37 -67q3 -21 15 -37t30.5 -25.5t41 -12.5t45.5 2l29 51l32 -59q25 -11 49 -3.5t42.5 22t30 31t11.5 23.5l-41 74h78q22 16 27 40.5t1 48t-13 41.5t-15 22h-70l38 68q-4 27 -22.5 43t-41 24t-42.5 9t-26 -2
l-38 -68l-37 67q-20 9 -40 7t-38 -12.5t-32.5 -28t-22.5 -39.5zM84 587q9 24 23.5 44t33 35t39.5 23t44 8q26 0 65 -18l5 -11q2 3 3 5.5t3 5.5q7 4 24 4t39 -3.5t46 -12t45 -23t36 -35.5t19 -49l-10 -12h8q8 -5 18.5 -17.5t20 -30.5t16 -39t6.5 -42q0 -28 -12 -55.5
t-45 -53.5h-20q3 -6 6 -11.5t6 -10.5q-1 -10 -13 -32t-32 -44t-46.5 -38.5t-55.5 -16.5q-11 0 -26 3.5t-34 11.5l-2 3q-18 -4 -32.5 -5.5t-24.5 -1.5q-27 0 -54 9.5t-49.5 24.5t-37.5 33.5t-17 35.5l17 40h-12q-28 32 -42 64.5t-14 61.5t14.5 58t46.5 52l-3 5z" />
    <glyph glyph-name="numbersign" unicode="#" horiz-adv-x="796" 
d="M360 460l67 -2v-83l-67 2v83zM427 108q15 -16 34.5 -21t39.5 -3t37.5 9t28.5 15v124l116 -4q15 6 23 27t9 44.5t-6.5 43.5t-23.5 24l-118 4v83l124 -5q15 7 23.5 30t9 48.5t-6.5 47t-23 25.5l-127 4v118q-7 15 -28 22.5t-45 8t-43.5 -7t-23.5 -23.5v-113l-67 2v111
q-7 15 -27.5 22.5t-43 8t-41.5 -7t-22 -23.5v-107l-119 4q-17 -14 -22.5 -35t-4 -43.5t8 -42t14.5 -30.5l123 -4v-83l-128 5q-17 -14 -22 -33.5t-3.5 -39t8 -37.5t14.5 -29l131 -4v-135q14 -16 33 -21t38 -3t35.5 9t27.5 15v131l67 -2v-129zM489 41q-23 0 -47.5 8.5
t-47.5 31.5q-23 -16 -53 -28t-56 -12q-25 0 -51 10.5t-51 39.5v110q-29 1 -58.5 2t-52.5 2q-8 11 -16 25t-14 30t-10 32t-4 31q0 26 12 53t40 51q-16 23 -29.5 58t-13.5 66q0 29 12.5 58t41.5 54l92 -4v67q7 35 38 52.5t67 17.5q29 0 58 -12.5t47 -35.5q14 24 41 36t58 12
q17 0 35 -4.5t34 -12.5t29 -20t20 -27v-85q26 -1 46.5 -2t45.5 -2q34 -8 49.5 -39.5t15.5 -70.5q0 -37 -17 -73.5t-48 -52.5q29 -11 43 -39.5t14 -62.5q0 -18 -4.5 -36t-13.5 -34t-21.5 -29.5t-28.5 -20.5l-81 4v-101q-23 -17 -56.5 -32t-64.5 -15z" />
    <glyph glyph-name="two" unicode="2" horiz-adv-x="564" 
d="M478 43q13 21 18.5 45.5t5.5 49t-4 47t-10 39.5l-195 -10q37 26 71.5 61t62.5 78t48 93t29 106q1 73 -26.5 116.5t-71 61.5t-96 12t-100.5 -31t-84 -67.5t-47 -97.5q0 -24 10.5 -47t25.5 -38t31.5 -18.5t28.5 10.5q5 13 17 30t28 34t35 31.5t37 22.5t33.5 6.5t25.5 -16.5
q3 -18 -15.5 -59t-54.5 -91t-86 -103t-109 -95q-28 -32 -28 -78t18 -93zM46 -1q-20 38 -25.5 70.5t-5.5 59.5q0 30 11 60.5t34 57.5q48 34 89.5 74.5t74 80t54 74t28.5 56.5q-14 -5 -28.5 -17t-27 -26.5t-22.5 -29.5t-14 -26q-28 -35 -61 -35q-20 0 -41 13t-38 35t-28 49
t-10 56q11 54 41 97.5t71.5 74t90 47.5t95.5 17q43 0 82.5 -13.5t68.5 -42t46 -73t16 -106.5q-13 -89 -48.5 -161t-85.5 -128q29 2 55.5 3t49.5 3q11 -34 19 -68.5t8 -61.5q0 -30 -9.5 -65.5t-32.5 -73.5z" />
    <glyph glyph-name="colon" unicode=":" horiz-adv-x="371" 
d="M187 444q25 1 43 13t27 30t10 38.5t-7.5 38.5t-26.5 29.5t-46 12.5q-28 -3 -46 -15.5t-26.5 -30.5t-8.5 -38.5t9.5 -37.5t27 -28.5t44.5 -11.5zM184 154q25 1 43 13.5t27 30t10 38.5t-7.5 38.5t-26.5 29.5t-46 12q-28 -2 -46 -15t-26.5 -31t-8.5 -38t9.5 -37.5t27 -29
t44.5 -11.5zM183 111q-30 0 -53 10.5t-38.5 27.5t-23.5 39t-8 45q0 22 7.5 43.5t22.5 39t37.5 29.5t53.5 14q32 0 56 -10.5t39.5 -27.5t23 -38.5t7.5 -43.5q0 -23 -8 -45.5t-23 -40.5t-37.5 -29.5t-52.5 -12.5h-3zM186 401q-30 0 -53 10.5t-38.5 27t-23.5 38.5t-8 45
q0 22 7.5 44t22.5 39.5t37.5 29.5t53.5 14q32 0 55.5 -10.5t39.5 -27.5t23.5 -38.5t7.5 -44.5t-8 -45.5t-23 -40.5t-38 -29t-53 -12h-2z" />
    <glyph glyph-name="plus" unicode="+" horiz-adv-x="608" 
d="M374 356h102q18 10 28 28t11 38t-8 39t-28 30h-105v126q-4 23 -22.5 32.5t-41 8t-44.5 -12.5t-33 -28v-126h-101q-39 -46 -38.5 -81t38.5 -54h101v-144q-4 -9 14 -20.5t43.5 -16.5t50 2t33.5 35v144zM415 200q-11 -40 -39.5 -55t-61.5 -15q-23 0 -45.5 8.5t-40 21.5
t-28 28.5t-10.5 29.5v-6v101h-68q-72 35 -72 98q0 50 62 123h78v94q10 17 25 30.5t32 22.5t35 14t35 5q36 0 64 -19t36 -62v-85h74q34 -20 50.5 -49.5t16.5 -59.5q0 -33 -18 -63t-52 -49h-71z" />
    <glyph glyph-name="semicolon" unicode=";" horiz-adv-x="377" 
d="M185 354q26 1 43.5 13t27 30t10 38.5t-8 38.5t-26.5 29.5t-46 12.5q-41 -3 -61 -29t-19.5 -55t20.5 -53.5t60 -24.5zM130 -44q29 -15 57.5 -8.5t50.5 27t33.5 51t7.5 64.5q-7 29 -22 50t-34.5 32.5t-40.5 12.5t-39 -9q-27 -15 -38.5 -41.5t-7.5 -51t24 -39t57 -5.5
q4 -17 -1.5 -31.5t-15 -25.5t-19 -18t-12.5 -8zM65 -52q24 13 36 31t15 19q-32 12 -47.5 39t-15.5 59t17 65t52 52q26 16 57 16q23 0 45.5 -9t42 -26t34 -41.5t21.5 -55.5q5 -38 -5.5 -73t-32 -62t-51 -43t-62.5 -16q-8 0 -16.5 1.5t-20 6t-28.5 13.5t-41 24zM184 311
q-30 0 -53 10.5t-38.5 27.5t-23.5 39t-8 45q0 22 7.5 43.5t22.5 39t38 29.5t54 14q32 0 55.5 -10.5t39 -27.5t23 -38.5t7.5 -43.5q0 -23 -8 -45.5t-23 -40.5t-37.5 -29.5t-52.5 -12.5h-3z" />
    <glyph glyph-name="dollar" unicode="$" horiz-adv-x="614" 
d="M213 525q-8 14 3 27t34 24l-4 -80q-12 7 -21 14t-12 15zM363 304q24 -23 33 -41t7 -32.5t-14.5 -24t-30.5 -15.5zM226 -19q19 -18 37 -23.5t33.5 -3t29 11.5t24.5 19l3 71q52 10 93.5 34t68.5 56t37.5 69t1.5 74t-41 71.5t-89 60.5q-12 5 -26 10.5t-29 11.5l6 154
q8 0 25 -2.5t35.5 -5.5t35 -6.5t23.5 -6.5q13 -5 25 9.5t16 36t-2 45t-28 37.5q-9 2 -26.5 5.5t-37 7t-37 6t-25.5 3.5l3 88q-10 17 -29.5 26t-40 8.5t-36.5 -10t-18 -28.5l-3 -87q-44 -9 -81 -27t-63.5 -43.5t-41 -56t-14.5 -63.5q0 -37 17.5 -65t44.5 -49t60 -35.5
t64 -24.5l-7 -168q-8 0 -22.5 2t-31.5 8t-34.5 17t-30.5 30q-18 -7 -28.5 -22.5t-10.5 -38t13 -50t42 -57.5q25 -11 49.5 -17t48.5 -9zM184 18q-36 9 -77 25q-40 42 -57 79t-17 66q0 37 26 66t71 45q20 -27 35.5 -39.5t27.5 -17.5q1 18 2 40t2 46q-33 13 -66 30.5t-59.5 42
t-43 57t-16.5 75.5q0 37 14.5 71.5t41 64t63.5 52t82 35.5q1 16 1 31.5t1 29.5q5 38 34 56.5t65 18.5q31 0 62 -17.5t50 -50.5l-3 -61q12 -2 26.5 -4.5t28 -5t25.5 -5t19 -4.5q32 -19 45 -47t13 -56q0 -24 -8.5 -46.5t-22.5 -38t-32.5 -22t-37.5 1.5h1q-8 2 -26 6t-38 7
q-1 -19 -2 -35.5t-2 -42.5q3 -1 5.5 -1.5t5.5 -1.5q6 -3 12.5 -5.5t10.5 -3.5q82 -38 118.5 -92.5t36.5 -112.5q0 -37 -15 -72.5t-42 -66t-65 -54.5t-84 -38q-1 -17 -1 -31.5t-1 -27.5q-23 -20 -50.5 -36.5t-57.5 -16.5q-21 0 -46.5 11.5t-55.5 40.5z" />
    <glyph glyph-name="three" unicode="3" horiz-adv-x="573" 
d="M59 226q11 -55 36.5 -93.5t60 -60.5t75 -29t81 0t77.5 27.5t65 53.5t44 77t14 99q0 37 -11.5 72t-32 64.5t-48 50.5t-59.5 30l54 79q17 22 22.5 44.5t4 41.5t-7 33.5t-9.5 21.5h-313q-24 -14 -36 -33t-14 -40t4.5 -41.5t20.5 -36.5h163l-99 -82q-9 -12 -11.5 -29t4.5 -33
t22.5 -29t42.5 -17q37 22 66 17.5t48.5 -23t29 -45.5t6.5 -51q-2 -26 -16 -41.5t-34.5 -22t-44.5 -4t-47 12t-41.5 26.5t-27.5 40q-11 -1 -26 -8.5t-29 -19t-23.5 -25.5t-10.5 -26zM16 229q1 18 18.5 39t42 38.5t51.5 30t47 14.5q16 -39 45 -60.5t55 -21.5q16 0 27.5 7
t12.5 22q1 11 -1.5 24t-9 24t-16 18t-22.5 7q-14 0 -49 -19q-32 4 -55 16t-37.5 28.5t-21.5 35t-7 36.5q0 35 21 64l13 11h-63q-23 27 -36 56t-13 56q0 34 19.5 67t63.5 58h347q11 -17 24 -47t13 -60q0 -23 -8.5 -50t-26.5 -53l-8 -12t-3.5 -5t-3.5 -5t-9 -13
q28 -17 51.5 -42.5t40.5 -56t27 -65t10 -69.5q3 -72 -21 -129t-64.5 -96t-92.5 -59.5t-106 -20.5q-42 0 -82.5 13t-75 40t-59.5 68.5t-37 98.5z" />
    <glyph glyph-name="comma" unicode="," horiz-adv-x="306" 
d="M93 -18q30 -15 58.5 -8.5t50 27t33 51t7.5 64.5q-7 29 -22 50t-34 32.5t-40 12.5t-39 -9q-27 -15 -38.5 -41.5t-7.5 -51t24 -39t57 -5.5q4 -17 -2 -31.5t-15.5 -25.5t-19 -18t-12.5 -8zM35 -26l6.5 8t14.5 17t15 16.5t9 8.5q-32 12 -47.5 39t-15.5 59t17 65t52 52
q26 16 57 16q23 0 45.5 -9t42 -26t34 -41.5t21.5 -55.5q4 -38 -6.5 -73t-31.5 -62t-50.5 -43t-62.5 -16q-30 0 -60 14z" />
    <glyph glyph-name="less" unicode="&#x3c;" horiz-adv-x="556" 
d="M395 169q25 1 41 20t23.5 44t8.5 50t-3 37l-180 90l192 84q9 12 4 34.5t-17 45t-27.5 39t-27.5 17.5l-317 -146l-7 -143zM41 316l9 196l352 162q13 3 29 -6.5t31.5 -27t28.5 -41t20 -48.5t6 -49t-13 -43l-118 -52q30 -15 59.5 -29.5t55.5 -27.5q4 -14 7 -29.5t3 -27.5
q0 -23 -6.5 -51.5t-21.5 -54t-39 -43t-59 -18.5z" />
    <glyph glyph-name="percent" unicode="%" horiz-adv-x="776" 
d="M155 631q0 17 9 25.5t20.5 8.5t20.5 -9t9 -25q0 -18 -9 -28t-20.5 -10.5t-20.5 9t-9 29.5zM59 627q0 -48 23.5 -75.5t57 -36.5t71 -1.5t65.5 29.5t40 57.5t-4 81.5q-12 34 -35.5 53.5t-51.5 26.5t-57.5 1.5t-53.5 -23t-39.5 -46t-15.5 -67.5zM602 185q16 0 20 -12
t1.5 -27t-10 -27t-15.5 -12q-19 0 -26.5 12t-6 27t11 27t25.5 12zM659 669q-2 24 -15.5 42t-32.5 27.5t-41 9.5t-43 -13l-439 -660q12 -18 29 -31t37.5 -18t42 -2t42.5 17zM580 11q42 -3 71 15.5t45.5 47.5t20 64t-6.5 66t-34 52.5t-61 24.5q-46 3 -76 -15t-45.5 -47.5
t-17 -64.5t10 -66.5t35 -53t58.5 -23.5zM578 -32q-35 2 -62 18t-45.5 41t-28 56t-9.5 63q0 36 11 69.5t34 59t58 39.5t82 10h-1q36 -2 63 -17t45 -38.5t26.5 -53t8.5 -60.5q0 -35 -11.5 -70t-34.5 -62t-57 -42.5t-79 -12.5zM272 12q-25 -17 -48.5 -24.5t-43.5 -7.5
q-40 0 -78.5 26t-65.5 71l459 689q41 25 77 25q24 0 46.5 -9.5t40.5 -27.5t29.5 -42.5t13.5 -54.5zM16 627q0 44 15.5 78t40.5 57t57 35t65 12q50 0 94 -27t65 -85q5 -17 8.5 -32.5t3.5 -31.5q0 -39 -16.5 -70t-43 -52t-60 -32.5t-67.5 -11.5q-32 0 -61 9t-51.5 28.5t-36 50
t-13.5 72.5z" />
    <glyph glyph-name="four" unicode="4" horiz-adv-x="551" 
d="M284 65q12 -11 33.5 -16.5t44 -4t43 9.5t31.5 23l-1 301q7 0 11 0.5t7 0.5t6.5 0.5t10.5 0.5q11 5 17 27t6.5 48.5t-4 50t-14.5 31.5l-43 -1v176q-11 22 -32.5 30t-45 5.5t-44.5 -13t-31 -23.5l-2 -175h-74q0 15 0.5 38.5t0.5 49.5t0.5 49.5t0.5 38.5q-5 21 -29 28
t-50.5 4.5t-47.5 -11.5t-20 -20l-2 -335l221 -3zM234 332q-54 0 -114 1.5t-107 2.5l2 377q0 14 11 28t29 24.5t40.5 17t45.5 6.5q32 0 60.5 -13t41.5 -42q21 24 56 40t68 16q32 0 61 -15t48 -53v-142h13q24 -19 36 -52.5t12 -65.5q0 -39 -14.5 -75t-44.5 -50
q0 -68 0.5 -137.5t0.5 -134.5q-22 -32 -57 -48t-70 -16q-28 0 -58 11.5t-54 33.5z" />
    <glyph glyph-name="hyphen" unicode="-" horiz-adv-x="422" 
d="M328 197q13 4 21 26.5t9 48t-6.5 48t-25.5 28.5l-223 -4q-11 0 -20 -11t-14.5 -27t-7 -35t3 -35.5t14.5 -28t27 -12.5zM105 152q-24 1 -40 10.5t-26.5 25t-15 34.5t-4.5 40q0 22 6 44.5t17.5 40.5t27 29t33.5 11q55 1 114 2t115 2q37 -11 53.5 -43.5t16.5 -69.5
q0 -20 -5 -39.5t-14 -37t-21.5 -30t-27.5 -17.5z" />
    <glyph glyph-name="hyphen" unicode="&#xad;" horiz-adv-x="422" 
d="M328 197q13 4 21 26.5t9 48t-6.5 48t-25.5 28.5l-223 -4q-11 0 -20 -11t-14.5 -27t-7 -35t3 -35.5t14.5 -28t27 -12.5zM105 152q-24 1 -40 10.5t-26.5 25t-15 34.5t-4.5 40q0 22 6 44.5t17.5 40.5t27 29t33.5 11q55 1 114 2t115 2q37 -11 53.5 -43.5t16.5 -69.5
q0 -20 -5 -39.5t-14 -37t-21.5 -30t-27.5 -17.5z" />
    <glyph glyph-name="equal" unicode="=" horiz-adv-x="512" 
d="M415 181q22 17 27 41t1 47.5t-13 41t-15 21.5h-314q-17 -12 -25 -30.5t-8 -39.5t8.5 -42t24.5 -39h314zM415 451q22 16 27 40.5t1 47.5t-13 41t-15 22h-314q-17 -12 -25 -30.5t-8 -39.5t8.5 -42t24.5 -39h314zM68 422q-43 51 -43 112q0 30 15 59t47 52h339
q8 -5 18.5 -17.5t20 -30.5t16 -39t6.5 -41q0 -28 -12 -55.5t-45 -53.5h-329zM68 152q-21 25 -32 54t-11 58q0 30 15 59t47 52h339q8 -5 18.5 -17.5t20 -30.5t16 -39t6.5 -41q0 -28 -12 -55.5t-45 -53.5h-329z" />
    <glyph glyph-name="period" unicode="." horiz-adv-x="290" 
d="M145 44q25 1 43 13t27 30t9.5 38.5t-7.5 38.5t-26 29.5t-46 12.5q-27 -2 -45.5 -15t-27 -31t-8.5 -38t9.5 -37.5t27 -29t44.5 -11.5zM144 1q-30 0 -53 10.5t-38.5 27.5t-23.5 39t-8 45q0 22 7.5 43.5t22.5 39t37.5 29.5t53.5 14q32 0 55.5 -10.5t39.5 -27.5t23.5 -38.5
t7.5 -43.5q0 -23 -8 -45.5t-23 -40.5t-38 -29.5t-53 -12.5h-2z" />
    <glyph glyph-name="ampersand" unicode="&#x26;" horiz-adv-x="688" 
d="M361 657q10 -1 12.5 -17t-0.5 -35t-11 -34.5t-19 -14.5q-9 0 -13 16.5t-2.5 36t10 34.5t23.5 14zM365 263q-15 -19 -33.5 -35.5t-38 -26.5t-37.5 -12t-31 8q-11 8 -9 29.5t13.5 48.5t30.5 55t42 48zM65 202q-5 -50 11.5 -85t47 -54t71.5 -23t84 7t85.5 37.5t75.5 67.5
l69 -116q5 -6 22.5 -8t37 3t35.5 18t18 37l-93 151l95 124q6 21 0 42t-18 36.5t-27 22t-27 -0.5l-90 -105l-62 113q48 46 68.5 97.5t15.5 95.5t-33.5 73t-78.5 29q-54 0 -92.5 -25.5t-57 -66t-15 -89.5t35.5 -96q-32 -29 -62.5 -63.5t-55.5 -72t-41.5 -76t-18.5 -73.5z
M22 204q2 36 17 75t38 76.5t52 73.5t60 66q-25 53 -25 105q0 42 15 79.5t42 66t65.5 45t85.5 16.5q37 0 66.5 -12.5t49 -34.5t30 -51.5t10.5 -63.5q0 -45 -17.5 -91.5t-57.5 -91.5q2 -4 5 -10.5t11 -20.5q14 15 27.5 31.5t26.5 30.5q21 13 50 4t52.5 -32t36 -56t1.5 -67
l-82 -108q21 -34 43 -70t42 -68q-2 -31 -15 -52.5t-31.5 -34.5t-40 -19t-39.5 -6q-20 0 -37.5 7t-28.5 20l-42 70q-48 -42 -105 -63.5t-111 -21.5q-43 0 -81 13t-65 39t-40.5 65.5t-7.5 92.5v-2zM294 303q-28 -38 -34 -70q12 3 26 12.5t28 23.5z" />
    <glyph glyph-name="five" unicode="5" horiz-adv-x="530" 
d="M50 260q11 -80 47.5 -129t84.5 -69.5t101 -13.5t97.5 38.5t73.5 87t29 132.5q0 46 -25 83.5t-62.5 66t-80 46.5t-77.5 26l1 56l206 3q10 9 13.5 30.5t1.5 46.5t-9 47t-19 33l-375 -4l2 -302q35 -8 79 -16t82.5 -23.5t65 -42t28.5 -69.5q-9 -47 -33 -61t-49.5 -4.5
t-47 37.5t-26.5 66q-13 18 -34.5 19t-40 -9.5t-30 -30.5t-3.5 -44zM258 3q-44 0 -85 15t-75 46t-58 78t-33 111q-6 25 0 48t20.5 40.5t34.5 29t41 14.5q-5 1 -8.5 1.5t-7.5 1.5q-5 1 -15 3.5t-21 4.5t-21 4.5l-14 3.5l-2 379l434 4q13 -12 23.5 -28t18 -35t11 -38.5
t3.5 -37.5q0 -28 -10.5 -55.5t-30.5 -48.5l-132 -2q35 -16 70 -39t62.5 -53t45 -66t17.5 -78q0 -73 -23 -129.5t-61 -95t-86 -58.5t-98 -20zM271 289q-2 32 -31.5 50.5t-68.5 29.5q14 -8 27 -28q5 -35 21.5 -58t33.5 -23q5 0 9.5 6t8.5 23z" />
    <glyph glyph-name="greater" unicode="&#x3e;" horiz-adv-x="564" 
d="M474 341l-7 143l-317 146q-12 -1 -27.5 -17.5t-27.5 -39t-17 -45t4 -34.5l192 -84l-180 -90q-4 -12 -3 -37t8.5 -50t23 -44t41.5 -20zM175 126q-35 1 -59.5 18.5t-39.5 43t-21.5 54t-6.5 51.5q0 12 3 27.5t7 29.5l114 57q-30 14 -60 27t-57 25q-15 18 -17.5 42t4 48.5
t19.5 48t29.5 41.5t34 27.5t32.5 7.5l352 -162l9 -196z" />
    <glyph glyph-name="six" unicode="6" horiz-adv-x="577" 
d="M264 222q-9 28 0 51.5t26 38t36 17.5t30 -10q11 -25 3 -49.5t-24.5 -40.5t-37 -20t-33.5 13zM66 234q7 -52 30.5 -89.5t58.5 -60t79.5 -30.5t93.5 -1q60 18 99.5 53t60.5 78t24.5 90t-7 88t-35.5 72t-60.5 42t-81 -1t-98.5 -58q-3 20 11.5 54t41.5 67t65 57t84 25
q13 27 10 48.5t-12.5 38t-21 27t-17.5 15.5q-57 1 -105 -19t-86 -56.5t-66 -86t-45 -107t-23 -120.5t0 -126zM23 231q-3 30 -3 65q0 95 25.5 185t75 159.5t121.5 111t165 40.5q21 -6 39.5 -29t28 -54.5t7.5 -66t-23 -64.5q-49 -1 -85 -19.5t-58 -42.5q14 5 28 6.5t28 1.5
q43 0 77 -18.5t58 -49.5t37 -72t13 -86q0 -43 -12.5 -86.5t-39 -82t-67.5 -69.5t-98 -48q-18 -3 -32 -4t-27 -1q-49 0 -93 14t-78 42t-57 69.5t-30 96.5v2z" />
    <glyph glyph-name="quoteleft" unicode="&#x2018;" horiz-adv-x="327" 
d="M236 468q-4 2 -16 10.5t-23.5 21.5t-19 31t-2.5 39q46 -11 71 7t30 47.5t-10 62.5t-48 52q-23 12 -48.5 10.5t-49 -15.5t-42 -39.5t-26.5 -61.5q-5 -42 9 -79.5t41 -63t62 -33t72 10.5zM254 430q-35 -18 -69 -18q-39 0 -73 19t-59 51t-37 72.5t-7 84.5q8 36 25 64.5
t39.5 48.5t49 30.5t52.5 10.5q34 0 65 -16h-1q40 -23 60.5 -61t20.5 -76q0 -42 -22 -74.5t-67 -41.5q4 -3 14.5 -14.5t21.5 -23.5t20.5 -21.5l10.5 -10.5z" />
    <glyph glyph-name="braceleft" unicode="{" horiz-adv-x="477" 
d="M85 65q-3 -65 27.5 -105.5t78.5 -60.5t106 -21t110 13q19 21 21.5 49.5t-3.5 55.5t-16 46.5t-15 21.5q-38 -10 -63.5 -12t-41 2t-22.5 14t-8 24q-2 23 5 54.5t11.5 65.5t0 67.5t-30.5 61.5q30 27 42.5 53t14 51.5t-4.5 51t-13.5 51.5t-13 53t-2.5 56q12 27 29.5 41t37 19
t39 4.5t34.5 -2.5q15 12 23.5 37.5t10 52t-4 48.5t-18.5 27q-44 4 -93.5 -3.5t-94 -28.5t-76.5 -57.5t-41 -90.5q-6 -39 3 -71.5t21 -60.5t21 -52.5t2.5 -45.5t-34.5 -40t-89 -36l7 -113q43 -7 64 -21t26 -32t-1.5 -40t-16.5 -44t-20 -43.5t-12 -39.5zM42 71q3 18 11 38
t18 41q8 18 15.5 35.5t7.5 29.5q0 8 -19.5 16.5t-70.5 16.5l-11 182q74 21 101 35.5t27 26.5q0 9 -5.5 23.5t-12.5 29.5q-12 27 -23 60t-11 72q0 7 0.5 15t2.5 19v-1q9 59 41.5 100.5t77 68t96.5 38.5t101 12q8 0 19 -1t23 -1q29 -11 42 -41t13 -65q0 -18 -4.5 -38.5
t-12.5 -40.5t-20 -38t-28 -31q-15 3 -27.5 4.5t-20.5 1.5q-17 0 -34 -6.5t-28 -26.5q-2 -25 3.5 -47t12.5 -46v1q8 -25 13.5 -49.5t5.5 -50.5q0 -29 -10 -58.5t-34 -58.5q11 -21 15.5 -43t4.5 -45q0 -24 -4 -47.5t-8 -46.5q-3 -17 -5.5 -33t-1.5 -27q0 -1 12 -1q22 0 85 15
q7 -3 19.5 -18t24.5 -37t21 -47.5t9 -50.5q0 -26 -9.5 -52.5t-32.5 -51.5q-32 -8 -62.5 -12t-59.5 -4q-52 0 -101 13t-87 40.5t-60 71.5t-19 107v3z" />
    <glyph glyph-name="question" unicode="?" horiz-adv-x="552" 
d="M208 36q25 1 43 13.5t27 30t10 38t-7.5 38.5t-26.5 29.5t-46 12.5q-28 -2 -46 -15t-26.5 -31t-8.5 -38t9.5 -37.5t27 -29t44.5 -11.5zM135 336q16 -12 38 -19t44.5 -8t43.5 5t36 19l-1 63q35 7 69.5 22.5t61.5 40t44 59t17 80.5q0 67 -27.5 116t-69.5 77.5t-93 35.5
t-98 -10.5t-83.5 -59.5t-50.5 -112q-8 -24 3 -44t30 -30.5t40 -9t34 19.5q4 31 24 52.5t44.5 27t48 -7.5t35.5 -50q-8 -39 -30 -57.5t-50 -25t-57.5 -6t-53.5 0.5zM91 528q-35 15 -56.5 49.5t-10.5 79.5q11 56 35.5 96.5t57.5 67t72.5 39t80.5 12.5q49 0 96 -18t84 -53
t59.5 -86t22.5 -117q0 -50 -16 -88.5t-43 -67.5t-62 -48.5t-72 -30.5q0 -14 0.5 -27t0.5 -23q-29 -25 -59 -36t-59 -11q-31 0 -65 12.5t-65 37.5zM214 564q-2 -1 -2.5 -2.5t-2.5 -3.5q23 2 43 11t28 32q-10 19 -23 19q-14 0 -27 -15.5t-16 -40.5zM207 -7q-30 0 -53 10.5
t-38.5 27.5t-23.5 39t-8 45q0 22 7.5 43.5t22.5 39t37.5 29.5t53.5 14q32 0 55.5 -10.5t39.5 -27.5t23.5 -38.5t7.5 -43.5q0 -23 -8 -45.5t-23 -40.5t-38 -29.5t-53 -12.5h-2z" />
    <glyph glyph-name="quotesingle" unicode="'" horiz-adv-x="362" 
d="M108 468q37 -18 72 -10.5t61.5 33t41 63t9.5 79.5q-8 36 -26.5 61.5t-42 39.5t-49.5 15.5t-49 -10.5q-33 -19 -47.5 -52t-9.5 -62.5t30 -47.5t71 -7q5 -21 -2.5 -39t-19 -31t-23.5 -21.5t-16 -10.5zM48 467q1 1 9.5 8.5t19.5 17.5t21.5 19t14.5 12q-46 9 -67.5 41.5
t-21.5 74.5q0 38 20 76t61 61h-1q31 16 65 16q26 0 52 -10.5t48.5 -30.5t40 -48.5t25.5 -64.5q5 -44 -7 -84.5t-37 -72.5t-59 -51t-73 -19q-9 0 -23 3.5t-30 10t-31.5 17t-26.5 24.5z" />
    <glyph glyph-name="asciitilde" unicode="~" horiz-adv-x="580" 
d="M153 337q18 37 35.5 51.5t37.5 11.5q15 1 29.5 -10t31 -24t36 -23t44.5 -6q10 5 29.5 16t40.5 30t39.5 45.5t26.5 61.5q4 16 -9 34t-32.5 30t-40 14.5t-30.5 -12.5q-2 -12 -5.5 -26t-10.5 -26.5t-18 -20.5t-29 -8q-16 0 -28 12t-24.5 26t-27.5 26t-38 12
q-15 6 -36.5 -6.5t-41.5 -32.5t-35.5 -42t-18.5 -36q-8 -14 -3.5 -38.5t16.5 -44t28.5 -27t33.5 12.5zM185 307q-24 -27 -57 -27q-22 0 -42 20t-33.5 47.5t-17.5 56.5t5 48q7 19 27.5 44t46.5 47t53 36.5t48 12.5l-5 2q20 0 35.5 -5t27.5 -13.5t21.5 -19t18.5 -20.5
q5 -8 9.5 -13t5.5 -5q4 0 7.5 5.5t6.5 14t5 18.5t4 18q14 20 31 29t36 9q21 0 45.5 -13t44 -32.5t31 -42.5t6.5 -44q-10 -42 -32 -74t-46.5 -54.5t-48 -36t-36.5 -19.5q-25 -4 -44.5 -1t-35 9.5t-28 16t-24.5 18.5h1q-9 7 -15.5 12t-8.5 5q-15 3 -35 -37z" />
    <glyph glyph-name="seven" unicode="7" horiz-adv-x="583" 
d="M519 739l-413 2q-32 -12 -44.5 -38t-11.5 -52t12 -46.5t26 -22.5l205 -9l-163 -509q50 -29 99 -30t100 31zM366 39q-37 -25 -71 -36.5t-65 -11.5q-32 0 -69.5 13.5t-82.5 38.5l157 489q-39 2 -77.5 3.5t-76.5 3.5q-15 2 -28.5 12.5t-23.5 26t-16 35.5t-6 41q0 19 5 38
t15.5 36.5t28 32t42.5 23.5l478 -2z" />
    <glyph glyph-name="l" unicode="l" horiz-adv-x="297" 
d="M243 71q-4 73 -5 150.5t-1 155.5t-1 155t-4 151q-1 19 -14 33t-32.5 21.5t-41.5 9t-41.5 -3t-33 -15t-15.5 -26.5l4 -629q19 -21 48.5 -28t59 -4.5t51.5 11t26 19.5zM284 57q-4 -12 -17 -23t-31.5 -19t-41 -13t-45.5 -5q-33 0 -68.5 13.5t-65.5 46.5l-4 650q5 42 41 62.5
t81 20.5q25 0 50 -6.5t45 -20t32.5 -33t14.5 -45.5q4 -69 4.5 -141.5t0.5 -144.5q0 -84 0.5 -165.5t5.5 -159.5z" />
    <glyph glyph-name="asciicircum" unicode="^" horiz-adv-x="451" 
d="M419 462l-5 6q7 -11 3 -36.5t-17 -51.5t-34 -46.5t-48 -20.5q-18 0 -38.5 9t-40.5 31h-1l-2.5 -5t-3.5 -5q-16 -15 -32.5 -21.5t-32.5 -6.5q-19 0 -40 8.5t-40 25t-34 40t-22 52.5l106 154h-1q17 26 44 36.5t55 10.5q32 0 62 -13.5t44 -35.5zM305 571q-8 11 -25.5 19
t-37.5 9.5t-39.5 -5t-30.5 -23.5l-95 -138q6 -24 21 -41t33.5 -25.5t37 -8.5t30.5 11l41 71l36 -63q24 -26 46 -21.5t37.5 21.5t22 37t0.5 26z" />
    <glyph glyph-name="braceright" unicode="}" horiz-adv-x="478" 
d="M393 70q-2 18 -12 39t-20 43.5t-16.5 44t-1.5 40t25.5 32t64.5 20.5l7 113q-62 18 -89.5 37t-34 40t2.5 45t21 52.5t21 61t3 70.5q-9 54 -41 90.5t-76.5 58t-94.5 29t-93 3.5q-14 -6 -19 -28t-3.5 -48.5t10 -52t23.5 -37.5q15 2 34.5 2.5t39 -4.5t37 -19t29.5 -41
q3 -28 -2.5 -55t-13 -53.5t-13.5 -52t-4.5 -51t14 -51.5t42.5 -53q-26 -28 -30.5 -61.5t0 -67.5t11.5 -65.5t5 -54.5q-1 -14 -8 -23.5t-22.5 -14t-41 -2.5t-63.5 12q-5 -2 -15 -21.5t-16 -46.5t-3.5 -55.5t21.5 -49.5q52 -14 110 -12.5t106 21.5t78.5 60.5t27.5 105.5z
M436 72q3 -63 -19 -107t-60 -71.5t-87 -40.5t-101 -13q-29 0 -59.5 4t-62.5 12q-23 26 -32.5 52t-9.5 52q0 25 8.5 51t20.5 47.5t24.5 37t20.5 18.5q61 -16 85 -16q12 0 12 1q1 12 -1.5 27.5t-5.5 32.5q-4 23 -8 46.5t-4 47.5q0 23 4.5 45t15.5 43q-24 30 -34 59t-10 58
q0 26 5.5 50t13.5 49q7 24 12.5 46t3.5 46q-12 20 -28.5 27t-33.5 7q-8 0 -20.5 -1.5t-27.5 -3.5q-16 13 -28 30.5t-20.5 37.5t-12.5 41t-4 39q0 35 13 64.5t42 40.5q12 1 23 1.5t19 0.5q49 0 101 -12t96.5 -38t77 -67.5t42.5 -100.5v1q2 -11 2 -19v-16q0 -40 -11 -72
t-23 -60q-8 -16 -13 -29.5t-5 -23.5q0 -12 27 -26.5t101 -35.5l-10 -182q-52 -8 -71.5 -16t-19.5 -16q0 -13 7 -30.5t16 -35.5q10 -20 18 -40.5t11 -37.5v-4z" />
    <glyph glyph-name="dieresis" unicode="&#xa8;" horiz-adv-x="573" 
d="M419 678q25 1 43 13t27 30t10 38.5t-7.5 38.5t-26.5 29.5t-46 12.5q-27 -2 -45 -15t-27 -31t-8.5 -38.5t9.5 -37.5t26.5 -28.5t44.5 -11.5zM136 671q25 1 43 13t27 30t10 38.5t-8 38.5t-26.5 29.5t-45.5 12.5q-27 -2 -45.5 -15t-27 -31t-8.5 -38.5t9.5 -37.5t27 -28.5
t44.5 -11.5zM135 628q-30 0 -53 10.5t-38.5 27t-23.5 38.5t-8 45q0 22 7.5 44t22.5 39.5t37.5 29.5t53.5 14q32 0 55.5 -10.5t39.5 -27.5t23.5 -38.5t7.5 -44.5t-8 -45t-23.5 -40t-38 -29.5t-52.5 -12.5h-2zM418 635q-30 0 -53 10.5t-38.5 27t-23.5 38.5t-8 45q0 22 7.5 44
t22.5 39.5t38 29.5t53 14q32 0 56 -10.5t39.5 -27.5t23 -38.5t7.5 -44.5t-8 -45t-23 -40t-37.5 -29.5t-52.5 -12.5h-3z" />
    <glyph glyph-name="f" unicode="f" horiz-adv-x="512" 
d="M173 307l1 -239q16 -16 42 -20.5t52.5 -2.5t48.5 9.5t31 15.5l1 237l80 3q16 9 22.5 30t5 43.5t-10.5 42t-25 24.5l-84 1q-4 50 0 85t12.5 54t20 22t23.5 -9q15 -32 16 -47.5t2 -21.5q0 -11 19.5 -12.5t42 3t41.5 12t19 14.5q0 100 -47.5 146.5t-123.5 46.5
q-103 0 -150.5 -72.5t-35.5 -221.5l-87 -3q-21 -7 -27 -30t-2.5 -47.5t13.5 -43.5t21 -19h79zM94 264q-15 0 -29.5 11t-25.5 28.5t-17.5 39.5t-6.5 44q0 33 15.5 61.5t52.5 41.5l47 2v12q0 142 59 212.5t173 70.5q48 0 87 -14t67.5 -43t44 -73.5t15.5 -105.5
q0 -11 -12 -22.5t-30 -22t-39.5 -18t-40.5 -9.5q23 -17 34.5 -46t11.5 -58q0 -31 -15 -60.5t-45 -47.5l-47 -1q0 -54 -1 -110t-1 -106q-10 -9 -26 -17.5t-35.5 -15.5t-40.5 -11.5t-40 -4.5q-30 0 -61 11.5t-57 38.5l-1 213h-36zM379 494h5l-5 5v-2v-3z" />
    <glyph glyph-name="I" unicode="I" horiz-adv-x="544" 
d="M464 54q23 21 28.5 52.5t2 61.5t-12 53t-12.5 28h-119l-3 349l104 -2q21 26 28.5 51t5.5 47.5t-11.5 42.5t-22.5 35l-356 2q-22 -10 -33 -26.5t-13.5 -35.5t1 -38.5t10 -36t14 -28t12.5 -13.5h95l-1 -346l-99 -5q-3 -2 -12.5 -26t-14 -55.5t2.5 -63t36 -47.5zM83 8
q-43 23 -58.5 57t-15.5 72q0 24 7.5 50t17.5 47.5t19.5 36.5t12.5 18l70 4v65t0.5 61t0.5 62v70h-60q-9 4 -21.5 18t-24 34.5t-20 44.5t-8.5 48q0 35 18.5 68.5t63.5 53.5l387 -2q26 -30 42 -63.5t16 -68.5q0 -28 -12.5 -61t-44.5 -72l-81 2q0 -34 0.5 -65t1.5 -61.5
t1.5 -63t0.5 -69.5h93q6 -6 14.5 -22t16.5 -37.5t14 -46t6 -47.5q0 -34 -12.5 -67.5t-46.5 -64.5z" />
    <glyph glyph-name="grave" unicode="`" horiz-adv-x="314" 
d="M287 768q10 -19 5 -43.5t-20.5 -47t-38 -38t-47.5 -15.5q-17 0 -33 6.5t-33 23.5l-100 156q0 30 9.5 53.5t25.5 40t36.5 25t40.5 8.5t40 -9t35 -26zM172 877q-12 14 -30.5 16t-36 -5.5t-30 -24t-12.5 -40.5l92 -143q17 -17 37 -13t36 17.5t23 31.5t-2 30z" />
    <glyph glyph-name="R" unicode="R" horiz-adv-x="689" 
d="M251 620q25 10 52.5 13.5t49.5 -1t36 -17t12 -32.5q-6 -27 -24.5 -44t-41 -26.5t-45.5 -12t-38 0.5zM56 77q0 -14 13 -25t33.5 -18t45 -9.5t47.5 1t40.5 13.5t24.5 28l-1 239l131 -260q30 1 67 4t71.5 13.5t62 29.5t37.5 51l-160 234q22 24 44.5 48.5t40 51t28.5 54.5
t11 59q-9 61 -40.5 100t-77 59t-100.5 23.5t-110.5 -5.5t-107.5 -28.5t-92 -45.5zM20 718q34 22 73 41t81 32.5t84.5 21t83.5 7.5q53 0 102 -12.5t89 -39.5t67.5 -70.5t36.5 -105.5q0 -34 -9 -63.5t-24.5 -56.5t-36 -51t-42.5 -48q38 -54 77.5 -113t74.5 -110
q-15 -50 -52 -79t-82.5 -44t-93.5 -20t-87 -6l-57 114v-56q-16 -43 -55 -61.5t-83 -18.5q-28 0 -55.5 7.5t-49.5 21t-36 31.5t-14 39zM297 545q17 4 35 13.5t24 28.5q-10 12 -29.5 9.5t-31.5 -9.5z" />
    <glyph glyph-name="q" unicode="q" horiz-adv-x="528" 
d="M199 300q6 38 21 58t30.5 21t28.5 -18t15 -60q-2 -50 -19.5 -74.5t-36 -24.5t-32 24.5t-7.5 73.5zM299 62q-3 -129 -4.5 -203t3.5 -110t18 -41.5t38 2.5l254 157q13 17 16 43t-1.5 50t-16 39t-26.5 10l-139 -80l25 622q-15 24 -37.5 31.5t-45 6t-41.5 -9t-28 -14.5v-29
q-46 17 -84 11.5t-67.5 -28.5t-51 -59.5t-35 -79.5t-18.5 -90t-2 -90q9 -53 35.5 -88t61.5 -52t73.5 -16.5t70.5 18.5h2zM251 -164q0 32 1 73t3 94q-17 -3 -31 -3q-35 0 -69 12.5t-62.5 37t-49.5 62t-30 88.5q-1 8 -1 15.5v15.5q0 62 14.5 126.5t44 116.5t74 85t104.5 33
h13.5t14.5 -2q10 7 24 14.5t29.5 13.5t31.5 10t31 4q31 0 62 -15t55 -54l-23 -558q20 12 38.5 22.5t37.5 21.5q22 8 41.5 0.5t34 -25t22.5 -43t8 -52.5q0 -25 -7.5 -49t-22.5 -44l-269 -166q-26 -8 -41 -8q-23 0 -38 8t-24 27.5t-12.5 53.5t-3.5 85z" />
    <glyph glyph-name="underscore" unicode="_" horiz-adv-x="699" 
d="M592 46q22 16 27 40.5t1 47.5t-13 41t-15 22l-482 2q-17 -13 -25 -31.5t-7.5 -39t9 -42t23.5 -39.5zM77 19q-43 51 -43 112q0 29 15 58.5t47 52.5l508 -2q8 -5 18.5 -17.5t20 -30.5t16 -39t6.5 -41q0 -28 -12.5 -55.5t-45.5 -53.5l-497 1z" />
    <glyph glyph-name="g" unicode="g" horiz-adv-x="520" 
d="M205 348q1 27 14.5 41t29 12t28 -19.5t12.5 -53.5q0 -59 -16.5 -85.5t-34.5 -23t-30 36t-3 92.5zM296 66q4 -30 5.5 -64t-3 -63.5t-16 -49t-33.5 -19.5q-6 0 -14 7t-15.5 20.5t-12.5 34t-5 46.5q2 9 -17 24t-44.5 22.5t-51 -1t-35.5 -46.5q-6 -49 3.5 -97.5t33.5 -89
t63 -68.5t92 -34q63 -7 104.5 24t67 86.5t37 130t14 154.5t-1 159.5t-8 145t-8 110.5t0.5 57q-4 16 -28.5 21t-52.5 3.5t-50.5 -7.5t-22.5 -12v-28q-63 25 -109.5 11.5t-77 -51t-46 -92.5t-15 -112.5t16 -111t46.5 -88.5t76.5 -44t106.5 22zM13 -13q9 34 25.5 52t37.5 26
q-34 42 -51.5 101.5t-17.5 123.5q0 56 13.5 110t40.5 96.5t67.5 68.5t94.5 26q11 0 23 -1.5t24 -3.5q17 14 49.5 25.5t65.5 11.5q38 0 70 -16t42 -54q-5 -13 -3.5 -44.5t5.5 -78.5q4 -58 8.5 -132t4.5 -152q0 -64 -5 -127.5t-17 -120.5t-32 -105.5t-50 -83t-71.5 -52
t-95.5 -12.5q-55 9 -98 37t-73 68.5t-45.5 90t-15.5 100.5q0 8 0.5 18t3.5 28zM259 -13v9.5t-1 9.5q-6 -2 -11.5 -2.5t-11.5 -1.5q11 -18 10 -30q0 -59 4 -59q5 0 7.5 22.5t2.5 51.5z" />
    <glyph glyph-name="acute" unicode="&#xb4;" horiz-adv-x="274" 
d="M58 752q-9 -12 -2 -30t23 -31.5t36.5 -17.5t37.5 13l91 143q0 24 -12.5 40.5t-29.5 24t-35.5 5.5t-30.5 -16zM24 777l75 128q15 19 35.5 28.5t40.5 9.5t40.5 -8.5t36.5 -25t26 -40t9 -53.5l-100 -156q-17 -17 -33 -23.5t-32 -6.5q-26 0 -49.5 16.5t-39 39.5t-19.5 48.5
t10 43.5l-3 -5z" />
    <glyph glyph-name="r" unicode="r" horiz-adv-x="510" 
d="M57 71q5 -19 28.5 -26t50.5 -4.5t50.5 11.5t29.5 22v233q6 31 22 50.5t34.5 24t35 -8.5t22.5 -46q10 -10 28 -14t37.5 0.5t36 18.5t22.5 40q-1 33 -13 65.5t-31.5 58.5t-45 43t-54 20t-58 -10.5t-56.5 -49.5l-3 62q-1 9 -19.5 14t-41.5 2.5t-45.5 -14t-31.5 -36.5z
M12 534q16 46 53 64t75 18q27 0 50.5 -9t38.5 -23q34 19 71 19q38 0 73 -20.5t62 -53.5t43.5 -75.5t18.5 -86.5q-13 -54 -48.5 -76.5t-72.5 -22.5q-23 0 -45.5 10t-40.5 29q-6 32 -8 32q-6 0 -12.5 -8.5t-10.5 -25.5v-241q-6 -14 -21 -26t-34 -21t-40.5 -14.5t-42.5 -5.5
q-37 0 -67 16t-40 52z" />
    <glyph glyph-name="S" unicode="S" horiz-adv-x="577" 
d="M85 285q-17 -9 -25 -38t-6 -65t14.5 -72.5t37.5 -59.5q56 -4 119 -3t121 17.5t104 53.5t68 106q9 51 -1.5 84t-33 55t-53 36t-60.5 28t-55.5 30.5t-38.5 42.5q-2 37 17.5 60.5t49.5 32.5t64 3t61 -26q28 18 40 42t14.5 50t-1.5 51t-10 43q-31 16 -73.5 18t-88 -9
t-91.5 -34t-86 -56.5t-69.5 -77t-42.5 -94.5q-9 -50 9.5 -81.5t49 -52t65.5 -33t60 -24.5q23 -16 25 -28t-9.5 -20t-34 -11t-48 -1t-50.5 10t-42 23zM113 319q16 -15 40 -19q-26 11 -51 25.5t-45 35.5t-32.5 49t-12.5 66q0 9 1 18.5t3 18.5q18 70 63 126.5t103 96.5
t122.5 61.5t121.5 21.5q58 0 123 -33q8 -24 13.5 -52.5t5.5 -54.5q0 -41 -21.5 -83.5t-81.5 -79.5q-24 19 -45.5 28t-37.5 9q-23 0 -42 -9t-20 -32q12 -14 35.5 -27t48.5 -24q30 -13 59 -28.5t52 -37.5t37.5 -53t14.5 -76q0 -11 -1.5 -25t-4.5 -30q-21 -66 -60 -106.5
t-88.5 -63.5t-106 -31t-112.5 -8q-23 0 -54.5 1t-52.5 3q-20 19 -35 42.5t-24.5 48.5t-14 50t-4.5 48q0 44 14 79.5t41 49.5z" />
    <glyph glyph-name="J" unicode="J" horiz-adv-x="535" 
d="M251 45q67 0 109 29t65.5 76t32 106.5t9 121.5t-3.5 120.5t-6 103.5l90 5q24 16 36 42.5t13 52.5t-10 46.5t-33 24.5l-384 -6q-32 -23 -36.5 -51.5t4 -53.5t24 -42t24.5 -18l82 3q14 -25 22.5 -63.5t12.5 -80.5t3 -84t-6.5 -76t-15.5 -55.5t-25 -21.5q-25 -8 -34.5 11.5
t-11 51.5t1.5 68.5t3 60.5q-5 6 -18 11.5t-31 6.5t-39 -4t-41 -20q-5 -21 -11 -56.5t-7 -76t6 -82t27 -75t55.5 -54.5t92.5 -21zM251 0q-69 0 -113 24t-69 62t-34.5 86t-9.5 96q0 45 8.5 91.5t16.5 77.5q31 23 58.5 32.5t50.5 9.5q31 0 59 -14.5t42 -31.5q-2 35 -7 68
t-14 58h-27.5t-27.5 -1q-11 0 -27.5 12t-32 31t-27 43.5t-11.5 51.5q0 29 15 58t53 58l401 5q43 -8 64 -40t21 -73q0 -36 -19.5 -75t-57.5 -66l-59 -4q0 -3 0.5 -10t0.5 -10q2 -34 4 -72.5t2 -76.5q0 -71 -9.5 -141t-37.5 -125.5t-79 -89.5t-134 -34zM257 293q2 16 3 40
t1 51q-1 -5 -1 -9.5v-7.5q-1 -15 -2 -32.5t-1 -32.5v-9z" />
    <glyph glyph-name="A" unicode="A" horiz-adv-x="747" 
d="M323 478q10 49 22 81t25 37.5t25.5 -21t23.5 -93.5zM318 335l109 -3l38 -269q25 -8 50.5 -15t51.5 -8t54.5 6t61.5 27l-193 656q-6 13 -26.5 23.5t-48.5 16t-59.5 5.5t-60 -7t-51 -21.5t-32.5 -37.5l-156 -626q-1 -6 13 -13.5t36 -13.5t49.5 -9t53.5 -1.5t48.5 10
t34.5 25.5zM328 54q-22 -31 -59.5 -42.5t-79.5 -11.5q-34 0 -66.5 8.5t-58 22t-40.5 29.5t-13 31l157 628q11 27 31.5 45.5t46 30.5t54.5 17.5t58 5.5q28 0 56.5 -5.5t52 -15t41 -23.5t25.5 -31l203 -690q-53 -32 -92 -44.5t-70 -12.5q-34 0 -72.5 10t-77.5 23l-37 260
q-5 0 -11.5 0.5t-17.5 0.5q-5 -54 -11 -107t-11 -107z" />
    <glyph glyph-name="h" unicode="h" horiz-adv-x="515" 
d="M58 61q11 -9 31 -15t43.5 -6t47.5 6t42 20l4 253q29 41 46.5 52.5t26.5 1t11.5 -39.5t2.5 -70.5t-1 -92t1 -102.5q5 -14 25.5 -19.5t44.5 -3.5t47 10.5t32 22.5q6 171 -8.5 285t-46 168t-78 44.5t-104.5 -85.5l2 225q-13 23 -39.5 28.5t-54.5 1t-51.5 -15.5t-29.5 -21z
M9 720q7 11 23 23t37 22.5t44.5 17.5t45.5 7q32 0 62 -14.5t49 -49.5l-1 -133q37 27 75 27q76 0 119 -114.5t43 -335.5q0 -22 -0.5 -51.5t-0.5 -53.5q-21 -30 -60 -46.5t-76 -16.5q-33 0 -61 13.5t-38 44.5q-1 23 -1 48.5v45.5v57q0 14 0.5 27t0.5 25q0 28 3 46
q-2 -2 -2.5 -2t-1.5 -2q0 -62 -1.5 -130.5t-2.5 -128.5q-34 -27 -67.5 -38t-62.5 -11q-32 0 -64.5 12.5t-55.5 32.5z" />
    <glyph glyph-name="s" unicode="s" horiz-adv-x="469" 
d="M193 246q-16 15 -46 27t-59 31t-50.5 48t-19.5 78q4 38 24.5 71.5t53.5 58.5t76.5 39.5t92.5 14.5q54 0 117 -22q23 -16 32.5 -39.5t9.5 -49.5q0 -37 -18 -69.5t-44 -42.5q47 -32 70 -74.5t23 -84.5q0 -44 -20.5 -87t-55.5 -76.5t-81 -54.5t-98 -21q-37 0 -74 11.5
t-74 36.5l-9 10q-17 22 -23.5 45t-6.5 43q0 16 5 38t14 43.5t22.5 38t30.5 21.5q12 -8 29 -18t33.5 -17t29.5 -8.5t16 9.5zM77 77q54 -37 108 -39.5t100 18t79 58.5t44 81.5t-4.5 86.5t-66.5 74q-15 9 -27.5 15t-22 11.5t-15 12t-6.5 18.5q0 5 4.5 11t14 9.5t25 3.5t37.5 -6
q10 -2 19 13t12.5 36t0 42.5t-17.5 32.5q-56 19 -108.5 16t-93.5 -22.5t-67.5 -51.5t-30.5 -71q-3 -30 9 -50t32 -34.5t44.5 -25t46 -20t37.5 -20.5t19 -27q5 -26 -1.5 -40t-20.5 -18t-33 -1t-39 10t-38.5 16t-31.5 16q-10 -9 -18.5 -26.5t-11.5 -39t1 -45t21 -44.5z" />
    <glyph glyph-name="T" unicode="T" horiz-adv-x="621" 
d="M213 585l-16 -504q2 -9 17.5 -17t37 -13.5t46.5 -7.5t47.5 1.5t38.5 13.5t20 28q0 42 -1.5 109.5t-3.5 140t-3.5 140t-1.5 109.5h144q24 31 33.5 62t8.5 57t-10 44.5t-21 23.5l-485 -11q-11 -16 -16 -39.5t-5 -49t4 -50t11 -42.5zM27 534q-13 35 -21 71.5t-8 65.5
q0 33 9.5 67.5t32.5 66.5l517 11q29 -12 48 -43t19 -73q0 -32 -14.5 -72.5t-50.5 -86.5h-120q1 -43 1.5 -96t2.5 -109q1 -36 2 -73t1.5 -70.5t1 -63t0.5 -50.5q-10 -44 -47.5 -62.5t-84.5 -18.5q-27 0 -54 6.5t-50.5 18t-39.5 25.5t-20 29l14 462z" />
    <glyph glyph-name="K" unicode="K" horiz-adv-x="616" 
d="M55 86q7 -28 32.5 -38t56.5 -9.5t59 8t39 15.5l-15 202l155 -205q2 -5 16 -8t33.5 -1.5t41 7.5t39.5 18t28.5 31t7.5 47l-215 254l223 235q2 3 3.5 17.5t-1 33t-10 37t-23 29t-41 10t-62.5 -19.5l-188 -207l7 214q-19 12 -44.5 18t-51 4t-48.5 -13t-37 -33zM16 743
q26 43 65 61.5t78 18.5q30 0 63 -11.5t65 -31.5l-4 -117q28 30 56 61t54 60q31 17 54.5 23.5t41.5 6.5q35 0 57.5 -14.5t35.5 -35.5t18 -46t5 -46q0 -19 -5 -35t-11 -26l-196 -207q48 -57 100 -117.5t99 -116.5q5 -47 -11.5 -78.5t-43.5 -51t-59.5 -28t-58.5 -8.5
q-25 0 -45 8.5t-29 20.5q-17 23 -22 29.5t-7.5 10t-8 11t-24.5 32.5q2 -20 3 -40.5t3 -37.5q-11 -7 -28.5 -14.5t-38 -14t-41.5 -11t-40 -4.5q-22 0 -43 4t-38.5 14t-30.5 26.5t-19 40.5z" />
    <glyph glyph-name="bracketleft" unicode="[" horiz-adv-x="380" 
d="M305 -96q22 20 27.5 50.5t2 59.5t-11.5 51t-12 27h-115l-3 609l101 -2q20 25 27 49t5 46t-11 41t-21 34l-250 2v-973zM1 -146v1060l313 -2q24 -29 40 -62t16 -66q0 -27 -12.5 -58.5t-43.5 -69.5l-78 2q0 -68 0.5 -132t1.5 -127.5t1.5 -128.5t0.5 -135h90q5 -6 13.5 -21
t16.5 -36t13.5 -44.5t5.5 -45.5q0 -32 -12.5 -65t-44.5 -63z" />
    <glyph glyph-name="i" unicode="i" horiz-adv-x="290" 
d="M155 681q23 2 39 14.5t24.5 30.5t9.5 38.5t-5.5 38t-20.5 29.5t-35 13q-32 -1 -55 -13.5t-35.5 -30.5t-15 -38.5t7 -38.5t31 -30t55.5 -13zM58 84q12 -16 38.5 -25t55 -9t52.5 10t32 32l-3 444q-10 21 -33 30.5t-50 10t-53 -7t-42 -20.5zM11 568q29 24 66 37.5t70 13.5
q38 0 74 -17t55 -55l3 -463q-15 -41 -51.5 -58.5t-76.5 -17.5q-38 0 -75.5 16t-60.5 46zM154 638q-35 1 -60.5 11t-42 26t-25 36.5t-8.5 42.5q0 23 10 46.5t28.5 42t46 31t63.5 14.5q26 -1 46 -11t33 -26.5t19.5 -37.5t6.5 -43q0 -23 -7.5 -45.5t-21.5 -41.5t-35 -31
t-49 -14h-4z" />
    <glyph glyph-name="t" unicode="t" horiz-adv-x="464" 
d="M141 63q0 -14 17.5 -21t43 -8t54 3t49.5 12l-1 380l95 -1q17 13 20 37.5t-1.5 49.5t-14 45.5t-18.5 26.5l-81 -2l-2 137q-18 16 -44 20t-50.5 1t-44 -10.5t-25.5 -14.5l-2 -133l-70 -2q-14 -26 -18.5 -52.5t-3 -49t8.5 -38.5t16 -20l72 3v-363zM97 381q-9 -1 -18.5 -1
h-17.5q-26 12 -43.5 43.5t-17.5 70.5q0 25 9.5 58.5t30.5 73.5l53 1q1 27 1.5 56t0.5 52q7 8 22 17.5t33.5 17.5t40 13t41.5 5q26 0 55 -10t57 -36l2 -113q12 1 27.5 1.5t24.5 0.5q10 -7 21.5 -23t21.5 -36t16 -43t6 -44q0 -27 -10.5 -52t-39.5 -48l-66 1q0 -89 0.5 -185.5
t0.5 -181.5q-35 -14 -71.5 -21t-64.5 -7q-23 0 -44 4t-37 12.5t-25 22t-9 33.5v318z" />
    <glyph glyph-name="B" unicode="B" horiz-adv-x="715" 
d="M212 605q13 14 36 18.5t46.5 0.5t41.5 -16.5t21 -33.5q-2 -26 -16 -38.5t-34.5 -18.5t-45 -7t-46.5 -2zM212 363q37 -1 78 4t80 22q50 -24 68.5 -52t14.5 -54t-26.5 -48t-56 -34t-74.5 -12.5t-81 16.5zM63 62q33 -20 88 -28.5t118 -5.5t128 17.5t119.5 41.5t92.5 66
t46 90q10 63 -5 106t-43.5 69.5t-64 38t-64.5 11.5q13 12 21 29t13 35.5t7 38t2 35.5q-8 47 -36.5 79.5t-70 52t-91 26.5t-99 2.5t-93.5 -20t-75 -40.5zM11 727q51 42 118.5 64t135.5 22q52 0 102 -12t91.5 -37.5t69.5 -64t37 -91.5q0 -24 -3 -52.5t-13 -54.5
q28 -9 56 -26.5t50 -43.5t35.5 -62t13.5 -82q0 -23 -5 -51q-13 -62 -60.5 -109.5t-113.5 -79.5t-143 -48.5t-147 -16.5q-60 0 -116 13.5t-101 40.5zM258 237q19 -4 41 -4t42 5t35 13t24 19t9 23q0 10 -9.5 21.5t-32.5 25.5q-26 -8 -55 -13.5t-54 -7.5v-82zM256 549
q14 -5 26.5 -2.5t21 7.5t12.5 10.5t1 8.5q-6 19 -25.5 20.5t-35.5 -6.5v-38z" />
    <glyph glyph-name="j" unicode="j" horiz-adv-x="342" 
d="M162 789q-33 4 -53.5 -8t-29.5 -31t-8 -42.5t11 -43t27.5 -32.5t42.5 -11q26 0 44 12t27 30t9.5 39.5t-7 40t-23.5 31.5t-40 15zM-15 6q-9 18 -30.5 28.5t-44.5 9.5t-41 -13.5t-21 -40.5q-2 -18 -2.5 -46t3.5 -59.5t15 -63t31.5 -58t52.5 -43.5t79 -19q73 0 121 40.5
t77 106.5t42 149t16 168.5t-1 165.5t-9 139q-7 19 -25.5 29.5t-41 13.5t-46.5 0.5t-43 -10t-30 -18t-7 -23.5q7 -21 11 -70t5.5 -111t0 -130t-6.5 -126t-14 -99t-21 -50q-18 -12 -33 -1t-24.5 33t-13 49.5t0.5 48.5zM27 -1q-2 -10 -3 -25.5t-1 -30t1.5 -24.5t4.5 -8
q6 7 11 37t8 73.5t4.5 95.5t1.5 105q0 38 -1 74t-3 66t-4.5 52.5t-6.5 34.5q-7 22 3 42t31 35t50 23.5t59 8.5q42 0 79.5 -17.5t53.5 -59.5q4 -51 8 -115t4 -131q0 -66 -5 -135t-17.5 -133t-34.5 -120.5t-55.5 -98t-80 -66t-108.5 -24.5q-72 3 -115.5 32.5t-67.5 71.5
t-32 90t-8 88q0 17 0.5 31.5t1.5 24.5v-2q5 49 36.5 71t71.5 22q33 0 64.5 -16t46.5 -46zM169 831q27 -4 47 -17t33.5 -31.5t20.5 -41t7 -44.5q0 -25 -8.5 -48t-25 -40t-41 -26t-56.5 -5q-29 -1 -51 10t-37 30t-23 43.5t-8 49.5t8 48.5t25 41t43.5 26.5t63.5 5z" />
    <glyph glyph-name="U" unicode="U" horiz-adv-x="628" 
d="M75 281q9 -44 21.5 -86.5t34.5 -75.5t55.5 -53.5t84.5 -20.5q58 1 104.5 11.5t81 38.5t58.5 77t37 126t15.5 186t-5.5 257q-15 27 -43.5 34t-57.5 3.5t-51 -13t-24 -16.5q4 -139 4 -235t-5.5 -156t-18 -87t-33.5 -29q-25 5 -38 30t-18.5 63.5t-5.5 88t2 104.5t3 111.5
t-2 109.5q-14 24 -46.5 29.5t-67 0t-62 -16.5t-32.5 -20q-1 -43 -3.5 -90t-3.5 -102.5t2 -121.5t14 -147zM31 275q-17 118 -15.5 237.5t6.5 243.5q5 10 23 22t42.5 22.5t53 17.5t55.5 7q36 0 68.5 -14t54.5 -50q5 -78 0.5 -157.5t-4.5 -168.5q0 -53 4 -91.5t15 -52.5
q4 17 6.5 49.5t3.5 73.5t1 87.5t-0.5 92.5t-1.5 88t-2 73q3 9 16.5 21t33.5 22.5t43.5 18t47.5 7.5q35 0 68 -15t56 -56q3 -56 4.5 -111.5t1.5 -100.5q0 -113 -9 -197t-27.5 -143.5t-46.5 -98t-66 -61t-86 -31.5t-106 -10q-65 0 -106 23.5t-67.5 62t-41 87t-25.5 99.5v3z
" />
    <glyph glyph-name="L" unicode="L" horiz-adv-x="537" 
d="M453 57q19 10 27.5 38t9.5 60.5t-5.5 62.5t-18.5 43l-220 -5l11 493q-11 18 -41 26t-64 7.5t-64 -9t-41 -24.5v-118.5v-137.5t0.5 -142t1 -132t1 -107t1.5 -66zM9 1q-1 17 -1.5 55t-1.5 89.5t-1.5 112.5t-1 125t-1 126.5t-0.5 116.5v136q23 32 66 48.5t87 16.5
q43 0 84 -15.5t63 -50.5l-11 -460q48 1 99.5 2t95.5 2q23 -26 36 -65.5t13 -77.5q0 -22 -4 -45t-13 -43t-22.5 -36.5t-31.5 -25.5z" />
    <glyph glyph-name="u" unicode="u" horiz-adv-x="512" 
d="M316 47q22 -11 43.5 -11.5t40 4.5t33.5 14.5t24 20.5l-3 467q-15 27 -42.5 33.5t-53.5 1.5t-45 -18t-19 -23l8 -266q-35 -23 -54 -13.5t-27 45.5t-7 95t6 135q-4 24 -16.5 37t-29.5 16.5t-35.5 0.5t-34.5 -10t-28 -16t-14 -16q-4 -47 -6.5 -109t1.5 -125.5t18 -120
t43.5 -92.5t77.5 -44t120 26v-32zM367 -8q-17 0 -39 6t-51 20q-33 -9 -63 -9q-63 0 -102.5 33.5t-62 87t-30.5 120.5t-8 134q0 45 2.5 90.5t5.5 78.5q4 12 17.5 25.5t33 25t42 19t44.5 7.5q33 0 61 -16.5t41 -58.5q7 12 20 24t30 22t36.5 16t39.5 6q32 0 61.5 -15t51.5 -53
l3 -496q-22 -26 -57.5 -46.5t-75.5 -20.5z" />
    <glyph glyph-name="bracketright" unicode="]" horiz-adv-x="416" 
d="M76 -137q-32 30 -44.5 62.5t-12.5 65.5q0 22 5.5 45.5t13.5 44t16.5 36t13.5 21.5h90q0 68 0.5 131.5t1.5 127t1.5 128.5t0.5 135q-21 0 -41.5 -0.5t-37.5 -0.5q-30 38 -42.5 69.5t-12.5 58.5q0 33 16 65.5t40 61.5l313 2v-1060zM354 -100v973l-250 -2q-13 -15 -22 -34
t-10.5 -40.5t5.5 -45.5t27 -49l101 2l-4 -609h-114q-4 -5 -12 -27.5t-11.5 -51.5t1.5 -59.5t28 -50.5z" />
    <glyph glyph-name="k" unicode="k" horiz-adv-x="604" 
d="M58 76q13 -19 31 -28t38 -11t40 1t36.5 7t27.5 7t13 2l9 214l150 -221q16 -2 38.5 -0.5t44 11t38 29.5t20.5 56q-17 22 -38 49t-41.5 54.5t-39 54t-31.5 46.5v5q34 36 55.5 58t33.5 35t16 20.5t4 14.5q-5 19 -13 40.5t-22 37.5t-36 23.5t-54 -1.5l-122 -110l-10 258
q-13 13 -38 18t-53 2.5t-53.5 -12.5t-38.5 -26zM20 724q27 33 70 50.5t84 17.5q30 0 60.5 -11t53.5 -34l8 -182q15 14 31 28t30 26q17 5 29.5 7t22.5 2q34 0 57.5 -13.5t39.5 -34.5t25.5 -46t14.5 -47q0 -14 -4 -26.5t-13.5 -26.5t-25 -30.5t-37.5 -39.5q-5 -5 -9.5 -10
t-9.5 -10q14 -21 32 -45.5t37.5 -50t38 -49.5t34.5 -44q-6 -56 -31 -87t-57 -45.5t-65 -16.5t-57 0l-88 129q-1 -21 -1.5 -34.5t-0.5 -24v-21t-1 -24.5q-23 -12 -56.5 -23.5t-71 -12.5t-76 13.5t-69.5 54.5z" />
    <glyph glyph-name="C" unicode="C" horiz-adv-x="683" 
d="M627 289q-1 20 -13 34.5t-29.5 24t-38.5 13t-39.5 1t-33 -12t-18.5 -26.5q-32 -48 -63 -65.5t-58.5 -13.5t-50 26t-36.5 53t-18.5 67t4.5 69q6 22 18 46.5t29 45t38.5 34t46 13.5t52.5 -16t57 -55q17 -14 42 -11.5t47.5 15.5t37 33.5t11.5 43.5q-21 73 -65 113
t-98.5 52.5t-114 -0.5t-112 -45t-92.5 -80.5t-55 -107.5q-22 -86 -18 -161.5t27.5 -136.5t63 -106t88 -69.5t102.5 -26t106.5 24.5t100 80.5t82.5 143.5zM668 272q-30 -73 -67.5 -125t-80 -85.5t-88 -49.5t-91.5 -16q-64 0 -123.5 29.5t-105 82.5t-73 127.5t-27.5 164.5
q0 68 20 151q15 59 52.5 109t87 86.5t108 57t115.5 20.5q42 0 82 -12t74.5 -37t61.5 -65t44 -95q3 -28 -9.5 -54t-34.5 -46t-49 -32t-53 -12q-18 0 -35.5 5.5t-32.5 18.5q-24 32 -43 45.5t-34 13.5q-16 0 -30.5 -10t-26 -26t-20.5 -34.5t-13 -35.5h1q-4 -17 -3 -44t9 -52.5
t23 -44.5t39 -19q14 0 32 13.5t38 42.5q12 32 42 47.5t66 15.5q25 0 51.5 -8t47.5 -23t34.5 -36.5t14.5 -48.5z" />
    <glyph glyph-name="V" unicode="V" horiz-adv-x="725" 
d="M269 56q10 -7 30 -10t45 -4t51.5 0.5t50.5 4t43 6t27 7.5l152 650q-3 22 -16.5 35.5t-32.5 20.5t-41 8.5t-42 -0.5t-35.5 -7t-21.5 -10l-97 -405l-111 405q-17 10 -48 13t-63.5 -0.5t-61.5 -13.5t-41 -25q0 -1 1 -4t7.5 -22t19.5 -59.5t36.5 -115.5t59.5 -190.5
t88 -283.5zM237 17q-49 149 -84.5 259t-60 187.5t-39.5 128t-24 82t-12.5 48t-4.5 26.5q13 16 34 28.5t46 21.5t51.5 13.5t51.5 4.5q29 0 59.5 -7.5t54.5 -22.5l70 -252q14 63 29.5 124.5t29.5 121.5q18 16 52.5 28t70.5 12q25 0 50.5 -5.5t46.5 -19t36 -35t19 -52.5
l-159 -680q-26 -12 -68.5 -20.5t-89 -11.5t-89.5 1.5t-70 19.5z" />
    <glyph glyph-name="M" unicode="M" horiz-adv-x="749" 
d="M60 79q24 -33 55 -46t60.5 -12t54 12.5t37.5 26.5l-5 277l93 -274q20 -16 37.5 -9t32.5 18q1 0 6 21.5t12.5 53t15.5 68.5t15.5 68.5l12.5 52.5t6 21t1.5 -21t1 -52.5t1.5 -68.5t1.5 -68.5t1 -53t1.5 -21.5q6 -10 29 -20t52.5 -11t60 12.5t51.5 50.5l-37 653q-2 9 -27 16
t-57.5 9t-63.5 -4.5t-43 -24.5l-96 -293l-128 303q-14 8 -38.5 14t-52 5.5t-54 -10t-45.5 -32.5zM8 755q33 41 72 56.5t76 15.5q33 0 65.5 -9.5t55.5 -23.5l89 -207q15 48 31 95.5t30 92.5q19 29 55 40.5t75 11.5q25 0 50 -5.5t45 -14.5t33.5 -20.5t16.5 -24.5l38 -668
q-32 -56 -73.5 -77t-80.5 -21q-21 0 -40.5 3.5t-36 12t-28 22.5t-16.5 36q-10 -25 -31.5 -43.5t-50.5 -18.5q-15 0 -31.5 8t-40.5 38v-9q-23 -29 -60.5 -49t-79.5 -20q-38 0 -79.5 19.5t-76.5 67.5z" />
    <glyph glyph-name="v" unicode="v" horiz-adv-x="570" 
d="M223 81q9 -13 29 -22t43 -10.5t45 5.5t35 27l142 431q-7 27 -28 41t-46.5 18.5t-50 -1t-38.5 -17.5l-62 -246l-80 227q-26 35 -54.5 37t-52 -12.5t-38.5 -36.5t-15 -36zM9 477q0 15 11 38.5t30.5 45.5t44.5 38t53 16q26 0 52.5 -14t49.5 -46l36 -99l30 120q21 19 49 30
t55 11q22 0 44 -6t41 -19t34 -33.5t22 -49.5l-147 -448q-20 -29 -49.5 -42.5t-60.5 -13.5q-35 0 -68.5 15.5t-50.5 40.5z" />
    <glyph glyph-name="bar" unicode="|" horiz-adv-x="315" 
d="M253 4q-3 49 -4.5 109t-2 125t-1 133.5t-1 133.5t-2 125t-3.5 109q-1 20 -14 33.5t-32.5 21t-41.5 9t-41.5 -3t-33 -15t-15.5 -26.5l7 -752q19 -21 48.5 -28t59 -4.5t51.5 11t26 19.5zM293 -10q-4 -12 -17 -23t-31.5 -19t-40.5 -13t-45 -5q-34 0 -69.5 13.5t-64.5 46.5
l-7 773q5 42 41 62.5t81 20.5q25 0 50 -6.5t45 -20t32.5 -33t14.5 -45.5q3 -69 4 -157t2 -182q1 -109 2 -212.5t6 -182.5z" />
    <glyph glyph-name="D" unicode="D" horiz-adv-x="608" 
d="M218 559q99 -17 139.5 -61.5t33.5 -111.5q-3 -31 -17 -59.5t-36.5 -49.5t-52.5 -33t-67 -9v324zM57 56q44 -9 97 -8t107.5 13.5t106 37.5t92.5 65t67.5 95t30.5 127q3 63 -18 120.5t-60 105.5t-91 83.5t-110 55t-117.5 21t-112.5 -19.5zM4 782q44 18 82.5 26t70.5 8
q54 0 109.5 -15.5t106 -43.5t94 -67.5t74.5 -87.5t47.5 -103.5t13.5 -114.5q-4 -69 -26 -124t-57 -97t-79.5 -72.5t-94.5 -49.5t-101.5 -28t-99.5 -9q-53 0 -132 16zM263 285q36 11 57 41t26 65q3 37 -16.5 66.5t-66.5 45.5v-218z" />
    <glyph glyph-name="a" unicode="a" horiz-adv-x="565" 
d="M318 216q-21 -14 -37 -13.5t-27 10t-17 26.5t-6 37q0 31 10.5 54t25.5 37.5t31.5 19.5t28.5 0zM324 59q1 -7 13.5 -13t31 -8.5t40.5 -1.5t41 6.5t33 15.5t17 26v450q-2 20 -28 30.5t-57 13t-58 -3.5t-33 -19v-29q-46 13 -89.5 -3t-79 -53.5t-59.5 -92t-30 -117.5
q-3 -33 4 -66.5t22.5 -61t39 -47t53 -25.5t64.5 4.5t73 43.5zM398 -7q-35 0 -65.5 11t-44.5 30q-41 -19 -80 -19q-45 0 -81 22t-60.5 57.5t-36.5 80t-7 89.5q6 64 29 121t58 99t79.5 66.5t93.5 24.5h4q16 22 46.5 34t64.5 12q24 0 49 -5t45.5 -15t34 -25.5t16.5 -36.5v-459
q-5 -24 -19.5 -40.5t-34.5 -27t-44 -15t-47 -4.5z" />
    <glyph glyph-name="N" unicode="N" horiz-adv-x="684" 
d="M61 54q10 -10 39 -15.5t63 -6.5t66.5 2t48.5 11l7 287l125 -268q6 -8 32.5 -16.5t60 -10.5t67 7t53.5 35l7 678q-11 9 -42 15.5t-67 8t-70.5 -3.5t-53.5 -19l12 -381l-154 378q-20 10 -49 12.5t-58.5 -0.5t-55 -11t-38.5 -20zM9 757q15 13 35 23.5t42.5 18t46.5 11.5
t46 4q27 0 55.5 -6t55.5 -20l66 -165q-2 39 -2.5 80t-1.5 78q32 23 73.5 34t79.5 11q24 0 48.5 -3.5t47.5 -10.5t42.5 -16t31.5 -20l-8 -712q-31 -41 -71.5 -56.5t-80.5 -15.5q-24 0 -47.5 4.5t-43 11.5t-33.5 16t-19 17l-47 102q-1 -33 -1.5 -65t-1.5 -61
q-32 -15 -68.5 -22.5t-70.5 -7.5q-23 0 -47.5 3t-47 9.5t-41.5 16t-31 21.5z" />
    <glyph glyph-name="W" unicode="W" horiz-adv-x="915" 
d="M442 266l63 -205q7 -7 35.5 -11t61.5 -2.5t60.5 9t31.5 22.5l163 618q-2 19 -17.5 33.5t-37.5 24t-48 14t-48.5 3t-39 -8t-20.5 -18.5l-49 -357l-64 165q-8 12 -27.5 18t-42.5 5t-47 -10.5t-40 -28.5l-55 -134l-65 370q-19 2 -49 1.5t-60 -5.5t-54.5 -16.5t-33.5 -30.5
l123 -663q47 -11 92.5 -11.5t80.5 19.5zM390 35q-28 -15 -56 -22t-58 -7.5t-63 4t-70 12.5l-131 706q13 27 37 44.5t53 28t59.5 14.5t56.5 4q16 0 36 -1.5t39 -2.5l45 -255q27 32 63 46t69 14q32 0 60.5 -13t44.5 -37l1 -3q6 46 12.5 92.5t12.5 92.5q10 32 41.5 48t71.5 16
q29 0 61 -8t59.5 -23t46.5 -37.5t22 -52.5l-166 -628q-7 -21 -25.5 -34.5t-44 -20.5t-55 -8.5t-57.5 2t-52 12t-38 20.5l-30 99z" />
    <glyph glyph-name="m" unicode="m" horiz-adv-x="702" 
d="M65 65q0 -12 23.5 -16.5t53.5 -3t57 7.5t35 15q5 21 4.5 62.5t-0.5 85t4.5 78.5t19.5 43q12 -1 17.5 -20t7 -54t1.5 -85t2 -113q6 -6 22 -10t34 -4t34 4.5t24 14.5q5 28 7 69t5.5 79.5t10 67.5t21.5 32q10 -5 13.5 -21.5t5 -46.5t3.5 -74t9 -103q3 -8 20 -18.5t39.5 -15
t47.5 0.5t45 28q12 186 0.5 295t-42 155.5t-79.5 38.5t-112 -56q-17 38 -37 52.5t-43 13t-48 -15t-50 -31.5v34q-13 9 -32.5 13t-41 2t-43 -10.5t-38.5 -24.5v-469zM22 553q32 32 68.5 45.5t68.5 13.5q42 0 86 -25q19 11 38 17t39 6q26 0 48.5 -10.5t41.5 -35.5
q59 37 110 37q37 0 66.5 -20t49.5 -63.5t31 -113t11 -167.5q0 -38 -1.5 -87.5t-5.5 -97.5q-28 -32 -56 -45t-55 -13q-19 0 -37 5.5t-34 13.5t-28.5 18.5t-19.5 19.5q-16 -22 -43.5 -32.5t-53.5 -10.5q-21 0 -44 7.5t-41 21.5q-23 -17 -61 -26t-73 -9q-42 0 -73.5 15
t-31.5 48v488z" />
    <glyph glyph-name="w" unicode="w" horiz-adv-x="800" 
d="M152 80q5 -12 26 -19t46 -8.5t49 4.5t35 20l78 208l55 -213q8 -15 29.5 -22.5t46 -7t46.5 8t31 22.5l142 436q2 13 -8 24t-26.5 18t-37 11t-38.5 4.5t-31.5 -3t-16.5 -10.5l-74 -226l-39 200q-26 26 -63 26t-72 -26l-53 -208l-48 230q-18 14 -42.5 15.5t-48.5 -6t-44 -22
t-29 -31.5zM20 510q9 20 27 37.5t39.5 31t45.5 21.5t47 8q21 0 43 -8t45 -27l13 -64q3 11 6 21.5t6 21.5q59 44 110 44q54 0 102 -48l11 -52q5 17 11 35.5t11 35.5q8 22 31.5 32.5t53.5 10.5q25 0 54 -7.5t53 -21.5t38.5 -34.5t10.5 -47.5l-144 -443q-17 -27 -50.5 -42
t-68.5 -15t-66.5 13.5t-46.5 40.5l-23 88q-9 -23 -16.5 -43.5t-15.5 -41.5q-20 -26 -51 -36.5t-62 -10.5q-20 0 -39 4t-35.5 11t-29 17.5t-18.5 23.5z" />
    <glyph glyph-name="E" unicode="E" horiz-adv-x="563" 
d="M53 57l417 8q11 14 20.5 34.5t13 44.5t-1 50t-22.5 50l-254 -1l-4 138l167 5q10 11 13.5 31.5t2 42t-7.5 38.5t-15 21l-152 5l-9 92l238 3q24 7 36 29t14.5 47.5t-2.5 48t-15 30.5l-439 -5v-712zM8 813l499 6q21 -17 34.5 -47.5t13.5 -60.5q0 -21 -5 -42t-15.5 -40
t-28 -33t-41.5 -21l-194 -4v-4q30 0 61 -1t59 -2q13 -5 24 -17t19 -28.5t12 -35.5t4 -37q0 -26 -10 -53.5t-33 -50.5l-139 -4q1 -10 1 -21t1 -30q61 0 118 1t115 1q25 -35 36 -65.5t11 -56.5q0 -40 -18 -79.5t-40 -66.5l-484 -9v801z" />
    <glyph glyph-name="b" unicode="b" horiz-adv-x="551" 
d="M300 412q14 -1 23 -16.5t14 -37.5t4.5 -47t-5.5 -46.5t-16 -35.5t-27 -13q-13 0 -21 15.5t-11 37.5t-2 47.5t6 47t13.5 35.5t21.5 13zM61 58q12 -14 34.5 -18t46.5 -2.5t45.5 8t31.5 14.5v24q60 -39 112 -34.5t90 45t58 113t15 170.5q-12 82 -42.5 127.5t-70 58.5
t-82.5 -5.5t-80 -64.5l-4 221q-17 25 -41.5 31t-48 1t-43 -16.5t-26.5 -20.5zM13 726q8 9 23 20.5t33.5 21.5t39 17t40.5 7q28 0 56 -13.5t53 -49.5l3 -142q41 25 88 25q33 0 63 -13.5t54.5 -42t42.5 -72t27 -102.5q1 -10 1.5 -21t0.5 -20q0 -77 -16 -139t-44.5 -105.5
t-68.5 -67t-87 -23.5q-43 0 -85 19q-23 -14 -53 -22.5t-57 -8.5q-29 0 -57 11t-52 36z" />
    <glyph glyph-name="O" unicode="O" 
d="M302 233q-26 4 -39 33t-14.5 69t6 85t22.5 81.5t36 58t46 15.5q19 -6 30.5 -33.5t15 -66t-1 -81t-17.5 -78.5t-34 -60t-50 -23zM52 377q0 -69 19 -130t53.5 -106.5t81.5 -71.5t104 -26q70 6 124 40.5t91.5 87.5t59 119t26.5 133.5t-7 132t-40.5 114.5t-74.5 80t-109 30
q-68 0 -127.5 -29.5t-104 -83t-70.5 -127.5t-26 -163zM7 377q0 99 29.5 181.5t80.5 141.5t118.5 91.5t144.5 32.5q70 0 122 -29.5t86.5 -80t51.5 -116t17 -136.5q0 -79 -21.5 -159t-64.5 -145.5t-107.5 -109t-149.5 -50.5q-68 0 -124 29.5t-97 81t-63.5 120.5t-22.5 148z
M348 532q-9 0 -18 -16.5t-17 -42t-13.5 -57t-7 -60t2 -50.5t13.5 -29h-2q12 -2 22 13.5t18 41t12.5 56.5t5.5 60t-3 52t-13 32z" />
    <glyph glyph-name="n" unicode="n" horiz-adv-x="580" 
d="M361 77q4 -15 23.5 -24t44.5 -10t50 6t40 24q0 51 -0.5 116t-7.5 128.5t-23 118.5t-47 86t-79.5 30.5t-120.5 -48.5l2 25q0 12 -13 18.5t-32.5 9t-42 0.5t-42.5 -7.5t-34.5 -14.5t-17.5 -20v-434q6 -20 30.5 -29.5t53 -10t55 8.5t36.5 27l-2 274q48 31 73.5 20.5t37 -50
t13.5 -103.5t3 -141zM318 76q-1 54 -1.5 100.5t-3 81t-7 54t-13.5 19.5q-5 0 -15 -5v-131t1 -130q-20 -33 -57 -50t-75 -17q-43 0 -80 18.5t-50 56.5v445q5 19 21 34.5t38.5 26t48.5 16.5t50 6q29 0 53.5 -7.5t40.5 -24.5q55 27 100 27q47 0 79.5 -22.5t54 -60.5t33.5 -87.5
t18 -103t7.5 -108t1.5 -101.5v-57q-27 -29 -61.5 -42.5t-65.5 -13.5q-20 0 -39 4t-35 12.5t-27 20.5t-15 28z" />
    <glyph glyph-name="F" unicode="F" horiz-adv-x="515" 
d="M56 90q4 -21 19.5 -33.5t36 -17.5t44 -4t44 6.5t35.5 14.5t19 20l4 270l148 6q7 8 16 30t11 47t-6.5 47.5t-37.5 31.5l-131 1v82l163 2q28 16 40 44t10.5 56.5t-17 51.5t-43.5 29l-366 -1zM-1 817l417 1q49 -10 75 -48.5t26 -84.5q0 -38 -20 -75t-62 -61l-27 -1
q39 -17 54.5 -46t15.5 -61q0 -18 -5.5 -37.5t-13.5 -38t-17 -33.5t-15 -23l-125 -6q0 -60 -1 -118.5t-2 -117.5q-6 -16 -21.5 -30t-35.5 -24.5t-44 -16.5t-48 -6t-46 5t-41 16.5t-32 29t-19 43.5z" />
    <glyph glyph-name="c" unicode="c" horiz-adv-x="476" 
d="M52 301q-3 -70 15.5 -121t50.5 -82t73 -40t83 5t81 52t67 103q-2 13 -16.5 28t-33 24t-37.5 9t-29 -16q-20 -26 -38 -30.5t-31.5 5t-21 28.5t-5.5 39q2 25 13 53.5t26.5 44.5t32 11.5t30.5 -43.5q19 -6 38.5 -0.5t35 19t23.5 33t4 40.5q-29 55 -67 79t-77.5 24
t-77.5 -21.5t-68.5 -57.5t-49.5 -84t-21 -102zM9 303q2 62 25.5 117.5t60 97.5t82 66.5t93.5 24.5q51 0 98.5 -30.5t85.5 -99.5q6 -34 -9 -64.5t-41.5 -51.5t-60 -29.5t-65.5 2.5q-11 29 -7 35q-7 4 -14 -10.5t-10.5 -34t-1.5 -36t13 -16.5q7 0 15.5 7.5t18 16.5t21 16.5
t24.5 7.5q19 0 41 -10.5t41 -27t32.5 -36t15.5 -36.5q-22 -51 -50.5 -89t-60 -63t-65.5 -37t-67 -12q-44 0 -84 19.5t-70 56.5t-47 91.5t-14 124.5z" />
    <glyph glyph-name="X" unicode="X" horiz-adv-x="753" 
d="M58 158q-6 -13 2 -28t24 -30t37 -28.5t42 -23.5t39 -14.5t28 -1.5l136 239l147 -206q5 -6 25.5 -1t46 17.5t51.5 31t42.5 39.5t19.5 42t-17 39l-160 215l108 190q10 23 5 45.5t-19 41.5t-33.5 33.5t-39 22.5t-36 8t-24.5 -10l-118 -221l-164 218q-23 1 -49 -9t-48.5 -26
t-37 -35.5t-12.5 -37.5l179 -263zM177 406q-42 62 -86.5 129.5t-85.5 128.5q-3 26 17 54.5t51.5 52t70 38t71.5 13.5l143 -182q20 38 43 81t43 81q23 32 63 32q23 0 53 -13.5t56.5 -36t45 -52.5t18.5 -64q0 -24 -14 -55l-92 -162q35 -47 69.5 -93.5t69.5 -93.5
q17 -15 23.5 -32t6.5 -35q0 -26 -16.5 -53t-42 -51t-56.5 -42.5t-60 -27t-52 -5.5t-33 23l-113 147q-28 -48 -56.5 -98t-54.5 -95q-18 -12 -45.5 -9.5t-57.5 15.5t-59 33.5t-50 45t-29.5 51t1.5 50.5z" />
    <glyph glyph-name="x" unicode="x" horiz-adv-x="648" 
d="M467 44q16 -5 41.5 5.5t47.5 28t33.5 39.5t-1.5 41l-162 166l137 156q-2 27 -17.5 45.5t-35.5 29t-40 12t-32 -5.5l-121 -136l-110 148q-15 4 -41 -4t-51 -23.5t-42.5 -35.5t-15.5 -38l138 -181l-129 -166q5 -23 20.5 -41.5t36 -30t44 -15.5t44.5 2l104 164zM321 133
q-20 -32 -41.5 -66t-40.5 -64q-36 -9 -55 -9q-26 0 -52 10t-49 29t-40 44.5t-24 57.5l122 157q-32 41 -64 83t-61 81q-2 18 9 38t30.5 38.5t44.5 34.5t49.5 27t47 16t36.5 1l87 -117q22 25 45 50.5t43 49.5q13 8 27.5 12.5t27.5 4.5q21 0 45 -9.5t45 -27.5t36.5 -45
t18.5 -62l-123 -142q35 -35 69.5 -70.5t68.5 -70.5q13 -20 9 -42t-18.5 -43.5t-36.5 -40.5t-46.5 -32t-47.5 -19.5t-39 -1.5z" />
    <glyph glyph-name="o" unicode="o" horiz-adv-x="506" 
d="M267 409q9 -1 14 -17t6.5 -39.5t-0.5 -50.5t-8 -49t-15.5 -35.5t-23.5 -10.5q-10 2 -16 18t-8 39.5t0.5 49.5t9 47.5t16.5 35.5t25 12zM231 46q49 -1 87.5 21t65.5 57.5t42.5 82t19 95t-4.5 95t-28.5 84t-53 61t-77.5 25.5q-40 4 -75.5 -16t-64 -55t-48.5 -81t-29 -95
t-5.5 -96.5t23 -86t56 -63.5t92.5 -28zM229 3q-58 3 -98.5 24.5t-66 55.5t-37 77.5t-11.5 91.5q0 65 21 131t57.5 118.5t85.5 83.5t105 26h-1q52 -3 90.5 -27t64 -62.5t38 -87.5t12.5 -102q0 -60 -16.5 -119t-48.5 -106t-81 -76t-113 -28h-1z" />
    <glyph glyph-name="P" unicode="P" horiz-adv-x="611" 
d="M256 609q38 10 69 13q26 2 50 -2t29 -23q0 -22 -17.5 -36.5t-41 -23t-48 -12t-38.5 -3.5zM76 67q5 -10 20 -17.5t35.5 -11.5t44 -4.5t45.5 3t40.5 11.5t28.5 22l-14 271q88 17 145.5 54t90 82t42 91t0.5 82q-13 44 -52.5 70.5t-92.5 39t-112.5 11.5t-111 -11.5t-88.5 -30
t-45 -44.5zM7 691q9 28 37.5 51t69 39.5t89 25.5t98.5 9q49 0 96.5 -8.5t88 -27.5t70 -48t41.5 -71q6 -24 6 -49q0 -40 -15 -85.5t-48.5 -87.5t-87 -77.5t-130.5 -55.5q4 -60 7.5 -125t6.5 -124q-27 -37 -70 -53t-85 -16q-48 0 -90.5 18.5t-59.5 49.5z" />
    <glyph glyph-name="d" unicode="d" horiz-adv-x="529" 
d="M192 309q5 52 20.5 75t32 24.5t29.5 -13.5t15 -38q0 -60 -15 -93t-33 -38.5t-33 15.5t-16 68zM59 218q3 -55 23.5 -100t53 -64.5t74 -6.5t85.5 73v-61q8 -5 28.5 -11t45.5 -7t52 7t48 32v639q-4 18 -18 26.5t-33 10.5t-40.5 -2.5t-39 -11.5t-28.5 -16t-9 -17v-185
q-45 32 -81 35.5t-63.5 -14.5t-47 -53t-31.5 -79.5t-16.5 -95t-2.5 -99.5zM16 214v36q0 63 11 126.5t34.5 113.5t60 81.5t86.5 31.5q11 0 24 -2.5t26 -6.5v115v-5q0 16 13.5 32.5t35 30.5t48.5 23t53 9q36 0 65.5 -17t38.5 -60v-657q-35 -39 -70 -53t-67 -14q-29 0 -59 10
t-50 20q-43 -31 -87 -31q-34 0 -62.5 17.5t-50.5 47.5t-35 69.5t-15 84.5v-2z" />
    <glyph glyph-name="G" unicode="G" horiz-adv-x="677" 
d="M335 448q-9 -4 -17 -18.5t-12 -33.5t-3 -40t8 -38.5t21.5 -28.5t38.5 -9l63 6q-27 -41 -60 -54.5t-63.5 -5.5t-54 36t-29.5 70q-3 20 -4 48.5t4 59.5t18 59.5t38 47.5t64 24.5t96 -9.5q19 -5 33.5 2t24.5 21.5t15 33t6.5 36.5t-0.5 32.5t-8 20.5q-15 16 -38.5 29.5
t-53.5 22t-65.5 11.5t-74.5 -2q-72 -10 -120.5 -57.5t-75.5 -116t-33 -148.5t8.5 -154.5t48.5 -135t86 -90t122 -18.5t156 79v-63q13 -13 36 -18t47 -3t44 10t25 20l-8 370zM661 489l9 -424q-13 -30 -50 -48t-77 -18q-29 0 -58 10.5t-53 36.5q-42 -24 -79.5 -34.5
t-72.5 -10.5q-66 0 -117 34.5t-85.5 90.5t-52.5 128.5t-18 147.5q0 72 16 141.5t49.5 126.5t84 95.5t119.5 48.5l-1 -1q17 2 29.5 3t25.5 1q71 0 128 -23t88 -55q11 -12 16.5 -30.5t5.5 -39.5q0 -27 -8 -57t-24.5 -54t-42.5 -36.5t-62 -2.5l1 -1q-37 10 -64 10q-26 0 -44 -9
t-29.5 -24t-17.5 -34t-8 -39q8 25 23 44t32 27z" />
    <glyph glyph-name="Y" unicode="Y" horiz-adv-x="771" 
d="M276 76q31 -28 66.5 -38t69 -7t61.5 16.5t44 33.5l5 372l189 280q-10 22 -39 32.5t-64 13.5t-68.5 -0.5t-51.5 -9.5l-105 -201l-152 208q-1 2 -12.5 4t-29 3t-39 -1.5t-40.5 -9.5t-34.5 -20t-20.5 -34l224 -272zM235 430q-28 33 -56.5 70t-57 74.5t-57 74t-56.5 69.5
q4 28 20 49t40 34.5t53 19.5t57 5.5t52.5 -8t40.5 -21.5l107 -143q20 38 40.5 77.5t38.5 74.5q24 8 57 13.5t63 5.5q27 0 54.5 -5t52.5 -16.5t45.5 -29.5t32.5 -45l-195 -289q-2 -91 -3 -188t-3 -188q-28 -34 -72 -56t-94 -22q-38 0 -79.5 16t-84.5 55z" />
    <glyph glyph-name="y" unicode="y" horiz-adv-x="616" 
d="M80 -273q5 -8 29.5 -19t57.5 -17t67.5 -2.5t60.5 24.5l274 793q-2 24 -22.5 37.5t-47.5 18t-55 2t-44 -9.5l-100 -339l-61 333q-23 26 -52 28t-57 -8t-50 -27t-30 -29l164 -458zM168 56q-41 114 -83 231.5t-83 230.5q9 13 27.5 30.5t42.5 33.5t51 27t53 11t52.5 -12
t51.5 -41l30 -167q14 48 28 94.5t27 91.5q23 9 49 15t49 6q25 0 51 -5.5t47 -18t35.5 -32.5t16.5 -49l-282 -815q-28 -23 -59.5 -33t-61.5 -10q-28 0 -57 8.5t-53.5 21t-43 26t-24.5 24.5z" />
    <glyph glyph-name="e" unicode="e" horiz-adv-x="536" 
d="M232 412q0 13 14.5 20t31 7.5t29.5 -6t10 -21.5q-2 -9 -15 -16t-28.5 -8.5t-28 4t-13.5 20.5zM421 255q-43 -30 -80.5 -43.5t-66 -11t-46.5 21.5t-22 54q19 -11 44.5 -13.5t53 1t54.5 14t48.5 27t35 39t14.5 49.5q1 42 -16.5 79.5t-50 63t-77.5 35.5t-97 -2
q-47 -11 -78 -37.5t-50 -60.5t-27.5 -72t-10 -73.5t1.5 -64.5t7 -44q10 -35 31 -67t51 -56t67 -38t78.5 -12.5t86 21t88.5 61.5q21 19 24.5 42.5t-4.5 43.5t-24 32.5t-35 10.5zM499 391q-1 -29 -12.5 -53.5t-30.5 -44.5q31 -12 52 -42.5t21 -67.5q0 -23 -9.5 -45.5
t-30.5 -42.5q-54 -51 -107 -73t-104 -22q-48 0 -90.5 17t-77 45.5t-59 65.5t-35.5 78q-3 14 -6.5 39.5t-3.5 58.5q0 42 8 89.5t30.5 91t61 78t100.5 48.5q16 5 32 6t31 1q52 0 95 -18.5t73.5 -49.5t46.5 -72.5t15 -86.5z" />
    <glyph glyph-name="Q" unicode="Q" horiz-adv-x="696" 
d="M8 249q0 51 9 113.5t28.5 126.5t51 124t75.5 106.5t102.5 74t132.5 26.5q57 3 106 -30.5t86 -90.5t58 -130t21 -148q0 -48 -8.5 -95t-27.5 -89q5 -2 5.5 -2.5t5.5 -3.5q34 -28 34 -74q0 -23 -9 -46t-28 -40.5t-47.5 -24.5t-68.5 3l-22 16q-48 -35 -101.5 -51.5
t-109.5 -16.5q-57 0 -110 16.5t-93.5 49t-65 79.5t-24.5 107zM52 249q0 -52 23 -92t61 -66.5t86.5 -39t99.5 -9t100 22.5t88 56l43 -31q33 -8 53.5 3.5t29.5 30.5t7 39.5t-14 29.5l-48 26q32 49 44 110t7.5 124t-22.5 123t-47.5 105.5t-68 71.5t-82.5 22q-67 3 -119.5 -22
t-92.5 -67.5t-68.5 -98t-46 -115t-25.5 -117.5t-8 -106zM400 611q34 -2 52 -29.5t24 -66t4 -80.5t-8 -72l-6 3l6 -4q-4 -20 -8 -32t-6 -10l-47 27q-24 8 -44 4t-33 -16.5t-19 -32t-2 -41.5l42 -30q-41 -26 -67.5 -23.5t-41 24t-17.5 58t3.5 78.5t21.5 85t36.5 78t49.5 57.5
t60 22.5zM400 561q-23 1 -44.5 -21.5t-38 -57t-28 -76t-14.5 -80.5q8 20 27.5 36t43 25t47.5 9t41 -12q4 21 6.5 48.5t-0.5 53.5t-12.5 46.5t-27.5 28.5zM469 359q0 -1 1 -2l-1 1v1z" />
    <glyph glyph-name="p" unicode="p" horiz-adv-x="573" 
d="M253 283q-6 31 0 55t18.5 38.5t28.5 20t30 0.5t23 -21.5t8 -44.5q-1 -29 -12 -49.5t-27 -28.5t-34.5 -2t-34.5 32zM61 -288q16 -11 40.5 -16.5t48.5 -5t45 7.5t30 20l-10 372q50 -31 92.5 -30.5t77 22.5t60.5 60t42.5 82.5t24 89t4.5 80.5q-1 46 -16.5 79.5t-40.5 54
t-56.5 28.5t-65 5t-65.5 -17.5t-58 -38.5l-3 36q-4 9 -21.5 22t-41 18t-48.5 -2t-44 -37zM13 554q26 41 55.5 56.5t58.5 15.5q31 0 61 -16.5t48 -35.5q28 16 58.5 23.5t61.5 7.5q38 0 74 -12.5t64 -38t45.5 -64.5t19.5 -92q2 -34 -4 -75t-20 -83.5t-35 -82.5t-49.5 -71
t-63.5 -50t-77 -19q-11 0 -23.5 2t-26.5 5q2 -78 4 -161.5t4 -158.5q-20 -29 -54 -42.5t-69 -13.5q-29 0 -62.5 10t-64.5 30z" />
    <glyph glyph-name="H" unicode="H" horiz-adv-x="625" 
d="M57 73q18 -20 51.5 -24t67.5 0t60.5 12.5t31.5 14.5l9 225h81l3 -231q9 -9 36.5 -16t60 -8t63.5 6.5t46 25.5l1 642q1 18 -12 30t-33 18.5t-44.5 7.5t-47 -3t-40.5 -12t-25 -20l-3 -283l-86 2l-4 271q-5 14 -22.5 23.5t-40.5 14.5t-49 4.5t-49 -5t-39 -13.5t-19 -23z
M10 737q4 20 18.5 35.5t35 25.5t45.5 15t51 5q25 0 50.5 -5t47 -15t37 -25.5t22.5 -35.5l2 -133q1 38 1.5 76t1.5 73q9 16 25 28.5t35.5 21.5t42 13.5t44.5 4.5q27 0 53 -6t46.5 -18.5t32.5 -31.5t12 -45q0 -161 -0.5 -328.5t-0.5 -329.5q-28 -34 -68.5 -47t-78.5 -13
q-22 0 -44 4t-42 10.5t-36.5 16t-26.5 20.5v91q-2 -22 -2.5 -43.5t-1.5 -41.5q-6 -7 -23.5 -17t-42 -19t-52.5 -15t-53 -6q-34 0 -67.5 12t-61.5 41z" />
    <glyph glyph-name="z" unicode="z" horiz-adv-x="553" 
d="M451 56q20 8 31.5 30t13.5 48t-6.5 52.5t-27.5 43.5l-190 -7l179 150q5 12 14 39t9.5 57.5t-13.5 58t-55 41.5l-316 -11q-12 -3 -21.5 -28.5t-11.5 -55.5t5.5 -57t29.5 -33l201 6l-216 -178q-8 -20 -12.5 -42t-5 -43t4 -38.5t15.5 -29.5zM61 16q-24 26 -34 54t-10 54
t6 55.5t17 57.5l129 106q-21 -1 -42 -1t-41 -1q-39 11 -56 44.5t-17 73.5q0 23 6 46.5t16 43.5t22.5 34t25.5 18l330 11q61 -20 83 -58t22 -81q0 -20 -3.5 -39t-9 -36t-10.5 -30.5t-8 -20.5l-91 -76q19 1 41.5 1.5t39.5 1.5q33 -29 47.5 -63t14.5 -66q0 -42 -20.5 -79
t-58.5 -53z" />
    <glyph glyph-name="Z" unicode="Z" horiz-adv-x="696" 
d="M612 60q13 12 24 37.5t11.5 57t-15 64t-55.5 58.5l-246 -8l205 315q9 9 19.5 26t19.5 37.5t14.5 42.5t4 39.5t-12.5 29.5t-35 13l-441 -6q-40 -23 -53 -64.5t11 -107.5h241l-211 -294q-2 -9 -7 -29.5t-9.5 -46.5t-7 -54.5t0.5 -54t13 -44.5t30 -26zM106 0q-48 17 -66 60
t-18 94q0 25 3 50.5t6.5 48t7.5 40.5t7 27l175 230h-189q-15 40 -21.5 69.5t-6.5 49.5q0 48 23 83t66 59l453 5q52 -1 72.5 -28t20.5 -66q0 -21 -7 -46t-17.5 -48t-22 -42.5t-21.5 -30.5q-25 -39 -43 -66.5t-35 -53t-35 -53t-43 -66.5q45 2 89 3t85 3q59 -37 81 -81t22 -86
q0 -20 -5.5 -40.5t-14.5 -39t-20 -34t-22 -25.5z" />
    <glyph glyph-name="exclam" unicode="!" horiz-adv-x="296" 
d="M62 331q17 -11 38.5 -17t43.5 -5t44 8.5t40 22.5l7 464q-8 17 -33.5 25t-54 7.5t-53 -9.5t-30.5 -25zM143 28q26 1 45 14t29 32t11 41t-8 40.5t-27.5 30.5t-47.5 12q-28 -1 -46.5 -14t-27 -31.5t-7.5 -40.5t10 -40.5t26.5 -31t42.5 -12.5zM143 -15q-29 0 -52 11.5
t-38.5 29.5t-23.5 41.5t-8 47.5q0 23 7.5 45.5t23 40t38.5 28.5t54 12q33 0 56.5 -10t39.5 -27t23.5 -39t7.5 -46t-8 -47t-24 -42t-39.5 -31t-54.5 -14h-2zM21 808q12 35 50 53.5t80 18.5q39 0 74.5 -16.5t52.5 -50.5l-7 -494q-34 -27 -67.5 -39.5t-64.5 -12.5
q-26 0 -57.5 10t-63.5 32z" />
    <glyph glyph-name="parenleft" unicode="(" horiz-adv-x="508" 
d="M446 143q25 -31 32 -67t-3 -68.5t-37.5 -57.5t-71.5 -34q-59 26 -121 76.5t-112.5 115t-82.5 137t-32 142.5q6 72 39.5 146.5t86 137.5t119.5 105.5t138 50.5q24 -2 40.5 -14.5t27.5 -30.5t16 -39.5t5 -43.5q0 -23 -8 -47.5t-24 -47.5q-6 0 -33 -14.5t-58.5 -41.5
t-59 -66.5t-35.5 -88.5q-2 -34 14.5 -72.5t43 -73.5t58 -63t58.5 -41zM428 104q-32 15 -68.5 47.5t-67 74t-49 86.5t-14.5 85q4 41 20 76t37.5 62.5t45.5 48.5t45.5 35t37 21t20.5 7q9 12 11.5 34t-1 44.5t-14.5 39.5t-29 19q-64 -7 -124 -45.5t-107 -95t-76.5 -124.5
t-33.5 -134q-3 -65 24.5 -130.5t73 -122.5t102 -102t110.5 -69h3q6 3 19.5 7t25 17.5t16 41t-6.5 77.5z" />
    <glyph glyph-name="eight" unicode="8" horiz-adv-x="628" 
d="M293 637q19 0 29.5 -10t14 -25t1 -32.5t-9.5 -32t-17 -24t-22 -7.5q-32 -1 -45.5 17.5t-12 42t17.5 45t44 26.5zM319 362q33 -7 47.5 -32t13 -52t-18 -48.5t-44.5 -21.5q-33 -2 -50.5 8.5t-23.5 27.5t-2 37t15 37.5t27.5 30t35.5 13.5zM295 45q60 -2 112 22t89 62
t56.5 86t14.5 95t-36.5 87t-96.5 63q29 16 41.5 43t10.5 58.5t-17.5 64t-42 59.5t-63 45t-79.5 20q-39 2 -72.5 -13.5t-58.5 -42t-39.5 -60.5t-15.5 -71t13 -73t47 -65q-51 -37 -74 -79.5t-24 -84t18 -80.5t51 -68.5t75 -48t91 -19.5zM294 2q-56 1 -106 22.5t-88 57
t-60.5 81.5t-22.5 96q0 44 18.5 88t60.5 84q-22 29 -31.5 61.5t-9.5 66.5q0 45 17.5 88t48.5 76t73 52.5t91 17.5q55 -2 100 -25.5t77 -58t49.5 -76.5t17.5 -81q0 -21 -5 -42t-16 -38q57 -34 80 -80t23 -100q0 -53 -24.5 -105.5t-67.5 -94t-100.5 -67t-124.5 -23.5zM316 251
q12 0 16.5 9t4 20.5t-6 22.5t-14.5 15q-11 -3 -20.5 -14t-11.5 -23t4.5 -21t27.5 -9zM316 318q3 2 3 3t-1 1t-2.5 -1.5t0.5 -2.5zM292 549q1 -1 4 6t5.5 16t1.5 16t-9 6q-6 4 -11.5 -2.5t-7 -15.5t2 -17.5t14.5 -8.5z" />
    <glyph glyph-name="zero" unicode="0" horiz-adv-x="558" 
d="M279 555q12 1 21.5 -21t15 -55.5t6.5 -73t-4 -75t-17 -60.5t-31 -29q-23 4 -37.5 29.5t-20.5 61t-4.5 75t10.5 73t24.5 55t36.5 20.5zM256 41q57 -5 102 21.5t76 73.5t49 108.5t21.5 127t-7 130t-36 116.5t-66.5 87t-97 42q-53 6 -95.5 -19.5t-73.5 -72t-50 -108.5
t-24.5 -128t3 -131t33.5 -118t65.5 -88t99.5 -41zM252 -2q-63 6 -109 39.5t-76 84.5t-44 115t-14 132q0 81 20 160t58 140t92.5 95t123.5 26q63 -8 109 -43t76 -88t45 -118.5t15 -134.5q0 -79 -19 -154.5t-56 -134t-92.5 -92t-127.5 -27.5h-1zM276 512q-6 0 -11 -10.5
t-8 -28t-5 -39.5t-2 -44q0 -31 4 -58.5t13 -40.5q4 5 7 23t4 42t1 50.5v49.5t-1 38.5t-2 17.5z" />
    <glyph glyph-name="slash" unicode="/" horiz-adv-x="700" 
d="M640 693q-2 24 -15.5 42t-32.5 27.5t-41 9.5t-43 -13l-439 -660q12 -18 29 -31t37.5 -18t42 -2t42.5 17zM253 36q-25 -17 -48.5 -24.5t-43.5 -7.5q-40 0 -78.5 26t-65.5 71l459 689q41 25 77 25q24 0 46.5 -9.5t40.5 -27.5t29.5 -42.5t13.5 -54.5z" />
    <glyph glyph-name="backslash" unicode="\" horiz-adv-x="700" 
d="M16 659q2 30 14 54.5t30 42.5t40.5 27.5t46.5 9.5q18 0 37 -6.5t40 -18.5l459 -689q-27 -45 -65.5 -71t-78.5 -26q-21 0 -44 7.5t-48 24.5zM480 43q21 -14 42.5 -17t42 2t37.5 18t29 31l-439 660q-21 13 -43.5 13t-41.5 -9.5t-32 -27.5t-15 -42z" />
    <glyph glyph-name="at" unicode="@" horiz-adv-x="1050" 
d="M524 286q-29 -19 -49 -11.5t-20 34.5q0 22 7.5 38.5t18 26t22 13t19.5 0.5zM664 68q-42 -16 -89.5 -18.5t-93 8t-86 34t-69.5 60.5t-42.5 86.5t-5.5 112.5q10 74 49 128t90.5 86t109 42.5t104.5 -1.5q7 -2 29.5 -8t47.5 -25t45.5 -55.5t24.5 -99.5q3 -41 -13 -79
t-38.5 -63t-47 -31.5t-39 15t-14 76t28.5 151.5q-2 14 -22 24.5t-44.5 15.5t-46 4t-25.5 -10v-20q-32 9 -65 -4t-59.5 -41t-44 -68t-17.5 -85q0 -35 15 -71t41 -58.5t61.5 -24.5t75.5 32q8 -38 42.5 -61.5t81.5 -29.5t99 9t96.5 53t74 102.5t30.5 158.5q-5 63 -25.5 118
t-55.5 97.5t-82.5 70.5t-104.5 38q-61 11 -124.5 7.5t-123.5 -20.5t-114.5 -48.5t-98.5 -77t-74 -105.5t-41 -135q-11 -70 9 -137t61 -124t98.5 -102.5t123 -72.5t133.5 -33t131 15q26 15 37 39.5t10 50t-12.5 46.5t-30.5 28zM991 416q-1 -86 -23.5 -150t-58.5 -108.5
t-81.5 -70.5t-91.5 -35q13 -29 13 -62q0 -35 -16.5 -68.5t-54.5 -55.5q-62 -21 -121 -21t-119 17t-115.5 48.5t-104 74.5t-84 94.5t-56 110.5t-20.5 121q0 12 1 25.5t3 28.5v-1q16 107 66 187t122 132.5t159 78.5t176 26q50 0 101 -9q65 -11 119 -43t94 -79.5t63.5 -109
t28.5 -131.5zM623 563q-9 3 -17.5 4t-16.5 2q19 -4 37.5 -12t34 -19t26 -24.5t12.5 -29.5q-16 -57 -22.5 -96t-6.5 -65v-28t-1 -8q11 0 23 11t22 29t16 41t5 47q-3 47 -18 75.5t-33 44.5t-35.5 21.5t-26.5 7.5zM465 107q16 -5 31.5 -8.5t31.5 -5.5q-14 12 -22 26
q-11 -5 -20.5 -8t-20.5 -4z" />
    <glyph glyph-name="circumflex" unicode="&#x2c6;" horiz-adv-x="440" 
d="M297 890q-7 11 -24.5 19t-37.5 9.5t-39.5 -5t-30.5 -23.5l-95 -138q6 -23 21 -40t33.5 -26t36.5 -8.5t30 11.5l42 70l35 -63q17 -17 32 -20t28.5 3t23.5 17.5t16.5 24.5t8.5 23.5t-2 14.5zM407 787q10 -12 7 -38t-17 -52t-36.5 -45.5t-50.5 -19.5q-18 0 -38 9t-40 31h-1
q-2 -2 -3 -5t-3 -5q-16 -15 -33 -21.5t-32 -6.5q-19 0 -40 8.5t-40 25t-34 40t-22 52.5l105 154q17 26 44 37t55 11q32 0 62 -14t44 -35z" />
    <glyph glyph-name="tilde" unicode="&#x2dc;" horiz-adv-x="551" 
d="M150 683q17 37 35 51.5t38 11.5q15 1 29 -10t30.5 -24t36.5 -23t45 -6q10 5 29.5 16.5t40.5 30t39.5 45t26.5 61.5q4 16 -9.5 34t-33 30.5t-39.5 15t-30 -12.5q-2 -12 -5.5 -26.5t-10.5 -26.5t-18 -20t-29 -8q-16 0 -28 12t-24.5 26t-27.5 26t-38 12q-15 6 -36.5 -6.5
t-41.5 -32.5t-35.5 -42t-18.5 -36q-8 -14 -3.5 -38.5t16.5 -44t28.5 -27t33.5 11.5zM182 654q-25 -28 -57 -28q-22 0 -42 20t-33.5 47.5t-17.5 57t5 48.5q7 19 24 43t39.5 45.5t50 37t56.5 16.5q20 0 35 -5t27 -13.5t22 -19t19 -21.5q5 -7 9.5 -12t5.5 -5q4 0 7.5 5.5
t6.5 14t4.5 18t3.5 18.5q14 20 31.5 29t36.5 9q21 0 45.5 -13t44 -33t31 -43t6.5 -44v1q-10 -42 -32 -74t-46.5 -54.5t-48 -36t-36.5 -19.5q-25 -4 -44.5 -1.5t-35 9.5t-28 16.5t-24.5 18.5h1q-9 6 -16 11.5t-9 5.5q-14 3 -34 -38z" />
    <glyph glyph-name="quoteright" unicode="&#x2019;" horiz-adv-x="362" 
d="M108 468q37 -18 72 -10.5t61.5 33t41 63t9.5 79.5q-8 36 -26.5 61.5t-42 39.5t-49.5 15.5t-49 -10.5q-33 -19 -47.5 -52t-9.5 -62.5t30 -47.5t71 -7q5 -21 -2.5 -39t-19 -31t-23.5 -21.5t-16 -10.5zM47 468q1 1 9.5 8.5t20 17t22 18.5t14.5 12q-46 9 -67.5 41.5
t-21.5 74.5q0 38 20 76t61 61h-1q31 16 65 16q26 0 52 -10.5t48.5 -30.5t40 -48.5t25.5 -64.5q5 -44 -7 -84.5t-37 -72.5t-59 -51t-73 -19q-30 0 -58 12t-54 44z" />
    <glyph glyph-name="quotedblbase" unicode="&#x201e;" horiz-adv-x="696" 
d="M379 7q1 1 11 12.5t21.5 26t22.5 27.5t14 16q-45 9 -67 41.5t-22 74.5q0 38 20.5 76t60.5 61q29 16 64 16q26 0 52.5 -10.5t49 -30.5t39.5 -48.5t25 -64.5q5 -44 -7 -84.5t-37 -72.5t-59 -51t-72 -19q-9 0 -18.5 1.5t-22.5 4.5t-31 9t-44 15zM54 -32q1 1 9 11.5t18 23.5
t19 25t13 15q-45 9 -67 41.5t-22 74.5q0 38 20.5 76t60.5 61h-1q31 16 65 16q26 0 52 -10.5t48.5 -30.5t40 -48.5t25.5 -64.5q5 -44 -7 -84.5t-37 -72t-59 -50.5t-73 -19q-17 0 -39 6.5t-66 29.5zM108 -13q37 -18 72 -10.5t62 33t41 63t9 79.5q-8 36 -26.5 61.5t-42 39.5
t-49.5 15.5t-48 -10.5q-33 -19 -48 -52t-10 -62.5t30 -47.5t71 -7q5 -21 -2.5 -39t-19 -31t-23.5 -21.5t-16 -10.5zM444 33q36 -18 71.5 -10.5t62 33t40.5 63t9 79.5q-8 36 -26.5 61.5t-42 39.5t-49.5 15.5t-48 -10.5q-33 -19 -47.5 -52t-9.5 -62.5t30 -47.5t70 -7
q6 -21 -1.5 -39t-19.5 -31t-24 -21.5t-15 -10.5z" />
    <glyph glyph-name="quotesinglbase" unicode="&#x201a;" horiz-adv-x="362" 
d="M108 14q37 -18 72 -10.5t62 32.5t41 62.5t9 79.5q-8 36 -26.5 61.5t-42 40t-49.5 16t-48 -11.5q-33 -19 -48 -52t-10 -62.5t30 -47.5t71 -7q5 -21 -2.5 -38.5t-19 -31t-23.5 -21.5t-16 -10zM50 16q1 0 9.5 7.5t19 16.5t20.5 17.5t14 12.5q-46 8 -67.5 40.5t-21.5 74.5
q0 38 20.5 76.5t60.5 60.5h-1q31 16 65 16q26 0 52 -10.5t48.5 -30t40 -48.5t25.5 -65q5 -44 -7 -84.5t-37 -72t-59 -50.5t-73 -19q-33 0 -70 17z" />
    <glyph glyph-name="sterling" unicode="&#xa3;" horiz-adv-x="651" 
d="M147 366l-30 -334q85 19 144.5 25.5t104 4t81 -12t75.5 -22.5q27 -4 41.5 15t20 45t2 50t-13.5 29q-65 32 -138.5 49t-155.5 -2l17 153l130 3q16 9 25 31t10.5 46t-5 44t-22.5 25h-134q-1 57 16.5 90.5t40.5 47.5t46.5 12.5t35.5 -14.5q7 -16 10 -26t3.5 -16t0 -9.5
t0.5 -6.5q8 -21 30.5 -25.5t45.5 2t41 19.5t17 26q-7 90 -57.5 142t-126.5 52q-51 0 -93 -17t-73.5 -53t-53.5 -93t-32 -138l-76 -2q-21 -7 -27 -30t-3 -47.5t13 -43.5t22 -19h68zM79 323q-15 0 -29.5 11t-25.5 28.5t-17.5 39.5t-6.5 44q0 33 15 61.5t51 41.5l46 1
q30 153 104 227.5t186 74.5q46 0 85 -17t69 -48t49 -74t24 -94q0 -17 -12 -34t-31 -31t-41.5 -23t-44.5 -9h-14q18 -29 18 -67q0 -36 -17.5 -73.5t-49.5 -55.5l-103 -3q-1 -11 -2.5 -22t-4.5 -36q9 1 16 1h16q64 0 121.5 -18t111.5 -44q19 -11 28.5 -34t9.5 -52
q0 -24 -7 -49.5t-22 -45.5t-38.5 -30.5t-56.5 -5.5q-42 14 -79.5 23t-87.5 9q-38 0 -103 -10t-167 -32l32 346h-22zM400 623q-16 0 -32 -13.5t-23 -51.5h76q-2 5 -4.5 9.5t-4.5 9.5l1 -2q0 2 -2 11t-2 14v7.5t-5 15.5h-4z" />
    <glyph glyph-name="Euro" unicode="&#x20ac;" horiz-adv-x="873" 
d="M152 410q-1 -9 -1.5 -17.5t-0.5 -17.5h-31q-21 -10 -31 -24.5t-9.5 -31t10.5 -33.5t30 -32h52q19 -55 55 -98t82 -71.5t100 -41.5t111 -6.5t114 33t109 76.5q13 16 15 35t-4.5 37.5t-18.5 34.5t-26 26.5t-27.5 12.5t-22.5 -8q-42 -43 -84 -62t-80.5 -20t-71.5 13.5
t-58 38.5h124q27 14 33 33.5t1.5 38t-16 32.5t-18.5 17h-179q0 9 0.5 17.5t1.5 17.5h177q27 13 33 33t1.5 39t-16 34t-18.5 18h-98q28 24 62.5 38t70.5 13.5t71.5 -17.5t65.5 -56q16 -13 40 -11t45.5 14.5t36 32.5t12.5 42q-20 69 -67 107t-108 49.5t-128.5 0t-128.5 -41
t-110 -74t-71 -97.5h-62q-21 -11 -31 -26t-9.5 -31.5t10.5 -34t30 -32.5h33zM35 321q0 41 36 73q-36 39 -36 84q0 28 18 54t56 45h46q26 48 70.5 88t98.5 69t114.5 45.5t118.5 16.5q47 0 90.5 -11.5t80.5 -35.5t65 -61.5t44 -90.5q3 -27 -9.5 -52t-33.5 -44.5t-47.5 -31
t-51.5 -11.5q-17 0 -33.5 5.5t-30.5 16.5q-23 29 -46.5 43t-47.5 18q13 -17 22 -37t9 -40t-8 -39t-27 -36q14 -17 24.5 -38t10.5 -44q0 -24 -12 -46q36 17 72 53l-2 -1q19 21 48.5 17t57.5 -23.5t48 -51t20 -66.5q0 -20 -6 -38t-20 -35q-69 -66 -143 -95.5t-147 -29.5
q-55 0 -106.5 15.5t-96.5 44t-80.5 69.5t-58.5 91h-38q-34 26 -51.5 54.5t-17.5 55.5z" />
    <glyph glyph-name="florin" unicode="&#x192;" horiz-adv-x="494" 
d="M184 52q-4 -43 -14.5 -67t-26 -33.5t-33 -8.5t-34 7.5t-31 16t-22.5 15.5q-23 -6 -38.5 -23t-20 -39t3.5 -47t32 -46q54 -37 102 -45t87.5 4.5t70 42t51 68.5t30 84t6.5 89l1 237l79 3q16 9 23 30t5.5 43.5t-10.5 42t-25 24.5l-84 1q-4 50 0 85t12.5 54t20 22t23.5 -9
q15 -32 16 -47.5t1 -21.5q1 -11 20 -12.5t42 3t42 12t19 14.5q0 100 -47.5 146.5t-123.5 46.5q-103 0 -150.5 -72.5t-36.5 -221.5l-86 -3q-21 -7 -27 -30t-3 -47.5t13 -43.5t22 -19h79q7 -66 9.5 -105t3 -64t0 -43t-0.5 -43zM141 55q0 9 0.5 17t0.5 16v30q0 21 -1.5 54
t-7.5 92h-40q-15 0 -29.5 11t-25.5 28.5t-17.5 39.5t-6.5 44q0 33 15.5 61.5t52.5 41.5l47 2v12q0 142 59 212.5t173 70.5q48 0 87 -14t67.5 -43t44 -73.5t15.5 -105.5q0 -11 -12 -22.5t-30 -22t-39.5 -18t-41.5 -9.5q23 -17 35 -46t12 -58q0 -31 -15 -60.5t-45 -47.5
l-48 -1q0 -49 -0.5 -96t-0.5 -97q3 -58 -13 -118t-49 -108.5t-81 -79.5t-109 -31q-37 0 -79 14t-89 46q-27 23 -39 51.5t-12 55.5q0 42 31 77t82 48q7 -5 17.5 -12t21.5 -14t22 -11.5t19 -4.5q9 0 17 14.5t12 54.5z" />
    <glyph glyph-name="ellipsis" unicode="&#x2026;" horiz-adv-x="1010" 
d="M854 37q25 1 43 13.5t27 30t9.5 38t-7.5 38.5t-26 29.5t-46 12.5q-28 -2 -46 -15t-26.5 -31t-8.5 -38t9.5 -37.5t27 -29t44.5 -11.5zM520 37q26 1 43.5 13.5t27 30t10 38t-8 38.5t-26.5 29.5t-46 12.5q-41 -3 -61 -29t-19.5 -55t20.5 -53.5t60 -24.5zM187 37
q26 1 43.5 13.5t27 30t10 38t-8 38.5t-26.5 29.5t-46 12.5q-41 -3 -61 -29t-19.5 -55t21 -53.5t59.5 -24.5zM187 -6q-30 0 -53.5 10.5t-39 27.5t-23.5 39t-8 45q0 22 7.5 43.5t22.5 39t38 29.5t54 14q32 0 55.5 -10.5t39.5 -27.5t23.5 -38.5t7.5 -43.5q0 -23 -8 -45.5
t-23.5 -40.5t-38 -29.5t-52.5 -12.5h-2zM519 -6q-30 0 -53 10.5t-38.5 27.5t-23.5 39t-8 45q0 22 7.5 43.5t22.5 39t38 29.5t53 14q32 0 56 -10.5t39.5 -27.5t23 -38.5t7.5 -43.5q0 -23 -8 -45.5t-23 -40.5t-37.5 -29.5t-52.5 -12.5h-3zM853 -6q-30 0 -53 10.5t-38.5 27.5
t-23.5 39t-8 45q0 22 7.5 43.5t22.5 39t37.5 29.5t53.5 14q32 0 55.5 -10.5t39.5 -27.5t23.5 -38.5t7.5 -43.5q0 -23 -8 -45.5t-23 -40.5t-38 -29.5t-53 -12.5h-2z" />
    <glyph glyph-name="cedilla" unicode="&#xb8;" horiz-adv-x="396" 
d="M81 -246q129 -23 194 15.5t58 129.5q-2 27 -15.5 49.5t-33.5 38.5t-44.5 25t-47.5 9l-3 38q-8 18 -24.5 27t-35.5 9t-36.5 -7.5t-27.5 -22.5l3 -69q-3 -27 6 -40.5t24.5 -18.5t34 -5.5t35.5 -2.5t29.5 -8.5t14.5 -23.5q2 -16 -8 -24.5t-25 -12t-32.5 -3t-31.5 2.5
t-21 4.5t-2 4.5q-9 -9 -17 -20.5t-12 -26t-0.5 -32t18.5 -36.5zM46 -273q-15 21 -21.5 41t-6.5 38q0 32 14 55t30 38q-21 1 -29.5 28.5t-7.5 72.5q-1 17 -2 39t-2 38q20 30 49 45.5t58 15.5q32 0 60.5 -17t43.5 -52v-10q25 -7 49.5 -21t44.5 -34.5t33.5 -46t16.5 -54.5
q6 -95 -47.5 -147.5t-162.5 -52.5q-20 0 -43 2t-49 7z" />
    <glyph glyph-name="exclamdown" unicode="&#xa1;" horiz-adv-x="272" 
d="M51 498.021q17 10.999 38.5 16.999q21.5 5.99902 43.5 4.99902t44 -8.49902q22 -7.5 40 -22.499l7 -463.972q-8 -16.999 -33.5 -24.998q-25.5 -8 -54 -7.5t-53 9.5q-24.5 8.99902 -30.5 24.998zM132 801.002q26 -1 45 -13.999q19 -13 29 -31.998q10 -18.999 11 -40.998
q1 -21.998 -8 -40.4971t-27.5 -30.498q-18.5 -12 -47.5 -12q-28 1 -46.5 14q-18.5 12.999 -27 31.498q-8.5 18.498 -7.5 40.4971t10 40.4971q9 18.499 26.5 30.998q17.5 12.5 42.5 12.5zM132 843.999q-29 0 -52 -11.499q-23 -11.5 -38.5 -29.498
q-15.5 -17.999 -23.5 -41.498q-8 -23.498 -8 -47.4971q0 -22.998 7.5 -45.4971t23 -39.998q15.5 -17.498 38.5 -28.498q23 -10.999 54 -11.999q33 0 56.5 9.99902q23.5 10 39.5 26.999t23.5 38.9971q7.5 21.999 7.5 45.9971q0 23.999 -8 46.9971q-8 22.999 -24 41.998
t-39.5 30.998t-54.5 13.999h-2zM10 21.0488q12 -34.9971 50 -53.4961t80 -18.499q39 0 74.5 16.499t52.5 50.4971l-7 493.97q-34 26.998 -67.5 39.498q-33.5 12.499 -64.5 12.499q-26 0 -57.5 -10q-31.5 -9.99902 -63.5 -31.998z" />
    <glyph glyph-name="questiondown" unicode="&#xbf;" horiz-adv-x="552" 
d="M344.013 801.002q-24.998 -1 -42.9971 -13.499t-26.999 -29.998q-8.99902 -17.499 -9.99902 -37.998q-1 -20.498 7.5 -38.4971q8.49902 -17.999 26.498 -29.498q17.999 -11.5 45.9971 -12.5q27.998 2 45.9971 14.999q17.999 13 26.498 30.999q8.5 17.998 8.5 37.9971
t-9.49902 37.498q-9.5 17.499 -26.999 28.998t-44.4971 11.499zM417.008 501.021q-15.999 11.999 -37.9971 18.999q-21.999 6.99902 -44.4971 7.99902q-22.499 1 -43.498 -4.99902q-20.998 -6 -35.9971 -18.999l0.999023 -62.9961q-34.9971 -7 -69.4951 -22.499
t-61.4961 -39.9971q-26.999 -24.499 -43.998 -58.9971t-16.999 -80.4951q0 -66.9951 27.499 -115.992q27.498 -48.9971 69.4951 -77.4951q41.998 -28.499 92.9951 -35.498q50.9961 -7 97.9932 10.499q46.998 17.499 83.4951 59.4961q36.498 41.998 50.4971 111.993
q8 23.999 -3 43.998q-10.999 19.998 -29.998 30.498q-18.999 10.499 -39.9971 8.99902q-20.999 -1.5 -33.998 -19.499q-4 -30.998 -23.999 -52.4961q-19.998 -21.499 -44.4971 -26.999q-24.498 -5.49902 -47.9971 7.5q-23.498 12.999 -35.498 49.9971
q8 38.9971 29.998 57.4961q21.999 18.499 49.9971 24.998q27.999 6.5 57.4971 6t53.4961 -0.5zM461.006 309.032q34.998 -14.999 56.4961 -49.4971q21.499 -34.498 10.5 -79.4951q-11 -55.9961 -35.498 -96.4941q-24.499 -40.4971 -57.4971 -66.9961
q-32.998 -26.498 -72.4951 -38.9971q-39.498 -12.5 -80.4951 -12.5q-48.9971 0 -95.9941 17.999t-83.9951 52.9971t-59.4961 85.9951q-22.499 50.9971 -22.499 116.992q0 49.9971 15.999 88.4951q15.999 38.4971 42.998 67.4961q26.998 28.998 61.9961 48.4971
q34.998 19.498 71.9951 30.498q0 13.999 -0.5 26.998t-0.5 22.999q28.998 24.998 58.9971 35.9971q29.998 11 58.9961 11q30.998 0 64.9961 -12.5q33.998 -12.499 64.9961 -37.4971zM338.013 273.034q2 1 2.5 2.5t2.5 3.5q-22.999 -2 -42.9971 -10.999
q-19.999 -9 -27.998 -31.998q9.99902 -18.999 22.998 -18.999q13.999 0 26.998 15.499q13 15.499 15.999 40.4971zM345.013 844q29.998 0 52.9971 -10.5q22.998 -10.499 38.4971 -27.498t23.499 -38.998q7.99902 -21.998 7.99902 -44.9971q0 -21.998 -7.49902 -43.4971
q-7.5 -21.499 -22.499 -38.998t-37.498 -29.498q-22.498 -11.999 -53.4961 -13.999q-31.998 0 -55.4971 10.499q-23.498 10.5 -39.4971 27.499t-23.499 38.4971q-7.49902 21.499 -7.49902 43.498q0 22.998 7.99902 45.4971q8 22.498 22.999 40.4971t37.9971 29.498
q22.999 11.5 52.9971 12.5h2z" />
    <glyph glyph-name="macron" unicode="&#xaf;" horiz-adv-x="467" 
d="M338 681q13 4 21.5 26.5t9 48t-7 48t-25.5 28.5l-223 -4q-11 0 -20 -11t-14.5 -27t-6.5 -35t3 -35.5t14 -28t27 -12.5zM115 636q-24 1 -40 10.5t-26.5 25t-15 34.5t-4.5 40q0 22 6 44.5t17.5 40.5t27 29t33.5 11q56 1 114.5 2t114.5 2q37 -11 53.5 -43.5t16.5 -69.5
q0 -20 -5 -39.5t-14 -37t-21.5 -30t-27.5 -17.5z" />
    <glyph glyph-name="macron" unicode="&#x2c9;" horiz-adv-x="467" 
d="M338 681q13 4 21.5 26.5t9 48t-7 48t-25.5 28.5l-223 -4q-11 0 -20 -11t-14.5 -27t-6.5 -35t3 -35.5t14 -28t27 -12.5zM115 636q-24 1 -40 10.5t-26.5 25t-15 34.5t-4.5 40q0 22 6 44.5t17.5 40.5t27 29t33.5 11q56 1 114.5 2t114.5 2q37 -11 53.5 -43.5t16.5 -69.5
q0 -20 -5 -39.5t-14 -37t-21.5 -30t-27.5 -17.5z" />
    <glyph glyph-name="periodcentered" unicode="&#xb7;" horiz-adv-x="255" 
d="M128 358q26 1 43.5 13.5t27 30t10 38t-8 38.5t-26.5 29.5t-46 12.5q-41 -3 -61 -29t-19.5 -55t20.5 -53.5t60 -24.5zM127 315q-30 0 -53 10.5t-38.5 27.5t-23.5 39t-8 45q0 22 7.5 43.5t22.5 39t38 29.5t54 14q32 0 55.5 -10.5t39 -27.5t23 -38.5t7.5 -43.5
q0 -23 -8 -45.5t-23 -40.5t-37.5 -29.5t-52.5 -12.5h-3z" />
    <glyph glyph-name="periodcentered" unicode="&#x2219;" horiz-adv-x="255" 
d="M128 358q26 1 43.5 13.5t27 30t10 38t-8 38.5t-26.5 29.5t-46 12.5q-41 -3 -61 -29t-19.5 -55t20.5 -53.5t60 -24.5zM127 315q-30 0 -53 10.5t-38.5 27.5t-23.5 39t-8 45q0 22 7.5 43.5t22.5 39t38 29.5t54 14q32 0 55.5 -10.5t39 -27.5t23 -38.5t7.5 -43.5
q0 -23 -8 -45.5t-23 -40.5t-37.5 -29.5t-52.5 -12.5h-3z" />
    <glyph glyph-name="bullet" unicode="&#x2022;" horiz-adv-x="528" 
d="M263 242q44 2 75 23t47 52t17 66.5t-13.5 66.5t-46 51.5t-79.5 21.5q-47 -4 -78 -26.5t-46.5 -53.5t-15 -66t16 -65t46.5 -50t77 -20zM263 199q-45 0 -79 15.5t-57 40.5t-34.5 57.5t-11.5 66.5q0 33 11 64.5t33 57.5t56 43.5t79 21.5q47 0 82 -15.5t58 -40.5t34.5 -57
t11.5 -66t-11.5 -67t-34.5 -59.5t-57 -43.5t-78 -18h-2z" />
    <glyph glyph-name="Aacute" unicode="&#xc1;" horiz-adv-x="747" 
d="M323 478q10 49 22 81t25 37.5t25.5 -21t23.5 -93.5zM318 335l109 -3l38 -269q25 -8 50.5 -15t51.5 -8t54.5 6t61.5 27l-193 656q-6 13 -26.5 23.5t-48.5 16t-59.5 5.5t-60 -7t-51 -21.5t-32.5 -37.5l-156 -626q-1 -6 13 -13.5t36 -13.5t49.5 -9t53.5 -1.5t48.5 10
t34.5 25.5zM328 54q-22 -31 -59.5 -42.5t-79.5 -11.5q-34 0 -66.5 8.5t-58 22t-40.5 29.5t-13 31l157 628q11 27 31.5 45.5t46 30.5t54.5 17.5t58 5.5q28 0 56.5 -5.5t52 -15t41 -23.5t25.5 -31l203 -690q-53 -32 -92 -44.5t-70 -12.5q-34 0 -72.5 10t-77.5 23l-37 260
q-5 0 -11.5 0.5t-17.5 0.5q-5 -54 -11 -107t-11 -107zM310 953q-9 -12 -2 -30t23 -31.5t36.5 -17.5t37.5 13l91 143q0 24 -12.5 40.5t-29.5 24t-35.5 5.5t-30.5 -16zM276 978l75 128q15 19 35.5 28.5t40.5 9.5t40.5 -8.5t36.5 -25t26 -40t9 -53.5l-100 -156
q-17 -17 -33 -23.5t-32 -6.5q-26 0 -49.5 16.5t-39 39.5t-19.5 48.5t10 43.5l-3 -5z" />
    <glyph glyph-name="Acircumflex" unicode="&#xc2;" horiz-adv-x="747" 
d="M323 478q10 49 22 81t25 37.5t25.5 -21t23.5 -93.5zM318 335l109 -3l38 -269q25 -8 50.5 -15t51.5 -8t54.5 6t61.5 27l-193 656q-6 13 -26.5 23.5t-48.5 16t-59.5 5.5t-60 -7t-51 -21.5t-32.5 -37.5l-156 -626q-1 -6 13 -13.5t36 -13.5t49.5 -9t53.5 -1.5t48.5 10
t34.5 25.5zM328 54q-22 -31 -59.5 -42.5t-79.5 -11.5q-34 0 -66.5 8.5t-58 22t-40.5 29.5t-13 31l157 628q11 27 31.5 45.5t46 30.5t54.5 17.5t58 5.5q28 0 56.5 -5.5t52 -15t41 -23.5t25.5 -31l203 -690q-53 -32 -92 -44.5t-70 -12.5q-34 0 -72.5 10t-77.5 23l-37 260
q-5 0 -11.5 0.5t-17.5 0.5q-5 -54 -11 -107t-11 -107zM429 1091q-7 11 -24.5 19t-37.5 9.5t-39.5 -5t-30.5 -23.5l-95 -138q6 -23 21 -40t33.5 -26t36.5 -8.5t30 11.5l42 70l35 -63q17 -17 32 -20t28.5 3t23.5 17.5t16.5 24.5t8.5 23.5t-2 14.5zM539 988q10 -12 7 -38
t-17 -52t-36.5 -45.5t-50.5 -19.5q-18 0 -38 9t-40 31h-1q-2 -2 -3 -5t-3 -5q-16 -15 -33 -21.5t-32 -6.5q-19 0 -40 8.5t-40 25t-34 40t-22 52.5l105 154q17 26 44 37t55 11q32 0 62 -14t44 -35z" />
    <glyph glyph-name="Agrave" unicode="&#xc0;" horiz-adv-x="747" 
d="M323 478q10 49 22 81t25 37.5t25.5 -21t23.5 -93.5zM318 335l109 -3l38 -269q25 -8 50.5 -15t51.5 -8t54.5 6t61.5 27l-193 656q-6 13 -26.5 23.5t-48.5 16t-59.5 5.5t-60 -7t-51 -21.5t-32.5 -37.5l-156 -626q-1 -6 13 -13.5t36 -13.5t49.5 -9t53.5 -1.5t48.5 10
t34.5 25.5zM328 54q-22 -31 -59.5 -42.5t-79.5 -11.5q-34 0 -66.5 8.5t-58 22t-40.5 29.5t-13 31l157 628q11 27 31.5 45.5t46 30.5t54.5 17.5t58 5.5q28 0 56.5 -5.5t52 -15t41 -23.5t25.5 -31l203 -690q-53 -32 -92 -44.5t-70 -12.5q-34 0 -72.5 10t-77.5 23l-37 260
q-5 0 -11.5 0.5t-17.5 0.5q-5 -54 -11 -107t-11 -107zM476 969q10 -19 5 -43.5t-20.5 -47t-38 -38t-47.5 -15.5q-17 0 -33 6.5t-33 23.5l-100 156q0 30 9.5 53.5t25.5 40t36.5 25t40.5 8.5t40 -9t35 -26zM361 1078q-12 14 -30.5 16t-36 -5.5t-30 -24t-12.5 -40.5l92 -143
q17 -17 37 -13t36 17.5t23 31.5t-2 30z" />
    <glyph glyph-name="Adieresis" unicode="&#xc4;" horiz-adv-x="747" 
d="M323 478q10 49 22 81t25 37.5t25.5 -21t23.5 -93.5zM318 335l109 -3l38 -269q25 -8 50.5 -15t51.5 -8t54.5 6t61.5 27l-193 656q-6 13 -26.5 23.5t-48.5 16t-59.5 5.5t-60 -7t-51 -21.5t-32.5 -37.5l-156 -626q-1 -6 13 -13.5t36 -13.5t49.5 -9t53.5 -1.5t48.5 10
t34.5 25.5zM328 54q-22 -31 -59.5 -42.5t-79.5 -11.5q-34 0 -66.5 8.5t-58 22t-40.5 29.5t-13 31l157 628q11 27 31.5 45.5t46 30.5t54.5 17.5t58 5.5q28 0 56.5 -5.5t52 -15t41 -23.5t25.5 -31l203 -690q-53 -32 -92 -44.5t-70 -12.5q-34 0 -72.5 10t-77.5 23l-37 260
q-5 0 -11.5 0.5t-17.5 0.5q-5 -54 -11 -107t-11 -107zM484 873q25 1 43 13t27 30t10 38.5t-7.5 38.5t-26.5 29.5t-46 12.5q-27 -2 -45 -15t-27 -31t-8.5 -38.5t9.5 -37.5t26.5 -28.5t44.5 -11.5zM201 866q25 1 43 13t27 30t10 38.5t-8 38.5t-26.5 29.5t-45.5 12.5
q-27 -2 -45.5 -15t-27 -31t-8.5 -38.5t9.5 -37.5t27 -28.5t44.5 -11.5zM200 823q-30 0 -53 10.5t-38.5 27t-23.5 38.5t-8 45q0 22 7.5 44t22.5 39.5t37.5 29.5t53.5 14q32 0 55.5 -10.5t39.5 -27.5t23.5 -38.5t7.5 -44.5t-8 -45t-23.5 -40t-38 -29.5t-52.5 -12.5h-2z
M483 830q-30 0 -53 10.5t-38.5 27t-23.5 38.5t-8 45q0 22 7.5 44t22.5 39.5t38 29.5t53 14q32 0 56 -10.5t39.5 -27.5t23 -38.5t7.5 -44.5t-8 -45t-23 -40t-37.5 -29.5t-52.5 -12.5h-3z" />
    <glyph glyph-name="Aring" unicode="&#xc5;" horiz-adv-x="747" 
d="M344 1000q0 17 9 25t19.5 8t19.5 -8.5t9 -24.5q0 -18 -9 -27t-19.5 -9.5t-19.5 8.5t-9 28zM250 997q0 -47 22.5 -73.5t55.5 -35.5t69.5 -2t63.5 28.5t39 56t-4 79.5q-11 33 -34 52t-50.5 26t-56 1.5t-52 -22.5t-38.5 -44.5t-15 -65.5zM207 997q0 43 15 76t40 55.5
t56 34.5t64 12q49 0 92 -27t63 -83q5 -17 8 -32t3 -30q0 -38 -16 -68.5t-42.5 -51.5t-59 -32.5t-65.5 -11.5q-31 0 -59.5 9.5t-50.5 29t-35 49t-13 70.5zM323 478q10 49 22 81t25 37.5t25.5 -21t23.5 -93.5zM318 335l109 -3l38 -269q25 -8 50.5 -15t51.5 -8t54.5 6t61.5 27
l-193 656q-6 13 -26.5 23.5t-48.5 16t-59.5 5.5t-60 -7t-51 -21.5t-32.5 -37.5l-156 -626q-1 -6 13 -13.5t36 -13.5t49.5 -9t53.5 -1.5t48.5 10t34.5 25.5zM328 54q-22 -31 -59.5 -42.5t-79.5 -11.5q-34 0 -66.5 8.5t-58 22t-40.5 29.5t-13 31l157 628q11 27 31.5 45.5
t46 30.5t54.5 17.5t58 5.5q28 0 56.5 -5.5t52 -15t41 -23.5t25.5 -31l203 -690q-53 -32 -92 -44.5t-70 -12.5q-34 0 -72.5 10t-77.5 23l-37 260q-5 0 -11.5 0.5t-17.5 0.5q-5 -54 -11 -107t-11 -107z" />
    <glyph glyph-name="Atilde" unicode="&#xc3;" horiz-adv-x="747" 
d="M323 478q10 49 22 81t25 37.5t25.5 -21t23.5 -93.5zM318 335l109 -3l38 -269q25 -8 50.5 -15t51.5 -8t54.5 6t61.5 27l-193 656q-6 13 -26.5 23.5t-48.5 16t-59.5 5.5t-60 -7t-51 -21.5t-32.5 -37.5l-156 -626q-1 -6 13 -13.5t36 -13.5t49.5 -9t53.5 -1.5t48.5 10
t34.5 25.5zM328 54q-22 -31 -59.5 -42.5t-79.5 -11.5q-34 0 -66.5 8.5t-58 22t-40.5 29.5t-13 31l157 628q11 27 31.5 45.5t46 30.5t54.5 17.5t58 5.5q28 0 56.5 -5.5t52 -15t41 -23.5t25.5 -31l203 -690q-53 -32 -92 -44.5t-70 -12.5q-34 0 -72.5 10t-77.5 23l-37 260
q-5 0 -11.5 0.5t-17.5 0.5q-5 -54 -11 -107t-11 -107zM247 884q17 37 35 51.5t38 11.5q15 1 29 -10t30.5 -24t36.5 -23t45 -6q10 5 29.5 16.5t40.5 30t39.5 45t26.5 61.5q4 16 -9.5 34t-33 30.5t-39.5 15t-30 -12.5q-2 -12 -5.5 -26.5t-10.5 -26.5t-18 -20t-29 -8
q-16 0 -28 12t-24.5 26t-27.5 26t-38 12q-15 6 -36.5 -6.5t-41.5 -32.5t-35.5 -42t-18.5 -36q-8 -14 -3.5 -38.5t16.5 -44t28.5 -27t33.5 11.5zM279 855q-25 -28 -57 -28q-22 0 -42 20t-33.5 47.5t-17.5 57t5 48.5q7 19 24 43t39.5 45.5t50 37t56.5 16.5q20 0 35 -5
t27 -13.5t22 -19t19 -21.5q5 -7 9.5 -12t5.5 -5q4 0 7.5 5.5t6.5 14t4.5 18t3.5 18.5q14 20 31.5 29t36.5 9q21 0 45.5 -13t44 -33t31 -43t6.5 -44v1q-10 -42 -32 -74t-46.5 -54.5t-48 -36t-36.5 -19.5q-25 -4 -44.5 -1.5t-35 9.5t-28 16.5t-24.5 18.5h1q-9 6 -16 11.5
t-9 5.5q-14 3 -34 -38z" />
    <glyph glyph-name="AE" unicode="&#xc6;" horiz-adv-x="915" 
d="M331 478q6 32 13.5 57.5t15.5 41t16.5 20t17.5 -4.5v-112zM394 54l417 8q11 14 20.5 34.5t13 45t-1 50.5t-22.5 50l-254 -2l-4 138l167 6q10 10 13.5 31t2 42.5t-7.5 38.5t-15 21l-152 4l-9 92l238 4q24 6 36 28t14.5 47.5t-3 48.5t-14.5 31q-125 2 -217.5 2t-158.5 -2.5
t-109 -7.5t-69.5 -12.5t-39.5 -18.5t-19 -25l-157 -626q-1 -6 13 -13.5t36.5 -13.5t50 -9t53.5 -1.5t48.5 10t34.5 25.5l27 255l68 -2v-279zM349 128q-5 -33 -6 -64q-26 -36 -65 -50t-82 -14q-33 0 -65.5 8.5t-58 22t-40.5 29.5t-13 31l158 631q11 26 34 44t71 29.5t129 17
t208 5.5q47 0 107.5 -0.5t122.5 -1.5q20 -17 33.5 -47t13.5 -61q0 -21 -5 -42t-15.5 -39.5t-28 -33t-41.5 -21.5l-194 -4v-3q29 -1 60.5 -2t59.5 -2q13 -5 24 -17t18.5 -28t12 -35t4.5 -38q0 -25 -10 -53t-33 -51l-139 -4v-20.5t1 -29.5q62 0 118.5 0.5t115.5 0.5
q25 -35 36 -65.5t11 -56.5q0 -39 -18 -79t-40 -67l-484 -9v119z" />
    <glyph glyph-name="Ccedilla" unicode="&#xc7;" horiz-adv-x="683" 
d="M274 -155q-2 0 -2 -2q0 2 2 2zM262 -286q147 -26 221 17.5t66 148.5q-2 31 -17.5 56.5t-38.5 43.5t-50.5 28t-54.5 10l-2 28q68 13 131.5 71t109.5 172q-1 20 -13 34.5t-29.5 24t-38.5 13t-39.5 1t-33 -12t-18.5 -26.5q-32 -48 -63 -65.5t-58.5 -13.5t-50 26t-36.5 53
t-18.5 67t4.5 69q6 22 18 46.5t29 45t38.5 34t46 13.5t52.5 -16t57 -55q17 -14 42 -11.5t47.5 15.5t37 33.5t11.5 43.5q-21 73 -65 113t-98.5 52.5t-114 -0.5t-112 -45t-92.5 -80.5t-55 -107.5q-23 -87 -18 -164t29.5 -139.5t66 -107t91.5 -67.5l3 -73q-3 -31 7.5 -46
t27.5 -21t38.5 -6.5t41 -2.5t33 -9.5t16.5 -26.5q2 -17 -7.5 -26.5t-24.5 -14t-33.5 -5t-34.5 1.5t-27 5t-12 5q-10 -10 -19 -23t-12.5 -29.5t0.5 -35.5t21 -41zM226 -313q-17 23 -24.5 45t-7.5 42q0 25 17.5 53.5t41.5 56.5q-26 11 -40.5 36.5t-10.5 73.5q-1 13 -0.5 18.5
t-0.5 22.5q-40 23 -74.5 58.5t-60 82t-40 103t-14.5 121.5q0 68 20 151q15 59 52.5 109t87 86.5t108 57t115.5 20.5q42 0 82 -12t74.5 -37t61.5 -65t44 -95q3 -28 -9.5 -54t-34.5 -46t-49 -32t-53 -12q-18 0 -35.5 5.5t-32.5 18.5q-24 32 -43 45.5t-34 13.5q-16 0 -30.5 -10
t-26 -26t-20.5 -34.5t-13 -35.5h1q-2 -9 -3.5 -17.5t-1.5 -17.5q0 -23 5.5 -45.5t15.5 -40t23.5 -28.5t28.5 -11q14 0 32 13.5t38 42.5q12 32 42 47.5t66 15.5q25 0 51.5 -8.5t47.5 -24.5t34.5 -39t14.5 -53q-38 -94 -86 -153.5t-102 -91.5q42 -24 73.5 -63.5t37.5 -90.5
q7 -106 -53.5 -164.5t-182.5 -58.5q-48 0 -104 10z" />
    <glyph glyph-name="Eacute" unicode="&#xc9;" horiz-adv-x="570" 
d="M56 57l417 8q11 14 20.5 34.5t13 44.5t-1 50t-22.5 50l-254 -1l-4 138l167 5q10 11 13.5 31.5t2 42t-7.5 38.5t-15 21l-152 5l-9 92l238 3q24 7 36 29t14.5 47.5t-2.5 48t-15 30.5l-439 -5v-712zM11 813l499 6q21 -17 34.5 -47.5t13.5 -60.5q0 -21 -5 -42t-15.5 -40
t-28 -33t-41.5 -21l-194 -4v-4q30 0 61 -1t59 -2q13 -5 24 -17t19 -28.5t12 -35.5t4 -37q0 -26 -10 -53.5t-33 -50.5l-139 -4q1 -10 1 -21t1 -30q61 0 118 1t115 1q25 -35 36 -65.5t11 -56.5q0 -40 -18 -79.5t-40 -66.5l-484 -9v801zM225 953q-9 -12 -2 -30t23 -31.5
t36.5 -17.5t37.5 13l91 143q0 24 -12.5 40.5t-29.5 24t-35.5 5.5t-30.5 -16zM191 978l75 128q15 19 35.5 28.5t40.5 9.5t40.5 -8.5t36.5 -25t26 -40t9 -53.5l-100 -156q-17 -17 -33 -23.5t-32 -6.5q-26 0 -49.5 16.5t-39 39.5t-19.5 48.5t10 43.5l-3 -5z" />
    <glyph glyph-name="Edieresis" unicode="&#xcb;" horiz-adv-x="568" 
d="M60 52l417 8q11 14 20.5 34.5t13 44.5t-1 50t-22.5 50l-254 -1l-4 138l167 5q10 11 13.5 31.5t2 42t-7.5 38.5t-15 21l-152 5l-9 92l238 3q24 7 36 29t14.5 47.5t-2.5 48t-15 30.5l-439 -5v-712zM15 808l499 6q21 -17 34.5 -47.5t13.5 -60.5q0 -21 -5 -42t-15.5 -40
t-28 -33t-41.5 -21l-194 -4v-4q30 0 61 -1t59 -2q13 -5 24 -17t19 -28.5t12 -35.5t4 -37q0 -26 -10 -53.5t-33 -50.5l-139 -4q1 -10 1 -21t1 -30q61 0 118 1t115 1q25 -35 36 -65.5t11 -56.5q0 -40 -18 -79.5t-40 -66.5l-484 -9v801zM426 879q25 1 43 13t27 30t10 38.5
t-7.5 38.5t-26.5 29.5t-46 12.5q-27 -2 -45 -15t-27 -31t-8.5 -38.5t9.5 -37.5t26.5 -28.5t44.5 -11.5zM143 872q25 1 43 13t27 30t10 38.5t-8 38.5t-26.5 29.5t-45.5 12.5q-27 -2 -45.5 -15t-27 -31t-8.5 -38.5t9.5 -37.5t27 -28.5t44.5 -11.5zM142 829q-30 0 -53 10.5
t-38.5 27t-23.5 38.5t-8 45q0 22 7.5 44t22.5 39.5t37.5 29.5t53.5 14q32 0 55.5 -10.5t39.5 -27.5t23.5 -38.5t7.5 -44.5t-8 -45t-23.5 -40t-38 -29.5t-52.5 -12.5h-2zM425 836q-30 0 -53 10.5t-38.5 27t-23.5 38.5t-8 45q0 22 7.5 44t22.5 39.5t38 29.5t53 14
q32 0 56 -10.5t39.5 -27.5t23 -38.5t7.5 -44.5t-8 -45t-23 -40t-37.5 -29.5t-52.5 -12.5h-3z" />
    <glyph glyph-name="Ecircumflex" unicode="&#xca;" horiz-adv-x="570" 
d="M56 57l417 8q11 14 20.5 34.5t13 44.5t-1 50t-22.5 50l-254 -1l-4 138l167 5q10 11 13.5 31.5t2 42t-7.5 38.5t-15 21l-152 5l-9 92l238 3q24 7 36 29t14.5 47.5t-2.5 48t-15 30.5l-439 -5v-712zM11 813l499 6q21 -17 34.5 -47.5t13.5 -60.5q0 -21 -5 -42t-15.5 -40
t-28 -33t-41.5 -21l-194 -4v-4q30 0 61 -1t59 -2q13 -5 24 -17t19 -28.5t12 -35.5t4 -37q0 -26 -10 -53.5t-33 -50.5l-139 -4q1 -10 1 -21t1 -30q61 0 118 1t115 1q25 -35 36 -65.5t11 -56.5q0 -40 -18 -79.5t-40 -66.5l-484 -9v801zM344 1091q-7 11 -24.5 19t-37.5 9.5
t-39.5 -5t-30.5 -23.5l-95 -138q6 -23 21 -40t33.5 -26t36.5 -8.5t30 11.5l42 70l35 -63q17 -17 32 -20t28.5 3t23.5 17.5t16.5 24.5t8.5 23.5t-2 14.5zM454 988q10 -12 7 -38t-17 -52t-36.5 -45.5t-50.5 -19.5q-18 0 -38 9t-40 31h-1q-2 -2 -3 -5t-3 -5q-16 -15 -33 -21.5
t-32 -6.5q-19 0 -40 8.5t-40 25t-34 40t-22 52.5l105 154q17 26 44 37t55 11q32 0 62 -14t44 -35z" />
    <glyph glyph-name="Egrave" unicode="&#xc8;" horiz-adv-x="568" 
d="M55 57l417 8q11 14 20.5 34.5t13 44.5t-1 50t-22.5 50l-254 -1l-4 138l167 5q10 11 13.5 31.5t2 42t-7.5 38.5t-15 21l-152 5l-9 92l238 3q24 7 36 29t14.5 47.5t-2.5 48t-15 30.5l-439 -5v-712zM10 813l499 6q21 -17 34.5 -47.5t13.5 -60.5q0 -21 -5 -42t-15.5 -40
t-28 -33t-41.5 -21l-194 -4v-4q30 0 61 -1t59 -2q13 -5 24 -17t19 -28.5t12 -35.5t4 -37q0 -26 -10 -53.5t-33 -50.5l-139 -4q1 -10 1 -21t1 -30q61 0 118 1t115 1q25 -35 36 -65.5t11 -56.5q0 -40 -18 -79.5t-40 -66.5l-484 -9v801zM390 969q10 -19 5 -43.5t-20.5 -47
t-38 -38t-47.5 -15.5q-17 0 -33 6.5t-33 23.5l-100 156q0 30 9.5 53.5t25.5 40t36.5 25t40.5 8.5t40 -9t35 -26zM275 1078q-12 14 -30.5 16t-36 -5.5t-30 -24t-12.5 -40.5l92 -143q17 -17 37 -13t36 17.5t23 31.5t-2 30z" />
    <glyph glyph-name="Iacute" unicode="&#xcd;" horiz-adv-x="548" 
d="M456 54q23 21 28.5 52.5t2 61.5t-12 53t-12.5 28h-119l-3 349l104 -2q21 26 28.5 51t5.5 47.5t-11.5 42.5t-22.5 35l-356 2q-22 -10 -33 -26.5t-13.5 -35.5t1 -38.5t10 -36t14 -28t12.5 -13.5h95l-1 -346l-99 -5q-3 -2 -12.5 -26t-14 -55.5t2.5 -63t36 -47.5zM75 8
q-43 23 -58.5 57t-15.5 72q0 24 7.5 50t17.5 47.5t19.5 36.5t12.5 18l70 4v65t0.5 61t0.5 62v70h-60q-9 4 -21.5 18t-24 34.5t-20 44.5t-8.5 48q0 35 18.5 68.5t63.5 53.5l387 -2q26 -30 42 -63.5t16 -68.5q0 -28 -12.5 -61t-44.5 -72l-81 2q0 -34 0.5 -65t1.5 -61.5
t1.5 -63t0.5 -69.5h93q6 -6 14.5 -22t16.5 -37.5t14 -46t6 -47.5q0 -34 -12.5 -67.5t-46.5 -64.5zM198 953q-9 -12 -2 -30t23 -31.5t36.5 -17.5t37.5 13l91 143q0 24 -12.5 40.5t-29.5 24t-35.5 5.5t-30.5 -16zM164 978l75 128q15 19 35.5 28.5t40.5 9.5t40.5 -8.5t36.5 -25
t26 -40t9 -53.5l-100 -156q-17 -17 -33 -23.5t-32 -6.5q-26 0 -49.5 16.5t-39 39.5t-19.5 48.5t10 43.5l-3 -5z" />
    <glyph glyph-name="Icircumflex" unicode="&#xce;" horiz-adv-x="544" 
d="M456 54q23 21 28.5 52.5t2 61.5t-12 53t-12.5 28h-119l-3 349l104 -2q21 26 28.5 51t5.5 47.5t-11.5 42.5t-22.5 35l-356 2q-22 -10 -33 -26.5t-13.5 -35.5t1 -38.5t10 -36t14 -28t12.5 -13.5h95l-1 -346l-99 -5q-3 -2 -12.5 -26t-14 -55.5t2.5 -63t36 -47.5zM75 8
q-43 23 -58.5 57t-15.5 72q0 24 7.5 50t17.5 47.5t19.5 36.5t12.5 18l70 4v65t0.5 61t0.5 62v70h-60q-9 4 -21.5 18t-24 34.5t-20 44.5t-8.5 48q0 35 18.5 68.5t63.5 53.5l387 -2q26 -30 42 -63.5t16 -68.5q0 -28 -12.5 -61t-44.5 -72l-81 2q0 -34 0.5 -65t1.5 -61.5
t1.5 -63t0.5 -69.5h93q6 -6 14.5 -22t16.5 -37.5t14 -46t6 -47.5q0 -34 -12.5 -67.5t-46.5 -64.5zM317 1091q-7 11 -24.5 19t-37.5 9.5t-39.5 -5t-30.5 -23.5l-95 -138q6 -23 21 -40t33.5 -26t36.5 -8.5t30 11.5l42 70l35 -63q17 -17 32 -20t28.5 3t23.5 17.5t16.5 24.5
t8.5 23.5t-2 14.5zM427 988q10 -12 7 -38t-17 -52t-36.5 -45.5t-50.5 -19.5q-18 0 -38 9t-40 31h-1q-2 -2 -3 -5t-3 -5q-16 -15 -33 -21.5t-32 -6.5q-19 0 -40 8.5t-40 25t-34 40t-22 52.5l105 154q17 26 44 37t55 11q32 0 62 -14t44 -35z" />
    <glyph glyph-name="Idieresis" unicode="&#xcf;" horiz-adv-x="570" 
d="M456 54q23 21 28.5 52.5t2 61.5t-12 53t-12.5 28h-119l-3 349l104 -2q21 26 28.5 51t5.5 47.5t-11.5 42.5t-22.5 35l-356 2q-22 -10 -33 -26.5t-13.5 -35.5t1 -38.5t10 -36t14 -28t12.5 -13.5h95l-1 -346l-99 -5q-3 -2 -12.5 -26t-14 -55.5t2.5 -63t36 -47.5zM75 8
q-43 23 -58.5 57t-15.5 72q0 24 7.5 50t17.5 47.5t19.5 36.5t12.5 18l70 4v65t0.5 61t0.5 62v70h-60q-9 4 -21.5 18t-24 34.5t-20 44.5t-8.5 48q0 35 18.5 68.5t63.5 53.5l387 -2q26 -30 42 -63.5t16 -68.5q0 -28 -12.5 -61t-44.5 -72l-81 2q0 -34 0.5 -65t1.5 -61.5
t1.5 -63t0.5 -69.5h93q6 -6 14.5 -22t16.5 -37.5t14 -46t6 -47.5q0 -34 -12.5 -67.5t-46.5 -64.5zM408 879q25 1 43 13t27 30t10 38.5t-7.5 38.5t-26.5 29.5t-46 12.5q-27 -2 -45 -15t-27 -31t-8.5 -38.5t9.5 -37.5t26.5 -28.5t44.5 -11.5zM125 872q25 1 43 13t27 30
t10 38.5t-8 38.5t-26.5 29.5t-45.5 12.5q-27 -2 -45.5 -15t-27 -31t-8.5 -38.5t9.5 -37.5t27 -28.5t44.5 -11.5zM124 829q-30 0 -53 10.5t-38.5 27t-23.5 38.5t-8 45q0 22 7.5 44t22.5 39.5t37.5 29.5t53.5 14q32 0 55.5 -10.5t39.5 -27.5t23.5 -38.5t7.5 -44.5t-8 -45
t-23.5 -40t-38 -29.5t-52.5 -12.5h-2zM407 836q-30 0 -53 10.5t-38.5 27t-23.5 38.5t-8 45q0 22 7.5 44t22.5 39.5t38 29.5t53 14q32 0 56 -10.5t39.5 -27.5t23 -38.5t7.5 -44.5t-8 -45t-23 -40t-37.5 -29.5t-52.5 -12.5h-3z" />
    <glyph glyph-name="Igrave" unicode="&#xcc;" horiz-adv-x="544" 
d="M456 54q23 21 28.5 52.5t2 61.5t-12 53t-12.5 28h-119l-3 349l104 -2q21 26 28.5 51t5.5 47.5t-11.5 42.5t-22.5 35l-356 2q-22 -10 -33 -26.5t-13.5 -35.5t1 -38.5t10 -36t14 -28t12.5 -13.5h95l-1 -346l-99 -5q-3 -2 -12.5 -26t-14 -55.5t2.5 -63t36 -47.5zM75 8
q-43 23 -58.5 57t-15.5 72q0 24 7.5 50t17.5 47.5t19.5 36.5t12.5 18l70 4v65t0.5 61t0.5 62v70h-60q-9 4 -21.5 18t-24 34.5t-20 44.5t-8.5 48q0 35 18.5 68.5t63.5 53.5l387 -2q26 -30 42 -63.5t16 -68.5q0 -28 -12.5 -61t-44.5 -72l-81 2q0 -34 0.5 -65t1.5 -61.5
t1.5 -63t0.5 -69.5h93q6 -6 14.5 -22t16.5 -37.5t14 -46t6 -47.5q0 -34 -12.5 -67.5t-46.5 -64.5zM364 969q10 -19 5 -43.5t-20.5 -47t-38 -38t-47.5 -15.5q-17 0 -33 6.5t-33 23.5l-100 156q0 30 9.5 53.5t25.5 40t36.5 25t40.5 8.5t40 -9t35 -26zM249 1078
q-12 14 -30.5 16t-36 -5.5t-30 -24t-12.5 -40.5l92 -143q17 -17 37 -13t36 17.5t23 31.5t-2 30z" />
    <glyph glyph-name="Ntilde" unicode="&#xd1;" horiz-adv-x="684" 
d="M61 54q10 -10 39 -15.5t63 -6.5t66.5 2t48.5 11l7 287l125 -268q6 -8 32.5 -16.5t60 -10.5t67 7t53.5 35l7 678q-11 9 -42 15.5t-67 8t-70.5 -3.5t-53.5 -19l12 -381l-154 378q-20 10 -49 12.5t-58.5 -0.5t-55 -11t-38.5 -20zM9 757q15 13 35 23.5t42.5 18t46.5 11.5
t46 4q27 0 55.5 -6t55.5 -20l66 -165q-2 39 -2.5 80t-1.5 78q32 23 73.5 34t79.5 11q24 0 48.5 -3.5t47.5 -10.5t42.5 -16t31.5 -20l-8 -712q-31 -41 -71.5 -56.5t-80.5 -15.5q-24 0 -47.5 4.5t-43 11.5t-33.5 16t-19 17l-47 102q-1 -33 -1.5 -65t-1.5 -61
q-32 -15 -68.5 -22.5t-70.5 -7.5q-23 0 -47.5 3t-47 9.5t-41.5 16t-31 21.5zM223 884q17 37 35 51.5t38 11.5q15 1 29 -10t30.5 -24t36.5 -23t45 -6q10 5 29.5 16.5t40.5 30t39.5 45t26.5 61.5q4 16 -9.5 34t-33 30.5t-39.5 15t-30 -12.5q-2 -12 -5.5 -26.5t-10.5 -26.5
t-18 -20t-29 -8q-16 0 -28 12t-24.5 26t-27.5 26t-38 12q-15 6 -36.5 -6.5t-41.5 -32.5t-35.5 -42t-18.5 -36q-8 -14 -3.5 -38.5t16.5 -44t28.5 -27t33.5 11.5zM255 855q-25 -28 -57 -28q-22 0 -42 20t-33.5 47.5t-17.5 57t5 48.5q7 19 24 43t39.5 45.5t50 37t56.5 16.5
q20 0 35 -5t27 -13.5t22 -19t19 -21.5q5 -7 9.5 -12t5.5 -5q4 0 7.5 5.5t6.5 14t4.5 18t3.5 18.5q14 20 31.5 29t36.5 9q21 0 45.5 -13t44 -33t31 -43t6.5 -44v1q-10 -42 -32 -74t-46.5 -54.5t-48 -36t-36.5 -19.5q-25 -4 -44.5 -1.5t-35 9.5t-28 16.5t-24.5 18.5h1
q-9 6 -16 11.5t-9 5.5q-14 3 -34 -38z" />
    <glyph glyph-name="Oacute" unicode="&#xd3;" 
d="M302 233q-26 4 -39 33t-14.5 69t6 85t22.5 81.5t36 58t46 15.5q19 -6 30.5 -33.5t15 -66t-1 -81t-17.5 -78.5t-34 -60t-50 -23zM52 377q0 -69 19 -130t53.5 -106.5t81.5 -71.5t104 -26q70 6 124 40.5t91.5 87.5t59 119t26.5 133.5t-7 132t-40.5 114.5t-74.5 80t-109 30
q-68 0 -127.5 -29.5t-104 -83t-70.5 -127.5t-26 -163zM7 377q0 99 29.5 181.5t80.5 141.5t118.5 91.5t144.5 32.5q70 0 122 -29.5t86.5 -80t51.5 -116t17 -136.5q0 -79 -21.5 -159t-64.5 -145.5t-107.5 -109t-149.5 -50.5q-68 0 -124 29.5t-97 81t-63.5 120.5t-22.5 148z
M348 532q-9 0 -18 -16.5t-17 -42t-13.5 -57t-7 -60t2 -50.5t13.5 -29h-2q12 -2 22 13.5t18 41t12.5 56.5t5.5 60t-3 52t-13 32zM267 953q-9 -12 -2 -30t23 -31.5t36.5 -17.5t37.5 13l91 143q0 24 -12.5 40.5t-29.5 24t-35.5 5.5t-30.5 -16zM233 978l75 128q15 19 35.5 28.5
t40.5 9.5t40.5 -8.5t36.5 -25t26 -40t9 -53.5l-100 -156q-17 -17 -33 -23.5t-32 -6.5q-26 0 -49.5 16.5t-39 39.5t-19.5 48.5t10 43.5l-3 -5z" />
    <glyph glyph-name="Obreve" unicode="&#x14e;" 
d="M182 1016q9 -39 34.5 -66t60 -41.5t73.5 -15.5t74 12t62.5 41t39.5 72q1 18 -6 32.5t-19.5 23t-29 10t-34.5 -5.5q-14 -36 -38.5 -51t-50 -13t-46.5 17.5t-26 39.5q-20 14 -38 10.5t-31.5 -15t-20.5 -26.5t-4 -24zM142 1002q-4 12 2 33t20 41t34.5 34.5t45.5 14.5
q27 0 71 -29q3 -18 14 -28.5t25 -10.5q12 0 25 13t24 42q19 7 35 11t27 4q22 0 42 -8.5t34 -23.5t21.5 -36t6.5 -46q-11 -42 -33 -73t-50.5 -51t-62.5 -30t-68 -10q-36 0 -70.5 10.5t-64 30.5t-50.5 49t-30 67zM302 233q-26 4 -39 33t-14.5 69t6 85t22.5 81.5t36 58t46 15.5
q19 -6 30.5 -33.5t15 -66t-1 -81t-17.5 -78.5t-34 -60t-50 -23zM52 377q0 -69 19 -130t53.5 -106.5t81.5 -71.5t104 -26q70 6 124 40.5t91.5 87.5t59 119t26.5 133.5t-7 132t-40.5 114.5t-74.5 80t-109 30q-68 0 -127.5 -29.5t-104 -83t-70.5 -127.5t-26 -163zM7 377
q0 99 29.5 181.5t80.5 141.5t118.5 91.5t144.5 32.5q70 0 122 -29.5t86.5 -80t51.5 -116t17 -136.5q0 -79 -21.5 -159t-64.5 -145.5t-107.5 -109t-149.5 -50.5q-68 0 -124 29.5t-97 81t-63.5 120.5t-22.5 148zM348 532q-9 0 -18 -16.5t-17 -42t-13.5 -57t-7 -60t2 -50.5
t13.5 -29h-2q12 -2 22 13.5t18 41t12.5 56.5t5.5 60t-3 52t-13 32z" />
    <glyph glyph-name="Ocircumflex" unicode="&#xd4;" 
d="M302 233q-26 4 -39 33t-14.5 69t6 85t22.5 81.5t36 58t46 15.5q19 -6 30.5 -33.5t15 -66t-1 -81t-17.5 -78.5t-34 -60t-50 -23zM52 377q0 -69 19 -130t53.5 -106.5t81.5 -71.5t104 -26q70 6 124 40.5t91.5 87.5t59 119t26.5 133.5t-7 132t-40.5 114.5t-74.5 80t-109 30
q-68 0 -127.5 -29.5t-104 -83t-70.5 -127.5t-26 -163zM7 377q0 99 29.5 181.5t80.5 141.5t118.5 91.5t144.5 32.5q70 0 122 -29.5t86.5 -80t51.5 -116t17 -136.5q0 -79 -21.5 -159t-64.5 -145.5t-107.5 -109t-149.5 -50.5q-68 0 -124 29.5t-97 81t-63.5 120.5t-22.5 148z
M348 532q-9 0 -18 -16.5t-17 -42t-13.5 -57t-7 -60t2 -50.5t13.5 -29h-2q12 -2 22 13.5t18 41t12.5 56.5t5.5 60t-3 52t-13 32zM386 1091q-7 11 -24.5 19t-37.5 9.5t-39.5 -5t-30.5 -23.5l-95 -138q6 -23 21 -40t33.5 -26t36.5 -8.5t30 11.5l42 70l35 -63q17 -17 32 -20
t28.5 3t23.5 17.5t16.5 24.5t8.5 23.5t-2 14.5zM496 988q10 -12 7 -38t-17 -52t-36.5 -45.5t-50.5 -19.5q-18 0 -38 9t-40 31h-1q-2 -2 -3 -5t-3 -5q-16 -15 -33 -21.5t-32 -6.5q-19 0 -40 8.5t-40 25t-34 40t-22 52.5l105 154q17 26 44 37t55 11q32 0 62 -14t44 -35z" />
    <glyph glyph-name="Odieresis" unicode="&#xd6;" 
d="M302 233q-26 4 -39 33t-14.5 69t6 85t22.5 81.5t36 58t46 15.5q19 -6 30.5 -33.5t15 -66t-1 -81t-17.5 -78.5t-34 -60t-50 -23zM52 377q0 -69 19 -130t53.5 -106.5t81.5 -71.5t104 -26q70 6 124 40.5t91.5 87.5t59 119t26.5 133.5t-7 132t-40.5 114.5t-74.5 80t-109 30
q-68 0 -127.5 -29.5t-104 -83t-70.5 -127.5t-26 -163zM7 377q0 99 29.5 181.5t80.5 141.5t118.5 91.5t144.5 32.5q70 0 122 -29.5t86.5 -80t51.5 -116t17 -136.5q0 -79 -21.5 -159t-64.5 -145.5t-107.5 -109t-149.5 -50.5q-68 0 -124 29.5t-97 81t-63.5 120.5t-22.5 148z
M348 532q-9 0 -18 -16.5t-17 -42t-13.5 -57t-7 -60t2 -50.5t13.5 -29h-2q12 -2 22 13.5t18 41t12.5 56.5t5.5 60t-3 52t-13 32zM508 879q25 1 43 13t27 30t10 38.5t-7.5 38.5t-26.5 29.5t-46 12.5q-27 -2 -45 -15t-27 -31t-8.5 -38.5t9.5 -37.5t26.5 -28.5t44.5 -11.5z
M225 872q25 1 43 13t27 30t10 38.5t-8 38.5t-26.5 29.5t-45.5 12.5q-27 -2 -45.5 -15t-27 -31t-8.5 -38.5t9.5 -37.5t27 -28.5t44.5 -11.5zM224 829q-30 0 -53 10.5t-38.5 27t-23.5 38.5t-8 45q0 22 7.5 44t22.5 39.5t37.5 29.5t53.5 14q32 0 55.5 -10.5t39.5 -27.5
t23.5 -38.5t7.5 -44.5t-8 -45t-23.5 -40t-38 -29.5t-52.5 -12.5h-2zM507 836q-30 0 -53 10.5t-38.5 27t-23.5 38.5t-8 45q0 22 7.5 44t22.5 39.5t38 29.5t53 14q32 0 56 -10.5t39.5 -27.5t23 -38.5t7.5 -44.5t-8 -45t-23 -40t-37.5 -29.5t-52.5 -12.5h-3z" />
    <glyph glyph-name="Ograve" unicode="&#xd2;" 
d="M302 233q-26 4 -39 33t-14.5 69t6 85t22.5 81.5t36 58t46 15.5q19 -6 30.5 -33.5t15 -66t-1 -81t-17.5 -78.5t-34 -60t-50 -23zM52 377q0 -69 19 -130t53.5 -106.5t81.5 -71.5t104 -26q70 6 124 40.5t91.5 87.5t59 119t26.5 133.5t-7 132t-40.5 114.5t-74.5 80t-109 30
q-68 0 -127.5 -29.5t-104 -83t-70.5 -127.5t-26 -163zM7 377q0 99 29.5 181.5t80.5 141.5t118.5 91.5t144.5 32.5q70 0 122 -29.5t86.5 -80t51.5 -116t17 -136.5q0 -79 -21.5 -159t-64.5 -145.5t-107.5 -109t-149.5 -50.5q-68 0 -124 29.5t-97 81t-63.5 120.5t-22.5 148z
M348 532q-9 0 -18 -16.5t-17 -42t-13.5 -57t-7 -60t2 -50.5t13.5 -29h-2q12 -2 22 13.5t18 41t12.5 56.5t5.5 60t-3 52t-13 32zM433 969q10 -19 5 -43.5t-20.5 -47t-38 -38t-47.5 -15.5q-17 0 -33 6.5t-33 23.5l-100 156q0 30 9.5 53.5t25.5 40t36.5 25t40.5 8.5t40 -9
t35 -26zM318 1078q-12 14 -30.5 16t-36 -5.5t-30 -24t-12.5 -40.5l92 -143q17 -17 37 -13t36 17.5t23 31.5t-2 30z" />
    <glyph glyph-name="Oslash" unicode="&#xd8;" 
d="M633 716q-2 25 -15.5 43.5t-33 28.5t-43 9.5t-45.5 -13.5l-17 -25q-39 21 -91 21q-68 0 -127.5 -29.5t-104 -83t-70.5 -127.5t-26 -163q0 -52 10.5 -99t30.5 -87l-60 -90q12 -20 30 -33t39 -18.5t44 -2t44 17.5l7 9q53 -31 114 -31q67 5 119.5 37.5t89.5 82t59.5 111.5
t30 127t-1 128t-31.5 115zM636 639q15 -41 22 -85.5t7 -91.5q0 -80 -21.5 -159.5t-64.5 -145t-107.5 -109t-149.5 -50.5q-61 0 -113 23q-38 -19 -72 -19q-42 0 -81.5 26.5t-67.5 74.5l61 92q-33 81 -33 182q0 99 29.5 181.5t80 141.5t118 91.5t144.5 32.5q20 0 38 -2t36 -7
l1 1q43 26 80 26q25 0 48.5 -10t42 -28t30.5 -43.5t14 -56.5z" />
    <glyph glyph-name="Otilde" unicode="&#xd5;" 
d="M302 233q-26 4 -39 33t-14.5 69t6 85t22.5 81.5t36 58t46 15.5q19 -6 30.5 -33.5t15 -66t-1 -81t-17.5 -78.5t-34 -60t-50 -23zM52 377q0 -69 19 -130t53.5 -106.5t81.5 -71.5t104 -26q70 6 124 40.5t91.5 87.5t59 119t26.5 133.5t-7 132t-40.5 114.5t-74.5 80t-109 30
q-68 0 -127.5 -29.5t-104 -83t-70.5 -127.5t-26 -163zM7 377q0 99 29.5 181.5t80.5 141.5t118.5 91.5t144.5 32.5q70 0 122 -29.5t86.5 -80t51.5 -116t17 -136.5q0 -79 -21.5 -159t-64.5 -145.5t-107.5 -109t-149.5 -50.5q-68 0 -124 29.5t-97 81t-63.5 120.5t-22.5 148z
M348 532q-9 0 -18 -16.5t-17 -42t-13.5 -57t-7 -60t2 -50.5t13.5 -29h-2q12 -2 22 13.5t18 41t12.5 56.5t5.5 60t-3 52t-13 32zM204 884q17 37 35 51.5t38 11.5q15 1 29 -10t30.5 -24t36.5 -23t45 -6q10 5 29.5 16.5t40.5 30t39.5 45t26.5 61.5q4 16 -9.5 34t-33 30.5
t-39.5 15t-30 -12.5q-2 -12 -5.5 -26.5t-10.5 -26.5t-18 -20t-29 -8q-16 0 -28 12t-24.5 26t-27.5 26t-38 12q-15 6 -36.5 -6.5t-41.5 -32.5t-35.5 -42t-18.5 -36q-8 -14 -3.5 -38.5t16.5 -44t28.5 -27t33.5 11.5zM236 855q-25 -28 -57 -28q-22 0 -42 20t-33.5 47.5
t-17.5 57t5 48.5q7 19 24 43t39.5 45.5t50 37t56.5 16.5q20 0 35 -5t27 -13.5t22 -19t19 -21.5q5 -7 9.5 -12t5.5 -5q4 0 7.5 5.5t6.5 14t4.5 18t3.5 18.5q14 20 31.5 29t36.5 9q21 0 45.5 -13t44 -33t31 -43t6.5 -44v1q-10 -42 -32 -74t-46.5 -54.5t-48 -36t-36.5 -19.5
q-25 -4 -44.5 -1.5t-35 9.5t-28 16.5t-24.5 18.5h1q-9 6 -16 11.5t-9 5.5q-14 3 -34 -38z" />
    <glyph glyph-name="OE" unicode="&#x152;" horiz-adv-x="844" 
d="M312 233q-20 2 -31 21.5t-15 49t-1 65t11 70t20.5 64.5t28.5 49v-318q-5 -1 -13 -1zM338 775q-59 -11 -109.5 -44t-87.5 -85t-58.5 -120t-21.5 -149q0 -69 18.5 -127.5t51.5 -100.5t80 -65.5t104 -23.5l427 5q11 14 20.5 34.5t13 44.5t-1 50t-22.5 50l-254 -1l-4 138
l167 5q10 11 13.5 31.5t2 42t-7.5 38.5t-15 21l-152 5l-9 92l238 3q24 7 36 29t14.5 47.5t-3 48t-14.5 30.5zM780 819q20 -17 33.5 -47t13.5 -61q0 -21 -5 -42t-15.5 -40t-28 -33t-41.5 -21l-194 -4v-4q29 0 60.5 -1t59.5 -2q13 -5 24 -17t18.5 -28.5t12 -35.5t4.5 -37
q0 -26 -10 -53.5t-33 -50.5l-139 -4q1 -10 1 -21v-30q62 0 119 1t115 1q25 -35 36 -65.5t11 -56.5q0 -40 -18 -79.5t-40 -66.5l-449 -6q-67 0 -122 27t-94 75t-60.5 114.5t-21.5 145.5q0 89 24.5 165t67.5 133.5t101 95t125 49.5zM309 339q0 -25 1.5 -42.5t6.5 -19.5h-1
l-36 -43v318l79 -28q-11 -13 -20.5 -34t-16 -46t-10 -52.5t-3.5 -52.5z" />
    <glyph glyph-name="Scaron" unicode="&#x160;" horiz-adv-x="552" 
d="M413 1027q4 4 2 15t-8.5 24t-16.5 24.5t-23.5 17.5t-29 2.5t-31.5 -20.5l-35 -63l-42 71q-12 11 -30 11t-36.5 -8.5t-33.5 -25.5t-21 -41l95 -137q11 -17 30.5 -23.5t39.5 -5t37.5 9t24.5 19.5zM372 873q-14 -20 -44 -34t-62 -14q-28 0 -55 10.5t-44 36.5
q-23 35 -52.5 77.5t-52.5 77.5q7 29 22 52.5t34 39.5t40 24.5t40 8.5q15 0 32 -6.5t34 -21.5l6 -10q20 23 40 32t38 9q28 0 50.5 -16t37 -38t20 -43.5t-0.5 -32.5l-5 -19zM74 285q-17 -9 -25 -38t-6 -65t14.5 -72.5t37.5 -59.5q56 -4 119 -3t121 17.5t104 53.5t68 106
q9 51 -1.5 84t-33 55t-53 36t-60.5 28t-55.5 30.5t-38.5 42.5q-2 37 17.5 60.5t49.5 32.5t64 3t61 -26q28 18 40 42t14.5 50t-1.5 51t-10 43q-31 16 -73.5 18t-88 -9t-91.5 -34t-86 -56.5t-69.5 -77t-42.5 -94.5q-9 -50 9.5 -81.5t49 -52t65.5 -33t60 -24.5q23 -16 25 -28
t-9.5 -20t-34 -11t-48 -1t-50.5 10t-42 23zM102 319q16 -15 40 -19q-26 11 -51 25.5t-45 35.5t-32.5 49t-12.5 66q0 9 1 18.5t3 18.5q18 70 63 126.5t103 96.5t122.5 61.5t121.5 21.5q58 0 123 -33q8 -24 13.5 -52.5t5.5 -54.5q0 -41 -21.5 -83.5t-81.5 -79.5
q-24 19 -45.5 28t-37.5 9q-23 0 -42 -9t-20 -32q12 -14 35.5 -27t48.5 -24q30 -13 59 -28.5t52 -37.5t37.5 -53t14.5 -76q0 -11 -1.5 -25t-4.5 -30q-21 -66 -60 -106.5t-88.5 -63.5t-106 -31t-112.5 -8q-23 0 -54.5 1t-52.5 3q-20 19 -35 42.5t-24.5 48.5t-14 50t-4.5 48
q0 44 14 79.5t41 49.5z" />
    <glyph glyph-name="Uacute" unicode="&#xda;" horiz-adv-x="608" 
d="M67 281q9 -44 21.5 -86.5t34.5 -75.5t55.5 -53.5t84.5 -20.5q58 1 104.5 11.5t81 38.5t58.5 77t37 126t15.5 186t-5.5 257q-15 27 -43.5 34t-57.5 3.5t-51 -13t-24 -16.5q4 -139 4 -235t-5.5 -156t-18 -87t-33.5 -29q-25 5 -38 30t-18.5 63.5t-5.5 88t2 104.5t3 111.5
t-2 109.5q-14 24 -46.5 29.5t-67 0t-62 -16.5t-32.5 -20q-1 -43 -3.5 -90t-3.5 -102.5t2 -121.5t14 -147zM23 275q-17 118 -15.5 237.5t6.5 243.5q5 10 23 22t42.5 22.5t53 17.5t55.5 7q36 0 68.5 -14t54.5 -50q5 -78 0.5 -157.5t-4.5 -168.5q0 -53 4 -91.5t15 -52.5
q4 17 6.5 49.5t3.5 73.5t1 87.5t-0.5 92.5t-1.5 88t-2 73q3 9 16.5 21t33.5 22.5t43.5 18t47.5 7.5q35 0 68 -15t56 -56q3 -56 4.5 -111.5t1.5 -100.5q0 -113 -9 -197t-27.5 -143.5t-46.5 -98t-66 -61t-86 -31.5t-106 -10q-65 0 -106 23.5t-67.5 62t-41 87t-25.5 99.5v3z
M240 953q-9 -12 -2 -30t23 -31.5t36.5 -17.5t37.5 13l91 143q0 24 -12.5 40.5t-29.5 24t-35.5 5.5t-30.5 -16zM206 978l75 128q15 19 35.5 28.5t40.5 9.5t40.5 -8.5t36.5 -25t26 -40t9 -53.5l-100 -156q-17 -17 -33 -23.5t-32 -6.5q-26 0 -49.5 16.5t-39 39.5t-19.5 48.5
t10 43.5l-3 -5z" />
    <glyph glyph-name="Ucircumflex" unicode="&#xdb;" horiz-adv-x="608" 
d="M67 281q9 -44 21.5 -86.5t34.5 -75.5t55.5 -53.5t84.5 -20.5q58 1 104.5 11.5t81 38.5t58.5 77t37 126t15.5 186t-5.5 257q-15 27 -43.5 34t-57.5 3.5t-51 -13t-24 -16.5q4 -139 4 -235t-5.5 -156t-18 -87t-33.5 -29q-25 5 -38 30t-18.5 63.5t-5.5 88t2 104.5t3 111.5
t-2 109.5q-14 24 -46.5 29.5t-67 0t-62 -16.5t-32.5 -20q-1 -43 -3.5 -90t-3.5 -102.5t2 -121.5t14 -147zM23 275q-17 118 -15.5 237.5t6.5 243.5q5 10 23 22t42.5 22.5t53 17.5t55.5 7q36 0 68.5 -14t54.5 -50q5 -78 0.5 -157.5t-4.5 -168.5q0 -53 4 -91.5t15 -52.5
q4 17 6.5 49.5t3.5 73.5t1 87.5t-0.5 92.5t-1.5 88t-2 73q3 9 16.5 21t33.5 22.5t43.5 18t47.5 7.5q35 0 68 -15t56 -56q3 -56 4.5 -111.5t1.5 -100.5q0 -113 -9 -197t-27.5 -143.5t-46.5 -98t-66 -61t-86 -31.5t-106 -10q-65 0 -106 23.5t-67.5 62t-41 87t-25.5 99.5v3z
M359 1091q-7 11 -24.5 19t-37.5 9.5t-39.5 -5t-30.5 -23.5l-95 -138q6 -23 21 -40t33.5 -26t36.5 -8.5t30 11.5l42 70l35 -63q17 -17 32 -20t28.5 3t23.5 17.5t16.5 24.5t8.5 23.5t-2 14.5zM469 988q10 -12 7 -38t-17 -52t-36.5 -45.5t-50.5 -19.5q-18 0 -38 9t-40 31h-1
q-2 -2 -3 -5t-3 -5q-16 -15 -33 -21.5t-32 -6.5q-19 0 -40 8.5t-40 25t-34 40t-22 52.5l105 154q17 26 44 37t55 11q32 0 62 -14t44 -35z" />
    <glyph glyph-name="Udieresis" unicode="&#xdc;" horiz-adv-x="608" 
d="M67 281q9 -44 21.5 -86.5t34.5 -75.5t55.5 -53.5t84.5 -20.5q58 1 104.5 11.5t81 38.5t58.5 77t37 126t15.5 186t-5.5 257q-15 27 -43.5 34t-57.5 3.5t-51 -13t-24 -16.5q4 -139 4 -235t-5.5 -156t-18 -87t-33.5 -29q-25 5 -38 30t-18.5 63.5t-5.5 88t2 104.5t3 111.5
t-2 109.5q-14 24 -46.5 29.5t-67 0t-62 -16.5t-32.5 -20q-1 -43 -3.5 -90t-3.5 -102.5t2 -121.5t14 -147zM23 275q-17 118 -15.5 237.5t6.5 243.5q5 10 23 22t42.5 22.5t53 17.5t55.5 7q36 0 68.5 -14t54.5 -50q5 -78 0.5 -157.5t-4.5 -168.5q0 -53 4 -91.5t15 -52.5
q4 17 6.5 49.5t3.5 73.5t1 87.5t-0.5 92.5t-1.5 88t-2 73q3 9 16.5 21t33.5 22.5t43.5 18t47.5 7.5q35 0 68 -15t56 -56q3 -56 4.5 -111.5t1.5 -100.5q0 -113 -9 -197t-27.5 -143.5t-46.5 -98t-66 -61t-86 -31.5t-106 -10q-65 0 -106 23.5t-67.5 62t-41 87t-25.5 99.5v3z
M452 879q25 1 43 13t27 30t10 38.5t-7.5 38.5t-26.5 29.5t-46 12.5q-27 -2 -45 -15t-27 -31t-8.5 -38.5t9.5 -37.5t26.5 -28.5t44.5 -11.5zM169 872q25 1 43 13t27 30t10 38.5t-8 38.5t-26.5 29.5t-45.5 12.5q-27 -2 -45.5 -15t-27 -31t-8.5 -38.5t9.5 -37.5t27 -28.5
t44.5 -11.5zM168 829q-30 0 -53 10.5t-38.5 27t-23.5 38.5t-8 45q0 22 7.5 44t22.5 39.5t37.5 29.5t53.5 14q32 0 55.5 -10.5t39.5 -27.5t23.5 -38.5t7.5 -44.5t-8 -45t-23.5 -40t-38 -29.5t-52.5 -12.5h-2zM451 836q-30 0 -53 10.5t-38.5 27t-23.5 38.5t-8 45q0 22 7.5 44
t22.5 39.5t38 29.5t53 14q32 0 56 -10.5t39.5 -27.5t23 -38.5t7.5 -44.5t-8 -45t-23 -40t-37.5 -29.5t-52.5 -12.5h-3z" />
    <glyph glyph-name="Ugrave" unicode="&#xd9;" horiz-adv-x="608" 
d="M67 281q9 -44 21.5 -86.5t34.5 -75.5t55.5 -53.5t84.5 -20.5q58 1 104.5 11.5t81 38.5t58.5 77t37 126t15.5 186t-5.5 257q-15 27 -43.5 34t-57.5 3.5t-51 -13t-24 -16.5q4 -139 4 -235t-5.5 -156t-18 -87t-33.5 -29q-25 5 -38 30t-18.5 63.5t-5.5 88t2 104.5t3 111.5
t-2 109.5q-14 24 -46.5 29.5t-67 0t-62 -16.5t-32.5 -20q-1 -43 -3.5 -90t-3.5 -102.5t2 -121.5t14 -147zM23 275q-17 118 -15.5 237.5t6.5 243.5q5 10 23 22t42.5 22.5t53 17.5t55.5 7q36 0 68.5 -14t54.5 -50q5 -78 0.5 -157.5t-4.5 -168.5q0 -53 4 -91.5t15 -52.5
q4 17 6.5 49.5t3.5 73.5t1 87.5t-0.5 92.5t-1.5 88t-2 73q3 9 16.5 21t33.5 22.5t43.5 18t47.5 7.5q35 0 68 -15t56 -56q3 -56 4.5 -111.5t1.5 -100.5q0 -113 -9 -197t-27.5 -143.5t-46.5 -98t-66 -61t-86 -31.5t-106 -10q-65 0 -106 23.5t-67.5 62t-41 87t-25.5 99.5v3z
M406 969q10 -19 5 -43.5t-20.5 -47t-38 -38t-47.5 -15.5q-17 0 -33 6.5t-33 23.5l-100 156q0 30 9.5 53.5t25.5 40t36.5 25t40.5 8.5t40 -9t35 -26zM291 1078q-12 14 -30.5 16t-36 -5.5t-30 -24t-12.5 -40.5l92 -143q17 -17 37 -13t36 17.5t23 31.5t-2 30z" />
    <glyph glyph-name="Yacute" unicode="&#xdd;" horiz-adv-x="751" 
d="M269 76q31 -28 66.5 -38t69 -7t61.5 16.5t44 33.5l5 372l189 280q-10 22 -39 32.5t-64 13.5t-68.5 -0.5t-51.5 -9.5l-105 -201l-152 208q-1 2 -12.5 4t-29 3t-39 -1.5t-40.5 -9.5t-34.5 -20t-20.5 -34l224 -272zM228 430q-28 33 -56.5 70t-57 74.5t-57 74t-56.5 69.5
q4 28 20 49t40 34.5t53 19.5t57 5.5t52.5 -8t40.5 -21.5l107 -143q20 38 40.5 77.5t38.5 74.5q24 8 57 13.5t63 5.5q27 0 54.5 -5t52.5 -16.5t45.5 -29.5t32.5 -45l-195 -289q-2 -91 -3 -188t-3 -188q-28 -34 -72 -56t-94 -22q-38 0 -79.5 16t-84.5 55zM320 953
q-9 -12 -2 -30t23 -31.5t36.5 -17.5t37.5 13l91 143q0 24 -12.5 40.5t-29.5 24t-35.5 5.5t-30.5 -16zM286 978l75 128q15 19 35.5 28.5t40.5 9.5t40.5 -8.5t36.5 -25t26 -40t9 -53.5l-100 -156q-17 -17 -33 -23.5t-32 -6.5q-26 0 -49.5 16.5t-39 39.5t-19.5 48.5t10 43.5
l-3 -5z" />
    <glyph glyph-name="Ydieresis" unicode="&#x178;" horiz-adv-x="751" 
d="M269 76q31 -28 66.5 -38t69 -7t61.5 16.5t44 33.5l5 372l189 280q-10 22 -39 32.5t-64 13.5t-68.5 -0.5t-51.5 -9.5l-105 -201l-152 208q-1 2 -12.5 4t-29 3t-39 -1.5t-40.5 -9.5t-34.5 -20t-20.5 -34l224 -272zM228 430q-28 33 -56.5 70t-57 74.5t-57 74t-56.5 69.5
q4 28 20 49t40 34.5t53 19.5t57 5.5t52.5 -8t40.5 -21.5l107 -143q20 38 40.5 77.5t38.5 74.5q24 8 57 13.5t63 5.5q27 0 54.5 -5t52.5 -16.5t45.5 -29.5t32.5 -45l-195 -289q-2 -91 -3 -188t-3 -188q-28 -34 -72 -56t-94 -22q-38 0 -79.5 16t-84.5 55zM561 879q25 1 43 13
t27 30t10 38.5t-7.5 38.5t-26.5 29.5t-46 12.5q-27 -2 -45 -15t-27 -31t-8.5 -38.5t9.5 -37.5t26.5 -28.5t44.5 -11.5zM278 872q25 1 43 13t27 30t10 38.5t-8 38.5t-26.5 29.5t-45.5 12.5q-27 -2 -45.5 -15t-27 -31t-8.5 -38.5t9.5 -37.5t27 -28.5t44.5 -11.5zM277 829
q-30 0 -53 10.5t-38.5 27t-23.5 38.5t-8 45q0 22 7.5 44t22.5 39.5t37.5 29.5t53.5 14q32 0 55.5 -10.5t39.5 -27.5t23.5 -38.5t7.5 -44.5t-8 -45t-23.5 -40t-38 -29.5t-52.5 -12.5h-2zM560 836q-30 0 -53 10.5t-38.5 27t-23.5 38.5t-8 45q0 22 7.5 44t22.5 39.5t38 29.5
t53 14q32 0 56 -10.5t39.5 -27.5t23 -38.5t7.5 -44.5t-8 -45t-23 -40t-37.5 -29.5t-52.5 -12.5h-3z" />
    <glyph glyph-name="Zcaron" unicode="&#x17d;" horiz-adv-x="685" 
d="M474 1027q4 4 2 15t-8.5 24t-16.5 24.5t-23.5 17.5t-29 2.5t-31.5 -20.5l-35 -63l-42 71q-12 11 -30 11t-36.5 -8.5t-33.5 -25.5t-21 -41l95 -137q11 -17 30.5 -23.5t39.5 -5t37.5 9t24.5 19.5zM433 873q-14 -20 -44 -34t-62 -14q-28 0 -55 10.5t-44 36.5
q-23 35 -52.5 77.5t-52.5 77.5q7 29 22 52.5t34 39.5t40 24.5t40 8.5q15 0 32 -6.5t34 -21.5l6 -10q20 23 40 32t38 9q28 0 50.5 -16t37 -38t20 -43.5t-0.5 -32.5l-5 -19zM608 60q13 12 24 37.5t11.5 57t-15 64t-55.5 58.5l-246 -8l205 315q9 9 19.5 26t19.5 37.5t14.5 42.5
t4 39.5t-12.5 29.5t-35 13l-441 -6q-40 -23 -53 -64.5t11 -107.5h241l-211 -294q-2 -9 -7 -29.5t-9.5 -46.5t-7 -54.5t0.5 -54t13 -44.5t30 -26zM102 0q-48 17 -66 60t-18 94q0 25 3 50.5t6.5 48t7.5 40.5t7 27l175 230h-189q-15 40 -21.5 69.5t-6.5 49.5q0 48 23 83t66 59
l453 5q52 -1 72.5 -28t20.5 -66q0 -21 -7 -46t-17.5 -48t-22 -42.5t-21.5 -30.5q-25 -39 -43 -66.5t-35 -53t-35 -53t-43 -66.5q45 2 89 3t85 3q59 -37 81 -81t22 -86q0 -20 -5.5 -40.5t-14.5 -39t-20 -34t-22 -25.5z" />
    <glyph glyph-name="aacute" unicode="&#xe1;" horiz-adv-x="556" 
d="M315 216q-21 -14 -37 -13.5t-27 10t-17 26.5t-6 37q0 31 10.5 54t25.5 37.5t31.5 19.5t28.5 0zM321 59q1 -7 13.5 -13t31 -8.5t40.5 -1.5t41 6.5t33 15.5t17 26v450q-2 20 -28 30.5t-57 13t-58 -3.5t-33 -19v-29q-46 13 -89.5 -3t-79 -53.5t-59.5 -92t-30 -117.5
q-3 -33 4 -66.5t22.5 -61t39 -47t53 -25.5t64.5 4.5t73 43.5zM395 -7q-35 0 -65.5 11t-44.5 30q-41 -19 -80 -19q-45 0 -81 22t-60.5 57.5t-36.5 80t-7 89.5q6 64 29 121t58 99t79.5 66.5t93.5 24.5h4q16 22 46.5 34t64.5 12q24 0 49 -5t45.5 -15t34 -25.5t16.5 -36.5v-459
q-5 -24 -19.5 -40.5t-34.5 -27t-44 -15t-47 -4.5zM221 752q-9 -12 -2 -30t23 -31.5t36.5 -17.5t37.5 13l91 143q0 24 -12.5 40.5t-29.5 24t-35.5 5.5t-30.5 -16zM187 777l75 128q15 19 35.5 28.5t40.5 9.5t40.5 -8.5t36.5 -25t26 -40t9 -53.5l-100 -156q-17 -17 -33 -23.5
t-32 -6.5q-26 0 -49.5 16.5t-39 39.5t-19.5 48.5t10 43.5l-3 -5z" />
    <glyph glyph-name="acircumflex" unicode="&#xe2;" horiz-adv-x="551" 
d="M312 216q-21 -14 -37 -13.5t-27 10t-17 26.5t-6 37q0 31 10.5 54t25.5 37.5t31.5 19.5t28.5 0zM318 59q1 -7 13.5 -13t31 -8.5t40.5 -1.5t41 6.5t33 15.5t17 26v450q-2 20 -28 30.5t-57 13t-58 -3.5t-33 -19v-29q-46 13 -89.5 -3t-79 -53.5t-59.5 -92t-30 -117.5
q-3 -33 4 -66.5t22.5 -61t39 -47t53 -25.5t64.5 4.5t73 43.5zM392 -7q-35 0 -65.5 11t-44.5 30q-41 -19 -80 -19q-45 0 -81 22t-60.5 57.5t-36.5 80t-7 89.5q6 64 29 121t58 99t79.5 66.5t93.5 24.5h4q16 22 46.5 34t64.5 12q24 0 49 -5t45.5 -15t34 -25.5t16.5 -36.5v-459
q-5 -24 -19.5 -40.5t-34.5 -27t-44 -15t-47 -4.5zM337 890q-7 11 -24.5 19t-37.5 9.5t-39.5 -5t-30.5 -23.5l-95 -138q6 -23 21 -40t33.5 -26t36.5 -8.5t30 11.5l42 70l35 -63q17 -17 32 -20t28.5 3t23.5 17.5t16.5 24.5t8.5 23.5t-2 14.5zM447 787q10 -12 7 -38t-17 -52
t-36.5 -45.5t-50.5 -19.5q-18 0 -38 9t-40 31h-1q-2 -2 -3 -5t-3 -5q-16 -15 -33 -21.5t-32 -6.5q-19 0 -40 8.5t-40 25t-34 40t-22 52.5l105 154q17 26 44 37t55 11q32 0 62 -14t44 -35z" />
    <glyph glyph-name="adieresis" unicode="&#xe4;" horiz-adv-x="523" 
d="M298 216q-21 -14 -37 -13.5t-27 10t-17 26.5t-6 37q0 31 10.5 54t25.5 37.5t31.5 19.5t28.5 0zM304 59q1 -7 13.5 -13t31 -8.5t40.5 -1.5t41 6.5t33 15.5t17 26v450q-2 20 -28 30.5t-57 13t-58 -3.5t-33 -19v-29q-46 13 -89.5 -3t-79 -53.5t-59.5 -92t-30 -117.5
q-3 -33 4 -66.5t22.5 -61t39 -47t53 -25.5t64.5 4.5t73 43.5zM378 -7q-35 0 -65.5 11t-44.5 30q-41 -19 -80 -19q-45 0 -81 22t-60.5 57.5t-36.5 80t-7 89.5q6 64 29 121t58 99t79.5 66.5t93.5 24.5h4q16 22 46.5 34t64.5 12q24 0 49 -5t45.5 -15t34 -25.5t16.5 -36.5v-459
q-5 -24 -19.5 -40.5t-34.5 -27t-44 -15t-47 -4.5zM445 678q25 1 43 13t27 30t10 38.5t-7.5 38.5t-26.5 29.5t-46 12.5q-27 -2 -45 -15t-27 -31t-8.5 -38.5t9.5 -37.5t26.5 -28.5t44.5 -11.5zM162 671q25 1 43 13t27 30t10 38.5t-8 38.5t-26.5 29.5t-45.5 12.5
q-27 -2 -45.5 -15t-27 -31t-8.5 -38.5t9.5 -37.5t27 -28.5t44.5 -11.5zM161 628q-30 0 -53 10.5t-38.5 27t-23.5 38.5t-8 45q0 22 7.5 44t22.5 39.5t37.5 29.5t53.5 14q32 0 55.5 -10.5t39.5 -27.5t23.5 -38.5t7.5 -44.5t-8 -45t-23.5 -40t-38 -29.5t-52.5 -12.5h-2z
M444 635q-30 0 -53 10.5t-38.5 27t-23.5 38.5t-8 45q0 22 7.5 44t22.5 39.5t38 29.5t53 14q32 0 56 -10.5t39.5 -27.5t23 -38.5t7.5 -44.5t-8 -45t-23 -40t-37.5 -29.5t-52.5 -12.5h-3z" />
    <glyph glyph-name="aring" unicode="&#xe5;" horiz-adv-x="551" 
d="M314 805q0 17 9 25t19.5 8t19.5 -8.5t9 -24.5q0 -18 -9 -27t-19.5 -9.5t-19.5 8.5t-9 28zM220 802q0 -47 22.5 -73.5t55.5 -35.5t69.5 -2t63.5 28.5t39 56t-4 79.5q-11 33 -34 52t-50.5 26t-56 1.5t-52 -22.5t-38.5 -44.5t-15 -65.5zM177 802q0 43 15 76t40 55.5t56 34.5
t64 12q49 0 92 -27t63 -83q5 -17 8 -32t3 -30q0 -38 -16 -68.5t-42.5 -51.5t-59 -32.5t-65.5 -11.5q-31 0 -59.5 9.5t-50.5 29t-35 49t-13 70.5zM312 216q-21 -14 -37 -13.5t-27 10t-17 26.5t-6 37q0 31 10.5 54t25.5 37.5t31.5 19.5t28.5 0zM318 59q1 -7 13.5 -13t31 -8.5
t40.5 -1.5t41 6.5t33 15.5t17 26v450q-2 20 -28 30.5t-57 13t-58 -3.5t-33 -19v-29q-46 13 -89.5 -3t-79 -53.5t-59.5 -92t-30 -117.5q-3 -33 4 -66.5t22.5 -61t39 -47t53 -25.5t64.5 4.5t73 43.5zM392 -7q-35 0 -65.5 11t-44.5 30q-41 -19 -80 -19q-45 0 -81 22t-60.5 57.5
t-36.5 80t-7 89.5q6 64 29 121t58 99t79.5 66.5t93.5 24.5h4q16 22 46.5 34t64.5 12q24 0 49 -5t45.5 -15t34 -25.5t16.5 -36.5v-459q-5 -24 -19.5 -40.5t-34.5 -27t-44 -15t-47 -4.5z" />
    <glyph glyph-name="agrave" unicode="&#xe0;" horiz-adv-x="551" 
d="M312 216q-21 -14 -37 -13.5t-27 10t-17 26.5t-6 37q0 31 10.5 54t25.5 37.5t31.5 19.5t28.5 0zM318 59q1 -7 13.5 -13t31 -8.5t40.5 -1.5t41 6.5t33 15.5t17 26v450q-2 20 -28 30.5t-57 13t-58 -3.5t-33 -19v-29q-46 13 -89.5 -3t-79 -53.5t-59.5 -92t-30 -117.5
q-3 -33 4 -66.5t22.5 -61t39 -47t53 -25.5t64.5 4.5t73 43.5zM392 -7q-35 0 -65.5 11t-44.5 30q-41 -19 -80 -19q-45 0 -81 22t-60.5 57.5t-36.5 80t-7 89.5q6 64 29 121t58 99t79.5 66.5t93.5 24.5h4q16 22 46.5 34t64.5 12q24 0 49 -5t45.5 -15t34 -25.5t16.5 -36.5v-459
q-5 -24 -19.5 -40.5t-34.5 -27t-44 -15t-47 -4.5zM384 768q10 -19 5 -43.5t-20.5 -47t-38 -38t-47.5 -15.5q-17 0 -33 6.5t-33 23.5l-100 156q0 30 9.5 53.5t25.5 40t36.5 25t40.5 8.5t40 -9t35 -26zM269 877q-12 14 -30.5 16t-36 -5.5t-30 -24t-12.5 -40.5l92 -143
q17 -17 37 -13t36 17.5t23 31.5t-2 30z" />
    <glyph glyph-name="atilde" unicode="&#xe3;" horiz-adv-x="565" 
d="M313 216q-21 -14 -37 -13.5t-27 10t-17 26.5t-6 37q0 31 10.5 54t25.5 37.5t31.5 19.5t28.5 0zM319 59q1 -7 13.5 -13t31 -8.5t40.5 -1.5t41 6.5t33 15.5t17 26v450q-2 20 -28 30.5t-57 13t-58 -3.5t-33 -19v-29q-46 13 -89.5 -3t-79 -53.5t-59.5 -92t-30 -117.5
q-3 -33 4 -66.5t22.5 -61t39 -47t53 -25.5t64.5 4.5t73 43.5zM393 -7q-35 0 -65.5 11t-44.5 30q-41 -19 -80 -19q-45 0 -81 22t-60.5 57.5t-36.5 80t-7 89.5q6 64 29 121t58 99t79.5 66.5t93.5 24.5h4q16 22 46.5 34t64.5 12q24 0 49 -5t45.5 -15t34 -25.5t16.5 -36.5v-459
q-5 -24 -19.5 -40.5t-34.5 -27t-44 -15t-47 -4.5zM156 683q17 37 35 51.5t38 11.5q15 1 29 -10t30.5 -24t36.5 -23t45 -6q10 5 29.5 16.5t40.5 30t39.5 45t26.5 61.5q4 16 -9.5 34t-33 30.5t-39.5 15t-30 -12.5q-2 -12 -5.5 -26.5t-10.5 -26.5t-18 -20t-29 -8q-16 0 -28 12
t-24.5 26t-27.5 26t-38 12q-15 6 -36.5 -6.5t-41.5 -32.5t-35.5 -42t-18.5 -36q-8 -14 -3.5 -38.5t16.5 -44t28.5 -27t33.5 11.5zM188 654q-25 -28 -57 -28q-22 0 -42 20t-33.5 47.5t-17.5 57t5 48.5q7 19 24 43t39.5 45.5t50 37t56.5 16.5q20 0 35 -5t27 -13.5t22 -19
t19 -21.5q5 -7 9.5 -12t5.5 -5q4 0 7.5 5.5t6.5 14t4.5 18t3.5 18.5q14 20 31.5 29t36.5 9q21 0 45.5 -13t44 -33t31 -43t6.5 -44v1q-10 -42 -32 -74t-46.5 -54.5t-48 -36t-36.5 -19.5q-25 -4 -44.5 -1.5t-35 9.5t-28 16.5t-24.5 18.5h1q-9 6 -16 11.5t-9 5.5q-14 3 -34 -38
z" />
    <glyph glyph-name="ae" unicode="&#xe6;" horiz-adv-x="776" 
d="M474 401q0 13 11.5 21t24.5 9t23.5 -5t9.5 -21q0 -14 -10.5 -23.5t-22.5 -11t-23 5.5t-13 25zM647 247q-85 -60 -138 -54t-61 77q14 -11 37.5 -14t50.5 0.5t54 14t48.5 27t34 38.5t10.5 49q-4 42 -21 77.5t-47 60.5t-71.5 38t-95.5 9q-26 -2 -63 -8.5t-78 -20.5
t-82 -36.5t-75 -56.5t-57.5 -80.5t-28.5 -107.5q-3 -33 7.5 -67.5t30.5 -64t49 -51t62.5 -29.5t71.5 1t76 41q30 -26 67.5 -40.5t80 -14t87.5 20t90 62.5q21 19 24.5 42.5t-4.5 43.5t-24 32.5t-35 10.5zM726 389q2 -31 -10 -57t-32 -48q30 -12 50.5 -42.5t20.5 -65.5
q0 -23 -9.5 -46t-30.5 -43q-53 -51 -106.5 -73t-104.5 -22q-39 0 -75.5 12t-67.5 32q-32 -22 -58 -28t-56 -6q-49 0 -91.5 24t-73 62t-47.5 84t-14 91q7 67 34 118.5t64.5 90t82.5 64.5t90 42.5t85 24.5t68 10q63 4 113 -11.5t85.5 -46.5t56 -73.5t26.5 -92.5zM312 360
q-11 -8 -22 -30t-15 -45t2.5 -40.5t31.5 -17.5q-25 -30 -43.5 -29t-29 19t-11.5 46.5t7.5 53.5t28 39t51.5 4z" />
    <glyph glyph-name="ccaron" unicode="&#x10d;" horiz-adv-x="474" 
d="M365 826q4 4 2 15t-8.5 24t-16.5 24.5t-23.5 17.5t-29 2.5t-31.5 -20.5l-35 -63l-42 71q-12 11 -30 11t-36.5 -8.5t-33.5 -25.5t-21 -41l95 -137q11 -17 30.5 -23.5t39.5 -5t37.5 9t24.5 19.5zM324 672q-14 -20 -44 -34t-62 -14q-28 0 -55 10.5t-44 36.5
q-23 35 -52.5 77.5t-52.5 77.5q7 29 22 52.5t34 39.5t40 24.5t40 8.5q15 0 32 -6.5t34 -21.5l6 -10q20 23 40 32t38 9q28 0 50.5 -16t37 -38t20 -43.5t-0.5 -32.5l-5 -19zM52 301q-3 -70 15.5 -121t50.5 -82t73 -40t83 5t81 52t67 103q-2 13 -16.5 28t-33 24t-37.5 9
t-29 -16q-20 -26 -38 -30.5t-31.5 5t-21 28.5t-5.5 39q2 25 13 53.5t26.5 44.5t32 11.5t30.5 -43.5q19 -6 38.5 -0.5t35 19t23.5 33t4 40.5q-29 55 -67 79t-77.5 24t-77.5 -21.5t-68.5 -57.5t-49.5 -84t-21 -102zM9 303q2 62 25.5 117.5t60 97.5t82 66.5t93.5 24.5
q51 0 98.5 -30.5t85.5 -99.5q6 -34 -9 -64.5t-41.5 -51.5t-60 -29.5t-65.5 2.5q-11 29 -7 35q-7 4 -14 -10.5t-10.5 -34t-1.5 -36t13 -16.5q7 0 15.5 7.5t18 16.5t21 16.5t24.5 7.5q19 0 41 -10.5t41 -27t32.5 -36t15.5 -36.5q-22 -51 -50.5 -89t-60 -63t-65.5 -37t-67 -12
q-44 0 -84 19.5t-70 56.5t-47 91.5t-14 124.5z" />
    <glyph glyph-name="ccedilla" unicode="&#xe7;" horiz-adv-x="449" 
d="M155 -100q-4 0 -2 -2q0 2 2 2zM144 -215q129 -23 194.5 15.5t57.5 129.5q-2 27 -15.5 49.5t-33.5 38.5t-44.5 25t-47.5 9l-1 8q45 13 85.5 51.5t69.5 106.5q-2 13 -16.5 28t-33 24t-37.5 9t-29 -16q-20 -26 -38 -30.5t-31.5 5t-21 28.5t-5.5 39q2 25 13 53.5t26.5 44.5
t32.5 11.5t30 -43.5q19 -6 38.5 -0.5t35 19t23.5 33t4 40.5q-29 55 -66.5 79t-77 24t-77.5 -21.5t-68.5 -57.5t-50 -84t-21.5 -102q-3 -82 22 -138.5t67 -83.5l3 -52q-3 -27 6.5 -40.5t24.5 -18.5t34 -5.5t35.5 -2.5t29 -8.5t14.5 -23.5q3 -21 -15 -29.5t-41.5 -9.5
t-43.5 2.5t-22 6.5q-9 -9 -17 -20.5t-11 -25.5t0.5 -31t18.5 -36zM109 -241q-15 21 -21.5 40.5t-6.5 37.5q0 22 14.5 46.5t34.5 49.5q-21 11 -33.5 32.5t-8.5 65.5v10.5t-1 14.5q-44 35 -67 100t-24 147q4 60 28.5 115.5t60.5 97.5t81 67.5t91 25.5q51 0 98.5 -30.5
t85.5 -99.5q6 -34 -8.5 -64.5t-41 -51.5t-60.5 -29.5t-66 2.5q1 25 -3 30t-9.5 -2t-10.5 -21.5t-6 -28.5t3.5 -22.5t18.5 -2.5l-2 -3q12 20 29.5 28t38.5 8q19 0 41 -10.5t41 -27t32.5 -36t15.5 -36.5q-22 -50 -48 -86.5t-55 -60.5q33 -21 58 -55t30 -76q6 -95 -47.5 -147.5
t-162.5 -52.5q-20 0 -43 2t-49 7zM110 -102q0 9 3 16t5.5 9.5t1.5 -3t-10 -22.5z" />
    <glyph glyph-name="ccircumflex" unicode="&#x109;" horiz-adv-x="483" 
d="M56 301q-3 -70 15.5 -121t50.5 -82t73 -40t83 5t81 52t67 103q-2 13 -16.5 28t-33 24t-37.5 9t-29 -16q-20 -26 -38 -30.5t-31.5 5t-21 28.5t-5.5 39q2 25 13 53.5t26.5 44.5t32 11.5t30.5 -43.5q19 -6 38.5 -0.5t35 19t23.5 33t4 40.5q-29 55 -67 79t-77.5 24
t-77.5 -21.5t-68.5 -57.5t-49.5 -84t-21 -102zM13 303q2 62 25.5 117.5t60 97.5t82 66.5t93.5 24.5q51 0 98.5 -30.5t85.5 -99.5q6 -34 -9 -64.5t-41.5 -51.5t-60 -29.5t-65.5 2.5q-11 29 -7 35q-7 4 -14 -10.5t-10.5 -34t-1.5 -36t13 -16.5q7 0 15.5 7.5t18 16.5t21 16.5
t24.5 7.5q19 0 41 -10.5t41 -27t32.5 -36t15.5 -36.5q-22 -51 -50.5 -89t-60 -63t-65.5 -37t-67 -12q-44 0 -84 19.5t-70 56.5t-47 91.5t-14 124.5zM293 890q-7 11 -24.5 19t-37.5 9.5t-39.5 -5t-30.5 -23.5l-95 -138q6 -23 21 -40t33.5 -26t36.5 -8.5t30 11.5l42 70l35 -63
q17 -17 32 -20t28.5 3t23.5 17.5t16.5 24.5t8.5 23.5t-2 14.5zM403 787q10 -12 7 -38t-17 -52t-36.5 -45.5t-50.5 -19.5q-18 0 -38 9t-40 31h-1q-2 -2 -3 -5t-3 -5q-16 -15 -33 -21.5t-32 -6.5q-19 0 -40 8.5t-40 25t-34 40t-22 52.5l105 154q17 26 44 37t55 11q32 0 62 -14
t44 -35z" />
    <glyph glyph-name="eacute" unicode="&#xe9;" horiz-adv-x="541" 
d="M235 412q0 13 14.5 20t31 7.5t29.5 -6t10 -21.5q-2 -9 -15 -16t-28.5 -8.5t-28 4t-13.5 20.5zM424 255q-43 -30 -80.5 -43.5t-66 -11t-46.5 21.5t-22 54q19 -11 44.5 -13.5t53 1t54.5 14t48.5 27t35 39t14.5 49.5q1 42 -16.5 79.5t-50 63t-77.5 35.5t-97 -2
q-47 -11 -78 -37.5t-50 -60.5t-27.5 -72t-10 -73.5t1.5 -64.5t7 -44q10 -35 31 -67t51 -56t67 -38t78.5 -12.5t86 21t88.5 61.5q21 19 24.5 42.5t-4.5 43.5t-24 32.5t-35 10.5zM502 391q-1 -29 -12.5 -53.5t-30.5 -44.5q31 -12 52 -42.5t21 -67.5q0 -23 -9.5 -45.5
t-30.5 -42.5q-54 -51 -107 -73t-104 -22q-48 0 -90.5 17t-77 45.5t-59 65.5t-35.5 78q-3 14 -6.5 39.5t-3.5 58.5q0 42 8 89.5t30.5 91t61 78t100.5 48.5q16 5 32 6t31 1q52 0 95 -18.5t73.5 -49.5t46.5 -72.5t15 -86.5zM208 752q-9 -12 -2 -30t23 -31.5t36.5 -17.5t37.5 13
l91 143q0 24 -12.5 40.5t-29.5 24t-35.5 5.5t-30.5 -16zM174 777l75 128q15 19 35.5 28.5t40.5 9.5t40.5 -8.5t36.5 -25t26 -40t9 -53.5l-100 -156q-17 -17 -33 -23.5t-32 -6.5q-26 0 -49.5 16.5t-39 39.5t-19.5 48.5t10 43.5l-3 -5z" />
    <glyph glyph-name="ecircumflex" unicode="&#xea;" horiz-adv-x="515" 
d="M223 412q0 13 14.5 20t31 7.5t29.5 -6t10 -21.5q-2 -9 -15 -16t-28.5 -8.5t-28 4t-13.5 20.5zM412 255q-43 -30 -80.5 -43.5t-66 -11t-46.5 21.5t-22 54q19 -11 44.5 -13.5t53 1t54.5 14t48.5 27t35 39t14.5 49.5q1 42 -16.5 79.5t-50 63t-77.5 35.5t-97 -2
q-47 -11 -78 -37.5t-50 -60.5t-27.5 -72t-10 -73.5t1.5 -64.5t7 -44q10 -35 31 -67t51 -56t67 -38t78.5 -12.5t86 21t88.5 61.5q21 19 24.5 42.5t-4.5 43.5t-24 32.5t-35 10.5zM490 391q-1 -29 -12.5 -53.5t-30.5 -44.5q31 -12 52 -42.5t21 -67.5q0 -23 -9.5 -45.5
t-30.5 -42.5q-54 -51 -107 -73t-104 -22q-48 0 -90.5 17t-77 45.5t-59 65.5t-35.5 78q-3 14 -6.5 39.5t-3.5 58.5q0 42 8 89.5t30.5 91t61 78t100.5 48.5q16 5 32 6t31 1q52 0 95 -18.5t73.5 -49.5t46.5 -72.5t15 -86.5zM314 890q-7 11 -24.5 19t-37.5 9.5t-39.5 -5
t-30.5 -23.5l-95 -138q6 -23 21 -40t33.5 -26t36.5 -8.5t30 11.5l42 70l35 -63q17 -17 32 -20t28.5 3t23.5 17.5t16.5 24.5t8.5 23.5t-2 14.5zM424 787q10 -12 7 -38t-17 -52t-36.5 -45.5t-50.5 -19.5q-18 0 -38 9t-40 31h-1q-2 -2 -3 -5t-3 -5q-16 -15 -33 -21.5t-32 -6.5
q-19 0 -40 8.5t-40 25t-34 40t-22 52.5l105 154q17 26 44 37t55 11q32 0 62 -14t44 -35z" />
    <glyph glyph-name="edieresis" unicode="&#xeb;" horiz-adv-x="546" 
d="M232 409q0 13 14.5 20t31 7.5t29.5 -6t10 -21.5q-2 -9 -15 -16t-28.5 -8.5t-28 4t-13.5 20.5zM421 252q-43 -30 -80.5 -43.5t-66 -11t-46.5 21.5t-22 54q19 -11 44.5 -13.5t53 1t54.5 14t48.5 27t35 39t14.5 49.5q1 42 -16.5 79.5t-50 63t-77.5 35.5t-97 -2
q-47 -11 -78 -37.5t-50 -60.5t-27.5 -72t-10 -73.5t1.5 -64.5t7 -44q10 -35 31 -67t51 -56t67 -38t78.5 -12.5t86 21t88.5 61.5q21 19 24.5 42.5t-4.5 43.5t-24 32.5t-35 10.5zM499 388q-1 -29 -12.5 -53.5t-30.5 -44.5q31 -12 52 -42.5t21 -67.5q0 -23 -9.5 -45.5
t-30.5 -42.5q-54 -51 -107 -73t-104 -22q-48 0 -90.5 17t-77 45.5t-59 65.5t-35.5 78q-3 14 -6.5 39.5t-3.5 58.5q0 42 8 89.5t30.5 91t61 78t100.5 48.5q16 5 32 6t31 1q52 0 95 -18.5t73.5 -49.5t46.5 -72.5t15 -86.5zM418 678q25 1 43 13t27 30t10 38.5t-7.5 38.5
t-26.5 29.5t-46 12.5q-27 -2 -45 -15t-27 -31t-8.5 -38.5t9.5 -37.5t26.5 -28.5t44.5 -11.5zM135 671q25 1 43 13t27 30t10 38.5t-8 38.5t-26.5 29.5t-45.5 12.5q-27 -2 -45.5 -15t-27 -31t-8.5 -38.5t9.5 -37.5t27 -28.5t44.5 -11.5zM134 628q-30 0 -53 10.5t-38.5 27
t-23.5 38.5t-8 45q0 22 7.5 44t22.5 39.5t37.5 29.5t53.5 14q32 0 55.5 -10.5t39.5 -27.5t23.5 -38.5t7.5 -44.5t-8 -45t-23.5 -40t-38 -29.5t-52.5 -12.5h-2zM417 635q-30 0 -53 10.5t-38.5 27t-23.5 38.5t-8 45q0 22 7.5 44t22.5 39.5t38 29.5t53 14q32 0 56 -10.5
t39.5 -27.5t23 -38.5t7.5 -44.5t-8 -45t-23 -40t-37.5 -29.5t-52.5 -12.5h-3z" />
    <glyph glyph-name="egrave" unicode="&#xe8;" horiz-adv-x="536" 
d="M232 412q0 13 14.5 20t31 7.5t29.5 -6t10 -21.5q-2 -9 -15 -16t-28.5 -8.5t-28 4t-13.5 20.5zM421 255q-43 -30 -80.5 -43.5t-66 -11t-46.5 21.5t-22 54q19 -11 44.5 -13.5t53 1t54.5 14t48.5 27t35 39t14.5 49.5q1 42 -16.5 79.5t-50 63t-77.5 35.5t-97 -2
q-47 -11 -78 -37.5t-50 -60.5t-27.5 -72t-10 -73.5t1.5 -64.5t7 -44q10 -35 31 -67t51 -56t67 -38t78.5 -12.5t86 21t88.5 61.5q21 19 24.5 42.5t-4.5 43.5t-24 32.5t-35 10.5zM499 391q-1 -29 -12.5 -53.5t-30.5 -44.5q31 -12 52 -42.5t21 -67.5q0 -23 -9.5 -45.5
t-30.5 -42.5q-54 -51 -107 -73t-104 -22q-48 0 -90.5 17t-77 45.5t-59 65.5t-35.5 78q-3 14 -6.5 39.5t-3.5 58.5q0 42 8 89.5t30.5 91t61 78t100.5 48.5q16 5 32 6t31 1q52 0 95 -18.5t73.5 -49.5t46.5 -72.5t15 -86.5zM371 768q10 -19 5 -43.5t-20.5 -47t-38 -38
t-47.5 -15.5q-17 0 -33 6.5t-33 23.5l-100 156q0 30 9.5 53.5t25.5 40t36.5 25t40.5 8.5t40 -9t35 -26zM256 877q-12 14 -30.5 16t-36 -5.5t-30 -24t-12.5 -40.5l92 -143q17 -17 37 -13t36 17.5t23 31.5t-2 30z" />
    <glyph glyph-name="iacute" unicode="&#xed;" horiz-adv-x="295" 
d="M66 78q12 -16 38.5 -25t55 -9t52.5 10t32 32l-3 444q-10 21 -33 30.5t-50 10t-53 -7t-42 -20.5zM19 562q29 24 66 37.5t70 13.5q38 0 74 -17t55 -55l3 -463q-15 -41 -51.5 -58.5t-76.5 -17.5q-38 0 -75.5 16t-60.5 46zM63 752q-9 -12 -2 -30t23 -31.5t36.5 -17.5t37.5 13
l91 143q0 24 -12.5 40.5t-29.5 24t-35.5 5.5t-30.5 -16zM29 777l75 128q15 19 35.5 28.5t40.5 9.5t40.5 -8.5t36.5 -25t26 -40t9 -53.5l-100 -156q-17 -17 -33 -23.5t-32 -6.5q-26 0 -49.5 16.5t-39 39.5t-19.5 48.5t10 43.5l-3 -5z" />
    <glyph glyph-name="icircumflex" unicode="&#xee;" horiz-adv-x="319" 
d="M87 73q12 -16 38.5 -25t55 -9t52.5 10t32 32l-3 444q-10 21 -33 30.5t-50 10t-53 -7t-42 -20.5zM40 557q29 24 66 37.5t70 13.5q38 0 74 -17t55 -55l3 -463q-15 -41 -51.5 -58.5t-76.5 -17.5q-38 0 -75.5 16t-60.5 46zM238 890q-7 11 -24.5 19t-37.5 9.5t-39.5 -5
t-30.5 -23.5l-95 -138q6 -23 21 -40t33.5 -26t36.5 -8.5t30 11.5l42 70l35 -63q17 -17 32 -20t28.5 3t23.5 17.5t16.5 24.5t8.5 23.5t-2 14.5zM348 787q10 -12 7 -38t-17 -52t-36.5 -45.5t-50.5 -19.5q-18 0 -38 9t-40 31h-1q-2 -2 -3 -5t-3 -5q-16 -15 -33 -21.5t-32 -6.5
q-19 0 -40 8.5t-40 25t-34 40t-22 52.5l105 154q17 26 44 37t55 11q32 0 62 -14t44 -35z" />
    <glyph glyph-name="idieresis" unicode="&#xef;" horiz-adv-x="295" 
d="M66 73q12 -16 38.5 -25t55 -9t52.5 10t32 32l-3 444q-10 21 -33 30.5t-50 10t-53 -7t-42 -20.5zM19 557q29 24 66 37.5t70 13.5q38 0 74 -17t55 -55l3 -463q-15 -41 -51.5 -58.5t-76.5 -17.5q-38 0 -75.5 16t-60.5 46zM291 688q25 1 43 13t27 30t10 38.5t-7.5 38.5
t-26.5 29.5t-46 12.5q-27 -2 -45 -15t-27 -31t-8.5 -38.5t9.5 -37.5t26.5 -28.5t44.5 -11.5zM8 681q25 1 43 13t27 30t10 38.5t-8 38.5t-26.5 29.5t-45.5 12.5q-27 -2 -45.5 -15t-27 -31t-8.5 -38.5t9.5 -37.5t27 -28.5t44.5 -11.5zM7 638q-30 0 -53 10.5t-38.5 27
t-23.5 38.5t-8 45q0 22 7.5 44t22.5 39.5t37.5 29.5t53.5 14q32 0 55.5 -10.5t39.5 -27.5t23.5 -38.5t7.5 -44.5t-8 -45t-23.5 -40t-38 -29.5t-52.5 -12.5h-2zM290 645q-30 0 -53 10.5t-38.5 27t-23.5 38.5t-8 45q0 22 7.5 44t22.5 39.5t38 29.5t53 14q32 0 56 -10.5
t39.5 -27.5t23 -38.5t7.5 -44.5t-8 -45t-23 -40t-37.5 -29.5t-52.5 -12.5h-3z" />
    <glyph glyph-name="igrave" unicode="&#xec;" horiz-adv-x="300" 
d="M66 73q12 -16 38.5 -25t55 -9t52.5 10t32 32l-3 444q-10 21 -33 30.5t-50 10t-53 -7t-42 -20.5zM19 557q29 24 66 37.5t70 13.5q38 0 74 -17t55 -55l3 -463q-15 -41 -51.5 -58.5t-76.5 -17.5q-38 0 -75.5 16t-60.5 46zM247 768q10 -19 5 -43.5t-20.5 -47t-38 -38
t-47.5 -15.5q-17 0 -33 6.5t-33 23.5l-100 156q0 30 9.5 53.5t25.5 40t36.5 25t40.5 8.5t40 -9t35 -26zM132 877q-12 14 -30.5 16t-36 -5.5t-30 -24t-12.5 -40.5l92 -143q17 -17 37 -13t36 17.5t23 31.5t-2 30z" />
    <glyph glyph-name="ntilde" unicode="&#xf1;" horiz-adv-x="580" 
d="M361 77q4 -15 23.5 -24t44.5 -10t50 6t40 24q0 51 -0.5 116t-7.5 128.5t-23 118.5t-47 86t-79.5 30.5t-120.5 -48.5l2 25q0 12 -13 18.5t-32.5 9t-42 0.5t-42.5 -7.5t-34.5 -14.5t-17.5 -20v-434q6 -20 30.5 -29.5t53 -10t55 8.5t36.5 27l-2 274q48 31 73.5 20.5t37 -50
t13.5 -103.5t3 -141zM318 76q-1 54 -1.5 100.5t-3 81t-7 54t-13.5 19.5q-5 0 -15 -5v-131t1 -130q-20 -33 -57 -50t-75 -17q-43 0 -80 18.5t-50 56.5v445q5 19 21 34.5t38.5 26t48.5 16.5t50 6q29 0 53.5 -7.5t40.5 -24.5q55 27 100 27q47 0 79.5 -22.5t54 -60.5t33.5 -87.5
t18 -103t7.5 -108t1.5 -101.5v-57q-27 -29 -61.5 -42.5t-65.5 -13.5q-20 0 -39 4t-35 12.5t-27 20.5t-15 28zM166 683q17 37 35 51.5t38 11.5q15 1 29 -10t30.5 -24t36.5 -23t45 -6q10 5 29.5 16.5t40.5 30t39.5 45t26.5 61.5q4 16 -9.5 34t-33 30.5t-39.5 15t-30 -12.5
q-2 -12 -5.5 -26.5t-10.5 -26.5t-18 -20t-29 -8q-16 0 -28 12t-24.5 26t-27.5 26t-38 12q-15 6 -36.5 -6.5t-41.5 -32.5t-35.5 -42t-18.5 -36q-8 -14 -3.5 -38.5t16.5 -44t28.5 -27t33.5 11.5zM198 654q-25 -28 -57 -28q-22 0 -42 20t-33.5 47.5t-17.5 57t5 48.5q7 19 24 43
t39.5 45.5t50 37t56.5 16.5q20 0 35 -5t27 -13.5t22 -19t19 -21.5q5 -7 9.5 -12t5.5 -5q4 0 7.5 5.5t6.5 14t4.5 18t3.5 18.5q14 20 31.5 29t36.5 9q21 0 45.5 -13t44 -33t31 -43t6.5 -44v1q-10 -42 -32 -74t-46.5 -54.5t-48 -36t-36.5 -19.5q-25 -4 -44.5 -1.5t-35 9.5
t-28 16.5t-24.5 18.5h1q-9 6 -16 11.5t-9 5.5q-14 3 -34 -38z" />
    <glyph glyph-name="oacute" unicode="&#xf3;" horiz-adv-x="506" 
d="M267 409q9 -1 14 -17t6.5 -39.5t-0.5 -50.5t-8 -49t-15.5 -35.5t-23.5 -10.5q-10 2 -16 18t-8 39.5t0.5 49.5t9 47.5t16.5 35.5t25 12zM231 46q49 -1 87.5 21t65.5 57.5t42.5 82t19 95t-4.5 95t-28.5 84t-53 61t-77.5 25.5q-40 4 -75.5 -16t-64 -55t-48.5 -81t-29 -95
t-5.5 -96.5t23 -86t56 -63.5t92.5 -28zM229 3q-58 3 -98.5 24.5t-66 55.5t-37 77.5t-11.5 91.5q0 65 21 131t57.5 118.5t85.5 83.5t105 26h-1q52 -3 90.5 -27t64 -62.5t38 -87.5t12.5 -102q0 -60 -16.5 -119t-48.5 -106t-81 -76t-113 -28h-1zM197 752q-9 -12 -2 -30
t23 -31.5t36.5 -17.5t37.5 13l91 143q0 24 -12.5 40.5t-29.5 24t-35.5 5.5t-30.5 -16zM163 777l75 128q15 19 35.5 28.5t40.5 9.5t40.5 -8.5t36.5 -25t26 -40t9 -53.5l-100 -156q-17 -17 -33 -23.5t-32 -6.5q-26 0 -49.5 16.5t-39 39.5t-19.5 48.5t10 43.5l-3 -5z" />
    <glyph glyph-name="ocircumflex" unicode="&#xf4;" horiz-adv-x="506" 
d="M267 409q9 -1 14 -17t6.5 -39.5t-0.5 -50.5t-8 -49t-15.5 -35.5t-23.5 -10.5q-10 2 -16 18t-8 39.5t0.5 49.5t9 47.5t16.5 35.5t25 12zM231 46q49 -1 87.5 21t65.5 57.5t42.5 82t19 95t-4.5 95t-28.5 84t-53 61t-77.5 25.5q-40 4 -75.5 -16t-64 -55t-48.5 -81t-29 -95
t-5.5 -96.5t23 -86t56 -63.5t92.5 -28zM229 3q-58 3 -98.5 24.5t-66 55.5t-37 77.5t-11.5 91.5q0 65 21 131t57.5 118.5t85.5 83.5t105 26h-1q52 -3 90.5 -27t64 -62.5t38 -87.5t12.5 -102q0 -60 -16.5 -119t-48.5 -106t-81 -76t-113 -28h-1zM316 890q-7 11 -24.5 19
t-37.5 9.5t-39.5 -5t-30.5 -23.5l-95 -138q6 -23 21 -40t33.5 -26t36.5 -8.5t30 11.5l42 70l35 -63q17 -17 32 -20t28.5 3t23.5 17.5t16.5 24.5t8.5 23.5t-2 14.5zM426 787q10 -12 7 -38t-17 -52t-36.5 -45.5t-50.5 -19.5q-18 0 -38 9t-40 31h-1q-2 -2 -3 -5t-3 -5
q-16 -15 -33 -21.5t-32 -6.5q-19 0 -40 8.5t-40 25t-34 40t-22 52.5l105 154q17 26 44 37t55 11q32 0 62 -14t44 -35z" />
    <glyph glyph-name="odieresis" unicode="&#xf6;" horiz-adv-x="506" 
d="M267 409q9 -1 14 -17t6.5 -39.5t-0.5 -50.5t-8 -49t-15.5 -35.5t-23.5 -10.5q-10 2 -16 18t-8 39.5t0.5 49.5t9 47.5t16.5 35.5t25 12zM231 46q49 -1 87.5 21t65.5 57.5t42.5 82t19 95t-4.5 95t-28.5 84t-53 61t-77.5 25.5q-40 4 -75.5 -16t-64 -55t-48.5 -81t-29 -95
t-5.5 -96.5t23 -86t56 -63.5t92.5 -28zM229 3q-58 3 -98.5 24.5t-66 55.5t-37 77.5t-11.5 91.5q0 65 21 131t57.5 118.5t85.5 83.5t105 26h-1q52 -3 90.5 -27t64 -62.5t38 -87.5t12.5 -102q0 -60 -16.5 -119t-48.5 -106t-81 -76t-113 -28h-1zM438 678q25 1 43 13t27 30
t10 38.5t-7.5 38.5t-26.5 29.5t-46 12.5q-27 -2 -45 -15t-27 -31t-8.5 -38.5t9.5 -37.5t26.5 -28.5t44.5 -11.5zM155 671q25 1 43 13t27 30t10 38.5t-8 38.5t-26.5 29.5t-45.5 12.5q-27 -2 -45.5 -15t-27 -31t-8.5 -38.5t9.5 -37.5t27 -28.5t44.5 -11.5zM154 628
q-30 0 -53 10.5t-38.5 27t-23.5 38.5t-8 45q0 22 7.5 44t22.5 39.5t37.5 29.5t53.5 14q32 0 55.5 -10.5t39.5 -27.5t23.5 -38.5t7.5 -44.5t-8 -45t-23.5 -40t-38 -29.5t-52.5 -12.5h-2zM437 635q-30 0 -53 10.5t-38.5 27t-23.5 38.5t-8 45q0 22 7.5 44t22.5 39.5t38 29.5
t53 14q32 0 56 -10.5t39.5 -27.5t23 -38.5t7.5 -44.5t-8 -45t-23 -40t-37.5 -29.5t-52.5 -12.5h-3z" />
    <glyph glyph-name="ograve" unicode="&#xf2;" horiz-adv-x="506" 
d="M267 409q9 -1 14 -17t6.5 -39.5t-0.5 -50.5t-8 -49t-15.5 -35.5t-23.5 -10.5q-10 2 -16 18t-8 39.5t0.5 49.5t9 47.5t16.5 35.5t25 12zM231 46q49 -1 87.5 21t65.5 57.5t42.5 82t19 95t-4.5 95t-28.5 84t-53 61t-77.5 25.5q-40 4 -75.5 -16t-64 -55t-48.5 -81t-29 -95
t-5.5 -96.5t23 -86t56 -63.5t92.5 -28zM229 3q-58 3 -98.5 24.5t-66 55.5t-37 77.5t-11.5 91.5q0 65 21 131t57.5 118.5t85.5 83.5t105 26h-1q52 -3 90.5 -27t64 -62.5t38 -87.5t12.5 -102q0 -60 -16.5 -119t-48.5 -106t-81 -76t-113 -28h-1zM363 768q10 -19 5 -43.5
t-20.5 -47t-38 -38t-47.5 -15.5q-17 0 -33 6.5t-33 23.5l-100 156q0 30 9.5 53.5t25.5 40t36.5 25t40.5 8.5t40 -9t35 -26zM248 877q-12 14 -30.5 16t-36 -5.5t-30 -24t-12.5 -40.5l92 -143q17 -17 37 -13t36 17.5t23 31.5t-2 30z" />
    <glyph glyph-name="oslash" unicode="&#xf8;" horiz-adv-x="506" 
d="M232 46q47 0 85.5 19.5t67.5 53t47 76.5t26 89.5t4 92.5t-19 85l47 80q-2 24 -15 42t-32 28t-41 9.5t-43 -12.5l-24 -41q-12 4 -25 6q-42 7 -81.5 -12t-72.5 -55t-58 -84t-37 -99.5t-9.5 -101.5t24.5 -89l-53 -89q12 -19 29 -32t37.5 -18t42 -2t42.5 17l25 42q8 -2 16 -3
t17 -2zM229 3h-4h-1h-3q-4 -6 -7.5 -11.5t-5.5 -10.5q-26 -17 -49.5 -25t-43.5 -8q-39 0 -77 25t-65 70l55 92q-20 49 -20 107q0 45 11.5 91.5t32.5 90t49.5 81.5t62.5 64.5t71.5 39.5t77.5 8q4 6 7.5 12t6.5 11q41 25 76 25q24 0 47 -9.5t41 -27t29.5 -42t13.5 -53.5
l-44 -74q17 -50 17 -111q0 -62 -18 -124t-53.5 -111.5t-87 -80t-117.5 -29.5h-2z" />
    <glyph glyph-name="otilde" unicode="&#xf5;" horiz-adv-x="506" 
d="M262 409q9 -1 14 -17t6.5 -39.5t-0.5 -50.5t-8 -49t-15.5 -35.5t-23.5 -10.5q-10 2 -16 18t-8 39.5t0.5 49.5t9 47.5t16.5 35.5t25 12zM226 46q49 -1 87.5 21t65.5 57.5t42.5 82t19 95t-4.5 95t-28.5 84t-53 61t-77.5 25.5q-40 4 -75.5 -16t-64 -55t-48.5 -81t-29 -95
t-5.5 -96.5t23 -86t56 -63.5t92.5 -28zM224 3q-58 3 -98.5 24.5t-66 55.5t-37 77.5t-11.5 91.5q0 65 21 131t57.5 118.5t85.5 83.5t105 26h-1q52 -3 90.5 -27t64 -62.5t38 -87.5t12.5 -102q0 -60 -16.5 -119t-48.5 -106t-81 -76t-113 -28h-1zM129 683q17 37 35 51.5t38 11.5
q15 1 29 -10t30.5 -24t36.5 -23t45 -6q10 5 29.5 16.5t40.5 30t39.5 45t26.5 61.5q4 16 -9.5 34t-33 30.5t-39.5 15t-30 -12.5q-2 -12 -5.5 -26.5t-10.5 -26.5t-18 -20t-29 -8q-16 0 -28 12t-24.5 26t-27.5 26t-38 12q-15 6 -36.5 -6.5t-41.5 -32.5t-35.5 -42t-18.5 -36
q-8 -14 -3.5 -38.5t16.5 -44t28.5 -27t33.5 11.5zM161 654q-25 -28 -57 -28q-22 0 -42 20t-33.5 47.5t-17.5 57t5 48.5q7 19 24 43t39.5 45.5t50 37t56.5 16.5q20 0 35 -5t27 -13.5t22 -19t19 -21.5q5 -7 9.5 -12t5.5 -5q4 0 7.5 5.5t6.5 14t4.5 18t3.5 18.5q14 20 31.5 29
t36.5 9q21 0 45.5 -13t44 -33t31 -43t6.5 -44v1q-10 -42 -32 -74t-46.5 -54.5t-48 -36t-36.5 -19.5q-25 -4 -44.5 -1.5t-35 9.5t-28 16.5t-24.5 18.5h1q-9 6 -16 11.5t-9 5.5q-14 3 -34 -38z" />
    <glyph glyph-name="oe" unicode="&#x153;" horiz-adv-x="793" 
d="M493 392q0 13 11.5 20.5t24.5 8.5t23.5 -5t9.5 -21q0 -14 -10.5 -23t-22.5 -10.5t-23 5.5t-13 25zM306 190q-22 -7 -39.5 1t-27.5 25.5t-12.5 40.5t4.5 45.5t24.5 42.5t47.5 30q-6 -27 -7.5 -54t-0.5 -50t3.5 -41.5t5.5 -29.5q2 -8 2 -10zM666 238q-85 -60 -138 -54.5
t-61 77.5q14 -11 37.5 -14t50.5 0.5t54 13.5t48.5 26.5t34 38.5t10.5 49q-4 42 -22.5 79.5t-50 63.5t-74 36t-94.5 -2q-30 -8 -54 -21q-20 18 -48 30.5t-55 17.5q-49 -4 -91.5 -35t-75 -78.5t-52.5 -104.5t-23 -112.5t12.5 -103t54 -75t102.5 -30t157 32.5q30 -23 67 -36
t78 -11t84.5 21.5t87.5 60.5q21 20 24.5 43.5t-4.5 43.5t-24 32.5t-35 10.5zM745 380q2 -32 -8.5 -58.5t-30.5 -47.5q29 -13 48.5 -43t19.5 -65q0 -23 -9.5 -46t-30.5 -43q-53 -51 -106.5 -72.5t-104.5 -21.5q-39 0 -75 11t-67 31q-83 -28 -147 -28q-58 0 -99 18.5t-67 50
t-38 74t-12 89.5q0 64 22.5 132t61 124.5t90.5 94t111 42.5q30 -5 58 -15t51 -26q17 7 38 12q38 8 64 8q50 0 91 -18t70.5 -48.5t47.5 -70.5t22 -85v1z" />
    <glyph glyph-name="sacute" unicode="&#x15b;" horiz-adv-x="477" 
d="M197 246q-16 15 -46 27t-59 31t-50.5 48t-19.5 78q4 38 24.5 71.5t53.5 58.5t76.5 39.5t92.5 14.5q54 0 117 -22q23 -16 32.5 -39.5t9.5 -49.5q0 -37 -18 -69.5t-44 -42.5q47 -32 70 -74.5t23 -84.5q0 -44 -20.5 -87t-55.5 -76.5t-81 -54.5t-98 -21q-37 0 -74 11.5
t-74 36.5l-9 10q-17 22 -23.5 45t-6.5 43q0 16 5 38t14 43.5t22.5 38t30.5 21.5q12 -8 29 -18t33.5 -17t29.5 -8.5t16 9.5zM81 77q54 -37 108 -39.5t100 18t79 58.5t44 81.5t-4.5 86.5t-66.5 74q-15 9 -27.5 15t-22 11.5t-15 12t-6.5 18.5q0 5 4.5 11t14 9.5t25 3.5t37.5 -6
q10 -2 19 13t12.5 36t0 42.5t-17.5 32.5q-56 19 -108.5 16t-93.5 -22.5t-67.5 -51.5t-30.5 -71q-3 -30 9 -50t32 -34.5t44.5 -25t46 -20t37.5 -20.5t19 -27q5 -26 -1.5 -40t-20.5 -18t-33 -1t-39 10t-38.5 16t-31.5 16q-10 -9 -18.5 -26.5t-11.5 -39t1 -45t21 -44.5z
M180 752q-9 -12 -2 -30t23 -31.5t36.5 -17.5t37.5 13l91 143q0 24 -12.5 40.5t-29.5 24t-35.5 5.5t-30.5 -16zM146 777l75 128q15 19 35.5 28.5t40.5 9.5t40.5 -8.5t36.5 -25t26 -40t9 -53.5l-100 -156q-17 -17 -33 -23.5t-32 -6.5q-26 0 -49.5 16.5t-39 39.5t-19.5 48.5
t10 43.5l-3 -5z" />
    <glyph glyph-name="scaron" unicode="&#x161;" horiz-adv-x="435" 
d="M358 826q4 4 2 15t-8.5 24t-16.5 24.5t-23.5 17.5t-29 2.5t-31.5 -20.5l-35 -63l-42 71q-12 11 -30 11t-36.5 -8.5t-33.5 -25.5t-21 -41l95 -137q11 -17 30.5 -23.5t39.5 -5t37.5 9t24.5 19.5zM317 672q-14 -20 -44 -34t-62 -14q-28 0 -55 10.5t-44 36.5
q-23 35 -52.5 77.5t-52.5 77.5q7 29 22 52.5t34 39.5t40 24.5t40 8.5q15 0 32 -6.5t34 -21.5l6 -10q20 23 40 32t38 9q28 0 50.5 -16t37 -38t20 -43.5t-0.5 -32.5l-5 -19zM178 246q-16 15 -46 27t-59 31t-50.5 48t-19.5 78q4 38 24.5 71.5t53.5 58.5t76.5 39.5t92.5 14.5
q54 0 117 -22q23 -16 32.5 -39.5t9.5 -49.5q0 -37 -18 -69.5t-44 -42.5q47 -32 70 -74.5t23 -84.5q0 -44 -20.5 -87t-55.5 -76.5t-81 -54.5t-98 -21q-37 0 -74 11.5t-74 36.5l-9 10q-17 22 -23.5 45t-6.5 43q0 16 5 38t14 43.5t22.5 38t30.5 21.5q12 -8 29 -18t33.5 -17
t29.5 -8.5t16 9.5zM62 77q54 -37 108 -39.5t100 18t79 58.5t44 81.5t-4.5 86.5t-66.5 74q-15 9 -27.5 15t-22 11.5t-15 12t-6.5 18.5q0 5 4.5 11t14 9.5t25 3.5t37.5 -6q10 -2 19 13t12.5 36t0 42.5t-17.5 32.5q-56 19 -108.5 16t-93.5 -22.5t-67.5 -51.5t-30.5 -71
q-3 -30 9 -50t32 -34.5t44.5 -25t46 -20t37.5 -20.5t19 -27q5 -26 -1.5 -40t-20.5 -18t-33 -1t-39 10t-38.5 16t-31.5 16q-10 -9 -18.5 -26.5t-11.5 -39t1 -45t21 -44.5z" />
    <glyph glyph-name="uacute" unicode="&#xfa;" horiz-adv-x="512" 
d="M316 47q22 -11 43.5 -11.5t40 4.5t33.5 14.5t24 20.5l-3 467q-15 27 -42.5 33.5t-53.5 1.5t-45 -18t-19 -23l8 -266q-35 -23 -54 -13.5t-27 45.5t-7 95t6 135q-4 24 -16.5 37t-29.5 16.5t-35.5 0.5t-34.5 -10t-28 -16t-14 -16q-4 -47 -6.5 -109t1.5 -125.5t18 -120
t43.5 -92.5t77.5 -44t120 26v-32zM367 -8q-17 0 -39 6t-51 20q-33 -9 -63 -9q-63 0 -102.5 33.5t-62 87t-30.5 120.5t-8 134q0 45 2.5 90.5t5.5 78.5q4 12 17.5 25.5t33 25t42 19t44.5 7.5q33 0 61 -16.5t41 -58.5q7 12 20 24t30 22t36.5 16t39.5 6q32 0 61.5 -15t51.5 -53
l3 -496q-22 -26 -57.5 -46.5t-75.5 -20.5zM191 752q-9 -12 -2 -30t23 -31.5t36.5 -17.5t37.5 13l91 143q0 24 -12.5 40.5t-29.5 24t-35.5 5.5t-30.5 -16zM157 777l75 128q15 19 35.5 28.5t40.5 9.5t40.5 -8.5t36.5 -25t26 -40t9 -53.5l-100 -156q-17 -17 -33 -23.5t-32 -6.5
q-26 0 -49.5 16.5t-39 39.5t-19.5 48.5t10 43.5l-3 -5z" />
    <glyph glyph-name="ucircumflex" unicode="&#xfb;" horiz-adv-x="512" 
d="M316 47q22 -11 43.5 -11.5t40 4.5t33.5 14.5t24 20.5l-3 467q-15 27 -42.5 33.5t-53.5 1.5t-45 -18t-19 -23l8 -266q-35 -23 -54 -13.5t-27 45.5t-7 95t6 135q-4 24 -16.5 37t-29.5 16.5t-35.5 0.5t-34.5 -10t-28 -16t-14 -16q-4 -47 -6.5 -109t1.5 -125.5t18 -120
t43.5 -92.5t77.5 -44t120 26v-32zM367 -8q-17 0 -39 6t-51 20q-33 -9 -63 -9q-63 0 -102.5 33.5t-62 87t-30.5 120.5t-8 134q0 45 2.5 90.5t5.5 78.5q4 12 17.5 25.5t33 25t42 19t44.5 7.5q33 0 61 -16.5t41 -58.5q7 12 20 24t30 22t36.5 16t39.5 6q32 0 61.5 -15t51.5 -53
l3 -496q-22 -26 -57.5 -46.5t-75.5 -20.5zM346 907q-7 11 -24.5 19t-37.5 9.5t-39.5 -5t-30.5 -23.5l-95 -138q6 -23 21 -40t33.5 -26t36.5 -8.5t30 11.5l42 70l35 -63q17 -17 32 -20t28.5 3t23.5 17.5t16.5 24.5t8.5 23.5t-2 14.5zM456 804q10 -12 7 -38t-17 -52
t-36.5 -45.5t-50.5 -19.5q-18 0 -38 9t-40 31h-1q-2 -2 -3 -5t-3 -5q-16 -15 -33 -21.5t-32 -6.5q-19 0 -40 8.5t-40 25t-34 40t-22 52.5l105 154q17 26 44 37t55 11q32 0 62 -14t44 -35z" />
    <glyph glyph-name="udieresis" unicode="&#xfc;" horiz-adv-x="512" 
d="M316 47q22 -11 43.5 -11.5t40 4.5t33.5 14.5t24 20.5l-3 467q-15 27 -42.5 33.5t-53.5 1.5t-45 -18t-19 -23l8 -266q-35 -23 -54 -13.5t-27 45.5t-7 95t6 135q-4 24 -16.5 37t-29.5 16.5t-35.5 0.5t-34.5 -10t-28 -16t-14 -16q-4 -47 -6.5 -109t1.5 -125.5t18 -120
t43.5 -92.5t77.5 -44t120 26v-32zM367 -8q-17 0 -39 6t-51 20q-33 -9 -63 -9q-63 0 -102.5 33.5t-62 87t-30.5 120.5t-8 134q0 45 2.5 90.5t5.5 78.5q4 12 17.5 25.5t33 25t42 19t44.5 7.5q33 0 61 -16.5t41 -58.5q7 12 20 24t30 22t36.5 16t39.5 6q32 0 61.5 -15t51.5 -53
l3 -496q-22 -26 -57.5 -46.5t-75.5 -20.5zM399 693q25 1 43 13t27 30t10 38.5t-7.5 38.5t-26.5 29.5t-46 12.5q-27 -2 -45 -15t-27 -31t-8.5 -38.5t9.5 -37.5t26.5 -28.5t44.5 -11.5zM116 686q25 1 43 13t27 30t10 38.5t-8 38.5t-26.5 29.5t-45.5 12.5q-27 -2 -45.5 -15
t-27 -31t-8.5 -38.5t9.5 -37.5t27 -28.5t44.5 -11.5zM115 643q-30 0 -53 10.5t-38.5 27t-23.5 38.5t-8 45q0 22 7.5 44t22.5 39.5t37.5 29.5t53.5 14q32 0 55.5 -10.5t39.5 -27.5t23.5 -38.5t7.5 -44.5t-8 -45t-23.5 -40t-38 -29.5t-52.5 -12.5h-2zM398 650q-30 0 -53 10.5
t-38.5 27t-23.5 38.5t-8 45q0 22 7.5 44t22.5 39.5t38 29.5t53 14q32 0 56 -10.5t39.5 -27.5t23 -38.5t7.5 -44.5t-8 -45t-23 -40t-37.5 -29.5t-52.5 -12.5h-3z" />
    <glyph glyph-name="ugrave" unicode="&#xf9;" horiz-adv-x="512" 
d="M316 47q22 -11 43.5 -11.5t40 4.5t33.5 14.5t24 20.5l-3 467q-15 27 -42.5 33.5t-53.5 1.5t-45 -18t-19 -23l8 -266q-35 -23 -54 -13.5t-27 45.5t-7 95t6 135q-4 24 -16.5 37t-29.5 16.5t-35.5 0.5t-34.5 -10t-28 -16t-14 -16q-4 -47 -6.5 -109t1.5 -125.5t18 -120
t43.5 -92.5t77.5 -44t120 26v-32zM367 -8q-17 0 -39 6t-51 20q-33 -9 -63 -9q-63 0 -102.5 33.5t-62 87t-30.5 120.5t-8 134q0 45 2.5 90.5t5.5 78.5q4 12 17.5 25.5t33 25t42 19t44.5 7.5q33 0 61 -16.5t41 -58.5q7 12 20 24t30 22t36.5 16t39.5 6q32 0 61.5 -15t51.5 -53
l3 -496q-22 -26 -57.5 -46.5t-75.5 -20.5zM357 768q10 -19 5 -43.5t-20.5 -47t-38 -38t-47.5 -15.5q-17 0 -33 6.5t-33 23.5l-100 156q0 30 9.5 53.5t25.5 40t36.5 25t40.5 8.5t40 -9t35 -26zM242 877q-12 14 -30.5 16t-36 -5.5t-30 -24t-12.5 -40.5l92 -143q17 -17 37 -13
t36 17.5t23 31.5t-2 30z" />
    <glyph glyph-name="yacute" unicode="&#xfd;" horiz-adv-x="616" 
d="M80 -273q5 -8 29.5 -19t57.5 -17t67.5 -2.5t60.5 24.5l274 793q-2 24 -22.5 37.5t-47.5 18t-55 2t-44 -9.5l-100 -339l-61 333q-23 26 -52 28t-57 -8t-50 -27t-30 -29l164 -458zM168 56q-41 114 -83 231.5t-83 230.5q9 13 27.5 30.5t42.5 33.5t51 27t53 11t52.5 -12
t51.5 -41l30 -167q14 48 28 94.5t27 91.5q23 9 49 15t49 6q25 0 51 -5.5t47 -18t35.5 -32.5t16.5 -49l-282 -815q-28 -23 -59.5 -33t-61.5 -10q-28 0 -57 8.5t-53.5 21t-43 26t-24.5 24.5zM262 752q-9 -12 -2 -30t23 -31.5t36.5 -17.5t37.5 13l91 143q0 24 -12.5 40.5
t-29.5 24t-35.5 5.5t-30.5 -16zM228 777l75 128q15 19 35.5 28.5t40.5 9.5t40.5 -8.5t36.5 -25t26 -40t9 -53.5l-100 -156q-17 -17 -33 -23.5t-32 -6.5q-26 0 -49.5 16.5t-39 39.5t-19.5 48.5t10 43.5l-3 -5z" />
    <glyph glyph-name="ydieresis" unicode="&#xff;" horiz-adv-x="616" 
d="M80 -273q5 -8 29.5 -19t57.5 -17t67.5 -2.5t60.5 24.5l274 793q-2 24 -22.5 37.5t-47.5 18t-55 2t-44 -9.5l-100 -339l-61 333q-23 26 -52 28t-57 -8t-50 -27t-30 -29l164 -458zM168 56q-41 114 -83 231.5t-83 230.5q9 13 27.5 30.5t42.5 33.5t51 27t53 11t52.5 -12
t51.5 -41l30 -167q14 48 28 94.5t27 91.5q23 9 49 15t49 6q25 0 51 -5.5t47 -18t35.5 -32.5t16.5 -49l-282 -815q-28 -23 -59.5 -33t-61.5 -10q-28 0 -57 8.5t-53.5 21t-43 26t-24.5 24.5zM455 682q25 1 43 13t27 30t10 38.5t-7.5 38.5t-26.5 29.5t-46 12.5q-27 -2 -45 -15
t-27 -31t-8.5 -38.5t9.5 -37.5t26.5 -28.5t44.5 -11.5zM172 675q25 1 43 13t27 30t10 38.5t-8 38.5t-26.5 29.5t-45.5 12.5q-27 -2 -45.5 -15t-27 -31t-8.5 -38.5t9.5 -37.5t27 -28.5t44.5 -11.5zM171 632q-30 0 -53 10.5t-38.5 27t-23.5 38.5t-8 45q0 22 7.5 44t22.5 39.5
t37.5 29.5t53.5 14q32 0 55.5 -10.5t39.5 -27.5t23.5 -38.5t7.5 -44.5t-8 -45t-23.5 -40t-38 -29.5t-52.5 -12.5h-2zM454 639q-30 0 -53 10.5t-38.5 27t-23.5 38.5t-8 45q0 22 7.5 44t22.5 39.5t38 29.5t53 14q32 0 56 -10.5t39.5 -27.5t23 -38.5t7.5 -44.5t-8 -45t-23 -40
t-37.5 -29.5t-52.5 -12.5h-3z" />
    <glyph glyph-name="zcaron" unicode="&#x17e;" horiz-adv-x="526" 
d="M402 826q4 4 2 15t-8.5 24t-16.5 24.5t-23.5 17.5t-29 2.5t-31.5 -20.5l-35 -63l-42 71q-12 11 -30 11t-36.5 -8.5t-33.5 -25.5t-21 -41l95 -137q11 -17 30.5 -23.5t39.5 -5t37.5 9t24.5 19.5zM361 672q-14 -20 -44 -34t-62 -14q-28 0 -55 10.5t-44 36.5
q-23 35 -52.5 77.5t-52.5 77.5q7 29 22 52.5t34 39.5t40 24.5t40 8.5q15 0 32 -6.5t34 -21.5l6 -10q20 23 40 32t38 9q28 0 50.5 -16t37 -38t20 -43.5t-0.5 -32.5l-5 -19zM439 56q20 8 31.5 30t13.5 48t-6.5 52.5t-27.5 43.5l-190 -7l179 150q5 12 14 39t9.5 57.5t-13.5 58
t-55 41.5l-316 -11q-12 -3 -21.5 -28.5t-11.5 -55.5t5.5 -57t29.5 -33l201 6l-216 -178q-8 -20 -12.5 -42t-5 -43t4 -38.5t15.5 -29.5zM49 16q-24 26 -34 54t-10 54t6 55.5t17 57.5l129 106q-21 -1 -42 -1t-41 -1q-39 11 -56 44.5t-17 73.5q0 23 6 46.5t16 43.5t22.5 34
t25.5 18l330 11q61 -20 83 -58t22 -81q0 -20 -3.5 -39t-9 -36t-10.5 -30.5t-8 -20.5l-91 -76q19 1 41.5 1.5t39.5 1.5q33 -29 47.5 -63t14.5 -66q0 -42 -20.5 -79t-58.5 -53z" />
    <glyph glyph-name="Eth" unicode="&#xd0;" horiz-adv-x="608" 
d="M320 316q13 5 21.5 28t9.5 49.5t-6.5 49.5t-26.5 29l-60 -3v90q99 -17 139.5 -61t32.5 -112q-3 -31 -17 -59.5t-36 -49.5t-52.5 -33t-66.5 -9v78zM97 56q44 -9 96.5 -8t107 13.5t106 37.5t92.5 65t67.5 95t30.5 127q3 63 -18 120.5t-60 105.5t-90.5 83.5t-109.5 55
t-117.5 21t-112.5 -19.5l2 -285h-38q-18 0 -29.5 -23.5t-13.5 -52.5t8.5 -53.5t37.5 -26.5h37zM49 267q-23 2 -38.5 12.5t-26 26t-15 35t-4.5 40.5q0 22 6 44.5t17 40.5t26 30t33 14q-1 66 -1.5 138.5t-1.5 133.5q44 18 82.5 26t70.5 8q54 0 109 -15.5t105.5 -43.5t94 -67.5
t75 -87.5t48 -103.5t13.5 -114.5q-6 -104 -51 -176t-111.5 -117.5t-145 -66t-151.5 -20.5q-53 0 -130 16z" />
    <glyph glyph-name="thorn" unicode="&#xfe;" horiz-adv-x="561" 
d="M307 509q13 -1 22.5 -16t14 -37t4.5 -47t-5.5 -46.5t-16 -35.5t-27.5 -14q-13 0 -21 15.5t-11 37.5t-2 47.5t6 47t14 35.5t22 13zM69 35q12 -13 34 -17.5t46 -3t45.5 8t31.5 15.5v144q60 -39 112 -35t90 44.5t58 113t15 170.5q-12 82 -42.5 127.5t-70 58.5t-83 -5
t-80.5 -64l-8 125q-17 25 -41 31t-47.5 1t-43 -16t-27.5 -20zM15 728q9 9 24 21t33.5 22t38.5 17t40 7q28 0 56 -13.5t53 -48.5l3 -51q22 13 45.5 20.5t46.5 7.5q33 0 63 -14t55 -42.5t43 -71.5t27 -102q1 -10 1.5 -21.5t0.5 -20.5q0 -77 -16 -139t-45 -105.5t-68.5 -67
t-86.5 -23.5q-15 0 -30 2.5t-30 7.5v-95q-12 -10 -28 -18.5t-34 -14.5t-36.5 -9.5t-35.5 -3.5q-29 0 -57.5 10.5t-52.5 36.5z" />
    <glyph glyph-name="Thorn" unicode="&#xde;" horiz-adv-x="554" 
d="M305 427q14 -1 23.5 -16.5t14 -38.5t4.5 -49t-5.5 -48t-17 -36.5t-28.5 -13.5q-13 1 -21 16.5t-11.5 38.5t-2.5 49t6.5 48.5t15 36.5t22.5 13zM57 -63q12 -14 35.5 -18.5t48.5 -3t47 8t33 15.5v149q61 -41 115.5 -36.5t93.5 46.5t60 118t15 177q-12 84 -44 131.5
t-72.5 60.5t-85.5 -5.5t-83 -66.5l-8 130q-18 26 -43 32.5t-49.5 1.5t-44.5 -17t-28 -21zM2 655q9 10 24.5 22t34.5 22.5t40.5 17.5t41.5 7q29 0 58 -14t54 -51l4 -52q47 28 95 28q34 0 65.5 -14.5t57 -43.5t44.5 -74t28 -106q1 -10 1.5 -21.5t0.5 -21.5q0 -80 -16.5 -144
t-46.5 -109t-71 -69.5t-90 -24.5q-16 0 -31 2.5t-31 7.5v-98q-12 -10 -28.5 -19t-35.5 -15.5t-38 -10t-37 -3.5q-29 0 -58.5 11.5t-54.5 37.5z" />
    <glyph glyph-name="germandbls" unicode="&#xdf;" horiz-adv-x="686" 
d="M270 59q60 3 118.5 17t105.5 39.5t79 62t40 85.5q10 60 -5 101.5t-42.5 67t-61.5 37t-62 11.5q12 11 20 27.5t12.5 35t6.5 37t2 33.5q-7 45 -38.5 75.5t-75.5 46.5t-94 18t-93.5 -9t-75 -34.5t-37.5 -58.5l14 -719q13 -12 27.5 -23.5t31.5 -16.5t37 0t45 26l-10 666
q12 13 30 22t35 10t30.5 -6.5t15.5 -27.5q-2 -26 -10 -35.5t-30 -14.5l3 -131q54 -3 85.5 -19.5t44 -38.5t7.5 -46.5t-23.5 -44.5t-49.5 -31.5t-70 -7.5q-14 -15 -22 -38.5t-9.5 -47t3.5 -42.5t16 -26zM264 18q1 -30 1.5 -60.5t1.5 -59.5q-34 -29 -60.5 -40t-47.5 -11
q-37 0 -65 20.5t-54 44.5l-14 742q6 34 27.5 61t53 45t71 27.5t80.5 9.5q45 0 90 -11t82 -34t63 -57.5t33 -80.5q0 -23 -3 -49.5t-12 -52.5q27 -9 54 -25.5t48 -42t34 -59.5t13 -79q0 -22 -5 -50q-13 -54 -50 -96.5t-89.5 -73.5t-115.5 -48.5t-127 -21.5zM260 360
q1 -26 1 -53.5t1 -53.5q1 3 4 4q26 -2 47.5 1.5t37 11t24 18t8.5 21.5q0 16 -28.5 30.5t-94.5 20.5z" />
    <glyph glyph-name="quotedblleft" unicode="&#x201c;" horiz-adv-x="712" 
d="M325 750q-2 -1 -11.5 -12.5t-21 -26t-22.5 -27.5t-14 -16q45 -9 67 -41.5t22 -74.5q0 -38 -20.5 -76t-60.5 -61q-29 -16 -64 -16q-26 0 -52.5 10.5t-49 30.5t-39.5 48.5t-25 64.5q-5 43 7 84t37 73t59 51t72 19q9 0 18.5 -1.5t22.5 -4.5t31 -9t44 -15zM650 789
q-1 -1 -9 -11.5t-18 -23.5t-19 -25t-13 -15q45 -9 67 -41.5t22 -74.5q0 -38 -20.5 -76t-60.5 -61h1q-31 -16 -65 -16q-26 0 -52 10.5t-48.5 30.5t-40 48.5t-25.5 64.5q-5 43 7 84t37 72.5t59 50.5t73 19q17 0 39 -7t66 -29zM596 770q-37 18 -72 10.5t-62 -33t-41 -63
t-9 -79.5q8 -36 26.5 -61.5t42 -39.5t49 -15.5t48.5 10.5q33 19 48 52t10 62.5t-30 47.5t-71 7q-5 21 2.5 39t19 31t23.5 21.5t16 10.5zM260 724q-36 18 -71.5 10.5t-62 -33t-40.5 -63t-9 -79.5q8 -36 26.5 -61.5t42 -39.5t49 -15.5t48.5 10.5q33 19 47.5 52t9.5 62.5
t-30 47.5t-70 7q-6 21 1.5 39t19.5 31t24 21.5t15 10.5z" />
    <glyph glyph-name="quotedblright" unicode="&#x201d;" horiz-adv-x="702" 
d="M382 474q1 1 11 12.5t21.5 26t22.5 27.5t14 16q-45 9 -67 41.5t-22 74.5q0 38 20.5 76t60.5 61q29 16 64 16q26 0 52.5 -10.5t49 -30.5t39.5 -48.5t25 -64.5q5 -44 -7 -84.5t-37 -72.5t-59 -51t-72 -19q-9 0 -18.5 1.5t-22.5 4.5t-31 9t-44 15zM57 435q1 1 9 11.5
t18 23.5t19 25t13 15q-45 9 -67 41.5t-22 74.5q0 38 20.5 76t60.5 61h-1q31 16 65 16q26 0 52 -10.5t48.5 -30.5t40 -48.5t25.5 -64.5q5 -44 -7 -84.5t-37 -72t-59 -50.5t-73 -19q-17 0 -39 6.5t-66 29.5zM111 454q37 -18 72 -10.5t62 33t41 63t9 79.5q-8 36 -26.5 61.5
t-42 39.5t-49.5 15.5t-48 -10.5q-33 -19 -48 -52t-10 -62.5t30 -47.5t71 -7q5 -21 -2.5 -39t-19 -31t-23.5 -21.5t-16 -10.5zM447 500q36 -18 71.5 -10.5t62 33t40.5 63t9 79.5q-8 36 -26.5 61.5t-42 39.5t-49.5 15.5t-48 -10.5q-33 -19 -47.5 -52t-9.5 -62.5t30 -47.5
t70 -7q6 -21 -1.5 -39t-19.5 -31t-24 -21.5t-15 -10.5z" />
    <glyph glyph-name="endash" unicode="&#x2013;" horiz-adv-x="422" 
d="M328 197q13 4 21 26.5t9 48t-6.5 48t-25.5 28.5l-223 -4q-11 0 -20 -11t-14.5 -27t-7 -35t3 -35.5t14.5 -28t27 -12.5zM105 152q-24 1 -40 10.5t-26.5 25t-15 34.5t-4.5 40q0 22 6 44.5t17.5 40.5t27 29t33.5 11q55 1 114 2t115 2q37 -11 53.5 -43.5t16.5 -69.5
q0 -20 -5 -39.5t-14 -37t-21.5 -30t-27.5 -17.5z" />
  </font>
</defs>
</svg>
